<svg width="280" height="280" viewBox="0 0 280 280" fill="none" xmlns="http://www.w3.org/2000/svg">
<path d="M36.5406 262.686C47.694 256.76 60.6206 258.393 72.614 260.166C85.074 262.033 97.5806 263.526 110.181 264.46C123.247 265.44 136.594 266.233 149.707 265.486C162.401 264.786 174.534 260.726 187.041 258.72C201.694 256.386 216.581 256.2 231.281 258.113C231.514 258.16 231.514 257.786 231.281 257.74C218.214 256.06 204.914 255.966 191.847 257.646C178.734 259.326 166.087 263.713 152.927 264.88C139.721 266.046 126.141 265.16 112.934 264.273C99.4473 263.34 86.1006 261.753 72.754 259.793C60.6673 258.02 47.6473 256.386 36.4473 262.36C36.1673 262.5 36.354 262.78 36.5406 262.686Z" fill="#483463"/>
<path d="M209.719 264.226C231.465 258.626 253.632 270.48 275.332 264.506C275.565 264.46 275.472 264.086 275.239 264.18C253.539 270.153 231.372 258.3 209.625 263.9C209.392 263.946 209.485 264.273 209.719 264.226Z" fill="#483463"/>
<path d="M22.4454 268.8C46.5254 263.2 70.3254 276.92 94.4521 271.88C94.6854 271.833 94.5921 271.506 94.3587 271.553C70.2321 276.64 46.4787 262.92 22.3521 268.473C22.1654 268.473 22.2587 268.846 22.4454 268.8Z" fill="#483463"/>
<path d="M213.919 272.16C213.265 269.733 212.799 267.073 212.612 264.273C211.352 246.307 221.992 232.307 226.799 226.707C227.172 229.74 227.312 233.053 227.125 236.6C226.285 252.933 218.959 265.3 213.919 272.16Z" fill="#F7F6D4"/>
<path d="M213.919 272.16C211.119 269.5 207.666 265.534 204.959 260.074C198.799 247.847 200.199 236.087 201.039 231.374C203.466 235.107 205.986 239.68 208.132 245.094C212.379 255.687 213.639 265.254 213.919 272.16Z" fill="#F7F6D4"/>
<path d="M85.9125 230.16C85.3992 233.893 85.2125 238.793 86.2859 244.347C88.9459 258.113 97.5792 266.747 101.266 270.06C101.546 266.42 101.453 261.94 100.519 256.993C97.8592 243.413 90.0192 234.313 85.9125 230.16Z" fill="#F7F6D4"/>
<path d="M101.266 270.06C98.5591 269.173 99.5857 256.06 103.179 245.513C105.606 238.327 109.059 232.913 111.626 229.413C113.119 235.06 115.312 246.633 110.086 258.58C107.846 263.62 103.412 270.76 101.266 270.06Z" fill="#F7F6D4"/>
<path d="M76.0187 239.493C76.9054 239.493 76.9054 238.094 76.0187 238.094C75.0854 238.094 75.0854 239.493 76.0187 239.493Z" fill="#EFEEF0"/>
<path d="M89.4121 239.4C91.9788 249.527 95.5721 259.373 100.145 268.753C100.239 268.94 100.565 268.8 100.425 268.567C95.8521 259.187 92.2588 249.387 89.7388 239.307C89.6921 239.12 89.3655 239.213 89.4121 239.4Z" fill="#565510"/>
<path d="M101.639 268.567C104.485 260.773 107.379 252.98 110.365 245.233C110.459 245 110.085 244.953 110.039 245.14C107.052 252.887 104.112 260.68 101.312 268.473C101.219 268.707 101.545 268.8 101.639 268.567Z" fill="#565510"/>
<path d="M202.767 241.547C204.961 251.253 208.321 260.587 212.707 269.5C212.801 269.687 213.127 269.547 212.987 269.313C208.601 260.447 205.287 251.067 203.094 241.407C203.094 241.267 202.721 241.36 202.767 241.547Z" fill="#565510"/>
<path d="M220.032 245.327C218.865 254.147 216.812 262.78 213.965 271.18C213.872 271.414 214.245 271.507 214.292 271.274C217.139 262.874 219.145 254.24 220.359 245.42C220.359 245.234 220.032 245.14 220.032 245.327Z" fill="#565510"/>
<path d="M183.633 52.0336C182.98 51.7069 178.966 49.7003 179.153 47.3669C179.34 44.8003 184.706 43.3069 186.946 42.7002C189.42 42.0002 192.593 41.7202 192.92 41.7202C193.526 41.6736 193.76 41.6736 193.9 41.6736C194.786 41.7203 197.166 41.8136 199.173 43.4936C200.48 44.6136 201.086 45.9669 201.46 46.8069C202.16 48.3469 202.346 49.7469 202.393 50.6336C199.5 51.2403 196.093 51.8003 192.313 52.0336C189.093 52.2669 186.2 52.2203 183.633 52.0336Z" fill="#483463"/>
<path d="M206.033 47.3202C203.559 51.7069 198.333 54.1802 193.479 53.3402C188.159 52.4535 184.006 47.8802 183.726 43.5869C183.679 42.8869 183.539 40.5069 184.986 39.2469C186.713 37.7069 188.906 39.4335 191.753 38.1269C194.553 36.8669 193.993 34.4869 196.419 33.3202C199.359 31.9202 204.259 33.4135 206.499 36.9602C209.393 41.4402 206.453 46.6202 206.033 47.3202Z" fill="#483463"/>
<path d="M183.446 51.7069C183.446 52.2669 183.54 53.0135 183.68 53.9002C183.866 54.7869 184.1 56.1869 184.893 57.4935C186.386 60.0602 189.093 60.9935 189.793 61.2269C191.846 61.8802 193.573 61.5535 194.366 61.4135C197.026 60.9469 198.753 59.5469 199.266 59.0802C199.64 58.7535 200.806 57.7269 201.646 56.0002C202.066 55.1602 202.626 54.0402 202.626 52.5002C202.626 51.7535 202.486 51.1002 202.346 50.6802C201.973 50.8202 201.32 50.9602 200.573 50.7735C199.873 50.6335 199.406 50.2602 199.126 50.0269C197.073 48.3935 196.84 46.8069 195.113 45.8269C194.833 45.6402 193.386 44.8469 191.613 45.1269C189.98 45.3602 188.906 46.3869 188.533 46.7602C188.02 47.2269 187.506 48.0669 186.433 49.7469C185.873 50.5869 185.453 51.2869 184.613 51.5669C184.193 51.7535 183.773 51.7535 183.446 51.7069Z" fill="white"/>
<path d="M202.487 52.5004C201.833 57.6804 197.447 61.6004 192.127 61.4137C187.693 61.227 184.52 58.147 183.867 53.8537C183.82 53.6204 183.493 53.7137 183.54 53.947C184.24 58.707 188.02 61.927 192.873 61.787C198.147 61.6004 202.16 57.6804 202.813 52.547C202.86 52.267 202.487 52.267 202.487 52.5004Z" fill="#483463"/>
<path d="M183.633 51.7068C184.24 46.6201 187.833 42.4201 193.106 41.9068C198.426 41.4401 201.833 45.6401 202.206 50.6801C202.206 50.9134 202.58 50.9134 202.58 50.6801C202.206 45.4534 198.66 41.1134 193.153 41.5801C187.693 42.0468 183.96 46.4334 183.353 51.7068C183.26 51.9401 183.633 51.9401 183.633 51.7068Z" fill="#483463"/>
<path d="M202.44 50.8203C202.44 50.8203 202.487 50.8203 202.44 50.8203C202.673 50.727 202.487 50.4003 202.3 50.4936C202.3 50.4936 202.3 50.4936 202.253 50.4936C202.067 50.6336 202.253 50.9136 202.44 50.8203Z" fill="#483463"/>
<path d="M183.447 51.8471C184.66 52.2204 185.407 51.2871 186.107 50.4004C187.833 48.2537 189.047 45.3137 192.267 45.2204C196.747 45.0804 197.913 52.1737 202.487 50.8204C202.72 50.7737 202.627 50.4004 202.393 50.4937C199.173 51.4271 197.867 47.7871 195.907 46.1537C194.787 45.2204 193.387 44.8004 191.94 44.9404C190.633 45.0804 189.513 45.6404 188.58 46.5737C187.413 47.7404 185.453 52.1271 183.587 51.5671C183.307 51.4737 183.213 51.8004 183.447 51.8471Z" fill="#483463"/>
<path d="M191.94 48.5802C191.706 49.9336 190.68 54.6002 192.733 55.1136C192.966 55.1602 193.06 54.8336 192.826 54.7869C191.193 54.3669 192.126 49.7469 192.266 48.6736C192.313 48.4869 191.986 48.3469 191.94 48.5802Z" fill="#483463"/>
<path d="M192.873 56.7002C194.413 57.0269 196.093 55.5802 196.373 54.0869C196.419 53.8536 196.093 53.7602 196.046 53.9936C195.813 55.2536 194.319 56.6069 192.966 56.3269C192.733 56.3269 192.639 56.6536 192.873 56.7002Z" fill="#483463"/>
<path d="M188.812 51.5203C189.07 51.5203 189.279 51.2278 189.279 50.867C189.279 50.5061 189.07 50.2136 188.812 50.2136C188.555 50.2136 188.346 50.5061 188.346 50.867C188.346 51.2278 188.555 51.5203 188.812 51.5203Z" fill="#483463"/>
<path d="M195.767 51.2869C196.024 51.2869 196.233 50.9944 196.233 50.6336C196.233 50.2727 196.024 49.9802 195.767 49.9802C195.509 49.9802 195.3 50.2727 195.3 50.6336C195.3 50.9944 195.509 51.2869 195.767 51.2869Z" fill="#483463"/>
<path d="M188.347 49.2335C188.487 49.0001 188.673 48.8135 188.907 48.6735C189.28 48.4401 189.513 48.5335 189.887 48.7668C190.073 48.9068 190.26 48.5801 190.073 48.4868C189.747 48.2535 189.373 48.1135 188.953 48.3001C188.58 48.4868 188.253 48.7668 188.02 49.0935C187.927 49.2335 188.207 49.4201 188.347 49.2335Z" fill="#483463"/>
<path d="M194.974 48.5333C195.301 48.2533 195.721 48.02 196.141 48.2067C196.468 48.3467 196.608 48.72 196.794 49.0467C196.888 49.2333 197.214 49.0933 197.074 48.86C196.841 48.44 196.608 47.9267 196.094 47.8333C195.581 47.6933 195.114 47.9733 194.741 48.3C194.554 48.44 194.834 48.72 194.974 48.5333Z" fill="#483463"/>
<path d="M190.913 41.9068C191.24 41.4868 192.407 40.2735 194.32 39.9935C197.447 39.5268 199.593 42.1401 199.687 42.2801C198.893 41.8601 197.213 41.0668 195.02 41.0201C193.153 41.0201 191.707 41.5335 190.913 41.9068Z" fill="white"/>
<path d="M108.312 48.2534C109.525 47.0867 110.692 46.3867 111.532 46.0134C112.558 45.5001 113.538 45.0334 114.892 45.1267C115.825 45.1734 116.618 45.4534 117.085 45.6867C117.692 49.5134 118.438 53.4801 119.232 57.4934C120.772 65.0534 122.498 72.1934 124.365 78.9134C125.905 78.1201 128.052 77.0001 130.665 75.6934C138.272 71.8667 145.085 68.6467 150.778 66.0334C153.578 64.7267 157.218 63.1401 161.512 61.2734C164.078 64.7734 164.638 67.7134 164.778 69.5334C165.665 82.0867 148.818 93.8467 136.218 95.9001C132.252 96.5534 127.772 96.3667 127.398 96.3667C119.885 96.0867 114.658 94.0334 113.445 93.5667C111.578 92.8201 110.132 92.0734 109.058 91.4667C108.452 89.3201 107.752 86.3334 107.238 82.7401C106.772 79.2401 106.678 76.6734 106.585 73.4067C106.398 66.8267 106.772 61.4601 107.052 58.2401C107.285 55.5334 107.658 52.1267 108.312 48.2534Z" fill="#100F0D"/>
<path d="M104.86 25.5735C104.58 25.1068 104.113 24.5002 103.74 24.5468C103.507 24.5935 103.32 24.9668 103.18 25.6668C102.853 27.3935 103.087 28.8402 103.087 29.0268C103.507 31.4535 103.973 32.7602 103.973 32.7602C104.86 35.1402 106.587 39.5268 108.967 45.1735C108.967 46.0135 108.967 46.8535 108.967 47.6935C109.993 46.7602 110.927 46.2002 111.627 45.8268C112.467 45.3602 113.167 45.0335 114.1 44.9868C114.94 44.9402 115.64 45.1735 116.06 45.3135C115.5 44.4268 115.5 43.7268 115.547 43.3068C115.593 42.9335 115.733 42.7468 116.573 41.1135C117.227 39.9002 117.32 39.7135 117.413 39.4802C117.833 38.5002 118.067 38.0335 118.067 37.4268C118.067 36.5402 117.693 35.3735 117.087 35.3268C116.993 35.3268 116.62 35.3268 116.153 36.0735C115.453 32.8535 115.313 30.1935 115.313 28.3268C115.313 26.9268 115.407 24.9202 114.52 22.5402C113.773 20.4868 112.933 19.9735 112.467 19.7868C111.813 19.5068 111.113 19.6002 109.713 19.7868C108.407 19.9735 107.8 20.0668 107.333 20.5335C107.24 20.6735 107.147 20.8135 106.96 22.5868C106.773 24.6402 106.773 25.6668 106.773 26.3202C106.773 26.3202 106.773 26.6468 106.773 26.9268C106.82 27.8602 107.007 29.5402 107.613 32.0135C107.053 30.0535 105.98 27.3468 104.86 25.5735Z" fill="white"/>
<path d="M116.246 36.4936C116.432 36.2136 116.619 35.9803 116.899 35.7936C117.179 35.607 117.926 35.2803 117.926 35.887C117.926 36.1203 118.299 36.1203 118.299 35.887C118.299 35.3736 117.832 35.0936 117.366 35.187C116.759 35.2803 116.292 35.8403 115.966 36.307C115.826 36.4936 116.106 36.6803 116.246 36.4936Z" fill="#483463"/>
<path d="M118.113 37.0535C117.833 38.5002 117.319 39.8535 116.526 41.0668C115.966 41.9535 115.406 42.7468 115.453 43.8668C115.453 44.1002 115.826 44.1002 115.826 43.8668C115.733 42.4202 116.899 41.3002 117.459 40.0868C117.926 39.1535 118.206 38.1268 118.439 37.1002C118.486 36.9602 118.159 36.8668 118.113 37.0535Z" fill="#483463"/>
<path d="M108.872 44.5203C107.426 41.1603 105.979 37.7536 104.719 34.3003C104.206 32.8536 103.739 31.3603 103.459 29.8203C103.272 28.887 103.039 27.8603 103.179 26.927C103.319 25.947 103.739 23.707 104.719 25.667C104.812 25.8536 105.139 25.7136 104.999 25.4803C104.719 24.967 104.486 24.6403 104.019 24.2203C103.926 24.127 103.832 24.1736 103.739 24.267C101.966 26.8803 103.086 30.427 103.972 33.1803C105.232 37.1003 106.912 40.8803 108.546 44.6603C108.639 44.8936 108.966 44.707 108.872 44.5203Z" fill="#483463"/>
<path d="M105.42 27.2069C106.073 28.7469 106.773 30.2402 107.427 31.7802C107.52 31.9669 107.8 31.8269 107.707 31.5935C107.053 30.0535 106.353 28.5602 105.7 27.0202C105.607 26.8335 105.327 27.0202 105.42 27.2069Z" fill="#483463"/>
<path d="M107.801 30.1934C107.474 27.2068 106.681 23.1001 107.894 20.2534C107.987 20.0668 107.661 19.9734 107.567 20.1601C106.354 23.0534 107.147 27.1601 107.474 30.1934C107.474 30.3801 107.801 30.4268 107.801 30.1934Z" fill="#483463"/>
<path d="M108.218 20.5335C109.058 23.6135 109.665 26.7401 110.178 29.8668C110.225 30.1001 110.552 30.0068 110.505 29.7735C110.038 26.6001 109.385 23.5201 108.545 20.4401C108.498 20.2535 108.172 20.3468 108.218 20.5335Z" fill="#483463"/>
<path d="M110.32 20.2069C112.046 22.5869 112.373 26.5069 112.886 29.3535C112.933 29.5869 113.26 29.4935 113.213 29.2602C112.7 26.3202 112.42 22.4935 110.6 20.0202C110.506 19.8335 110.18 20.0202 110.32 20.2069Z" fill="#483463"/>
<path d="M114.519 22.6336C114.892 24.5469 115.172 26.4602 115.266 28.3736C115.266 28.6069 115.639 28.6069 115.639 28.3736C115.499 26.4136 115.266 24.4536 114.846 22.5402C114.799 22.3536 114.472 22.4469 114.519 22.6336Z" fill="#483463"/>
<path d="M161.466 61.1336C148.866 66.547 136.453 72.4736 124.273 78.7736C124.086 78.867 124.273 79.1936 124.459 79.0536C136.639 72.707 149.053 66.827 161.653 61.4136C161.839 61.367 161.653 61.0403 161.466 61.1336Z" fill="#483463"/>
<path d="M124.366 78.7734C121.472 67.8534 119.092 56.7934 117.226 45.5934C117.179 45.3601 116.852 45.4534 116.899 45.6867C118.766 56.8401 121.146 67.9001 124.039 78.8668C124.086 79.1001 124.412 79.0068 124.366 78.7734Z" fill="#483463"/>
<path d="M109.199 47.8801C111.206 46.2934 113.492 44.6601 116.152 45.5467C116.386 45.6401 116.479 45.2667 116.246 45.2201C113.446 44.2868 111.066 45.9667 108.966 47.6001C108.732 47.7401 109.012 48.0201 109.199 47.8801Z" fill="#483463"/>
<path d="M108.079 49.0468C106.072 61.0868 105.886 73.3601 107.425 85.4468C107.472 85.6801 107.799 85.6801 107.799 85.4468C106.259 73.3601 106.445 61.1334 108.452 49.1401C108.452 48.9068 108.125 48.8134 108.079 49.0468Z" fill="#483463"/>
<path d="M109.807 92.0733C123.247 98.9799 138.693 96.9733 152.32 91.7466C152.507 91.6533 152.46 91.3266 152.227 91.4199C138.693 96.6466 123.34 98.6532 109.993 91.7932C109.807 91.6532 109.62 91.9799 109.807 92.0733Z" fill="#483463"/>
<path d="M131.461 88.3877C136.687 83.7677 147.654 74.061 152.881 69.441C153.954 68.5077 160.767 62.4877 161.794 61.5544C165.621 60.901 170.941 60.1077 177.334 59.361C186.527 58.2877 193.014 57.5877 201.087 57.821C206.314 57.961 213.547 58.5677 222.181 60.481C222.274 63.2344 222.227 67.0144 221.481 71.4944C221.061 74.201 219.427 83.1144 213.501 93.1944C211.821 96.041 209.067 100.661 204.821 104.674C190.541 118.208 169.261 115.688 168.234 115.548C143.874 112.328 132.441 90.3477 131.461 88.3877Z" fill="#100F0D"/>
<path d="M131.6 88.527C139.393 81.6203 147.186 74.7137 154.98 67.807C155.166 67.667 154.886 67.4337 154.746 67.5737C146.953 74.4804 139.16 81.387 131.366 88.2937C131.18 88.387 131.413 88.667 131.6 88.527Z" fill="#483463"/>
<path d="M161.839 61.7402C178.639 59.2202 195.579 56.7936 212.566 58.7069C212.799 58.7536 212.799 58.3802 212.566 58.3336C195.579 56.3736 178.546 58.8469 161.746 61.3669C161.512 61.4602 161.606 61.7869 161.839 61.7402Z" fill="#483463"/>
<path d="M221.713 68.7402C219.94 82.1802 213.967 94.7335 204.68 104.58C204.54 104.767 204.773 105 204.913 104.813C214.293 94.8735 220.267 82.2268 222.087 68.6935C222.087 68.5068 221.76 68.5068 221.713 68.7402Z" fill="#483463"/>
<path d="M166.507 68.3203C177.52 67.0137 188.627 66.6403 199.733 67.2003C200.62 67.247 200.62 65.847 199.733 65.8003C188.627 65.2403 177.52 65.6137 166.507 66.9203C165.62 67.0137 165.573 68.4137 166.507 68.3203Z" fill="#EFE9F7"/>
<path d="M159.974 75.4134C172.854 74.3401 185.734 74.2468 198.614 75.2268C199.501 75.2734 199.501 73.8734 198.614 73.8268C185.734 72.8934 172.808 72.9401 159.974 74.0134C159.088 74.0601 159.088 75.4601 159.974 75.4134Z" fill="#EFE9F7"/>
<path d="M118.625 71.4478C122.312 72.1478 127.539 73.2678 133.605 75.0411C144.012 78.0278 151.619 81.3411 159.412 84.7011C164.825 87.0344 171.779 90.2544 179.759 94.4544C179.199 96.6944 178.312 99.1677 176.959 101.641C170.565 113.121 157.965 116.621 154.232 117.554C151.852 116.248 148.119 114.241 143.499 111.908C130.665 105.421 126.325 104.348 120.492 99.9144C117.412 97.5344 113.165 93.7077 109.152 87.5011C112.325 82.1344 115.452 76.8144 118.625 71.4478Z" fill="white"/>
<path d="M121.144 71.5402C140.137 76.7202 158.571 83.8135 176.071 92.7735C176.257 92.8669 176.444 92.5869 176.257 92.4935C158.711 83.5335 140.277 76.3935 121.237 71.2135C121.004 71.1669 120.911 71.4935 121.144 71.5402Z" fill="#483463"/>
<path d="M116.012 97.9069C127.958 103.787 139.765 109.994 151.385 116.48C151.572 116.574 151.758 116.294 151.572 116.2C139.952 109.714 128.145 103.507 116.198 97.6269C116.012 97.4869 115.825 97.8136 116.012 97.9069Z" fill="#483463"/>
<path d="M200.06 269.033L116.62 270.153C116.62 253.773 149.053 273.466 149.053 253.96C149.053 239.727 146.906 219.473 145.973 216.906C154.186 216.906 161 216.906 169.213 216.906C168.326 218.68 167.253 237.113 167.253 254.146C167.253 272.253 200.06 253.306 200.06 269.033Z" fill="#C2C018"/>
<path d="M92.3999 130.48L72.5199 138.553C70.7932 139.253 69.7665 141.4 70.1399 143.593L76.2999 182.56C76.6265 184.613 78.0732 186.107 79.7999 186.153L100.1 186.34C102.247 186.34 103.88 184.1 103.693 181.487C103.507 179.153 101.873 177.427 99.9599 177.52L85.2132 178.313C83.4399 178.407 81.8532 176.867 81.5265 174.72L77.6532 149.333C77.2799 147.047 78.4465 144.807 80.3132 144.2L94.6866 139.72C96.7866 139.067 97.9532 136.267 97.1132 133.793L96.8799 133.047C96.1332 130.9 94.1732 129.78 92.3999 130.48Z" fill="#C2C018"/>
<path d="M217.467 130.48L243.413 138.553C245.653 139.253 247.006 141.4 246.54 143.593L238.513 182.56C238.093 184.613 236.18 186.107 233.986 186.153L207.527 186.34C204.773 186.34 202.58 184.1 202.86 181.487C203.093 179.153 205.24 177.427 207.713 177.52L226.94 178.313C229.273 178.407 231.28 176.867 231.746 174.72L236.786 149.333C237.253 147.047 235.713 144.807 233.333 144.2L214.62 139.72C211.867 139.067 210.373 136.267 211.447 133.793L211.773 133.047C212.613 130.9 215.133 129.78 217.467 130.48Z" fill="#C2C018"/>
<path d="M194.507 226.053H114.474C107.614 226.053 101.874 220.92 101.08 214.153L88.9469 111.066C88.0135 103.04 94.2669 95.9932 102.34 95.9932H210.747C219.054 95.9932 225.354 103.413 224.093 111.58L207.807 214.667C206.78 221.2 201.133 226.053 194.507 226.053Z" fill="#DEDC52"/>
<path d="M139.58 152.833C141.726 153.44 143.873 154.047 146.02 154.653C146.906 154.887 147.28 153.533 146.393 153.3C144.246 152.693 142.1 152.087 139.953 151.48C139.066 151.247 138.693 152.6 139.58 152.833Z" fill="#565510"/>
<path d="M147.419 154C149.565 151.106 151.712 148.26 153.859 145.366C154.419 144.666 153.205 143.966 152.645 144.666C150.499 147.56 148.352 150.406 146.205 153.3C145.645 154 146.859 154.7 147.419 154Z" fill="#565510"/>
<path d="M152.646 145.507C152.739 156.94 152.786 168.373 152.879 179.807C152.879 180.693 154.279 180.693 154.279 179.807C154.186 168.373 154.139 156.94 154.046 145.507C154.046 144.62 152.646 144.62 152.646 145.507Z" fill="#565510"/>
<path d="M140.233 151.947C144.199 145.413 148.213 138.927 152.179 132.393C152.646 131.6 151.433 130.9 150.966 131.693C146.999 138.227 142.986 144.713 139.019 151.247C138.553 151.993 139.766 152.74 140.233 151.947Z" fill="#565510"/>
<path d="M152.785 132.067C155.725 132.067 158.665 132.067 161.605 132.067C162.492 132.067 162.492 130.667 161.605 130.667C158.665 130.667 155.725 130.667 152.785 130.667C151.899 130.667 151.899 132.067 152.785 132.067Z" fill="#565510"/>
<path d="M161.466 132.673C161.466 148.213 161.466 163.753 161.466 179.293C161.466 180.18 162.866 180.18 162.866 179.293C162.866 163.753 162.866 148.213 162.866 132.673C162.866 131.787 161.466 131.787 161.466 132.673Z" fill="#565510"/>
<path d="M153.253 179.433C150.36 179.433 147.513 179.433 144.62 179.433C143.733 179.433 143.733 180.833 144.62 180.833C147.513 180.833 150.36 180.833 153.253 180.833C154.14 180.833 154.14 179.433 153.253 179.433Z" fill="#565510"/>
<path d="M143.079 182.84C143.079 184.427 143.079 186.013 143.079 187.553C143.079 188.44 144.479 188.44 144.479 187.553C144.479 185.967 144.479 184.38 144.479 182.84C144.479 181.907 143.079 181.907 143.079 182.84Z" fill="#565510"/>
<path d="M145.04 189.7C152.74 189.7 160.393 189.7 168.093 189.7C168.98 189.7 168.98 188.3 168.093 188.3C160.393 188.3 152.74 188.3 145.04 188.3C144.107 188.3 144.107 189.7 145.04 189.7Z" fill="#565510"/>
<path d="M163.52 180.833C166.04 180.833 168.607 180.833 171.127 180.833C172.013 180.833 172.013 179.433 171.127 179.433C168.607 179.433 166.04 179.433 163.52 179.433C162.633 179.433 162.633 180.833 163.52 180.833Z" fill="#565510"/>
<path d="M170.659 182.42C170.659 184.567 170.659 186.667 170.659 188.813C170.659 189.7 172.059 189.7 172.059 188.813C172.059 186.667 172.059 184.567 172.059 182.42C172.059 181.533 170.659 181.533 170.659 182.42Z" fill="#565510"/>
<path d="M121.194 144.339C125.301 142.939 127.261 138.739 128.941 135.053C131.087 130.293 132.534 125.299 133.327 120.119C132.907 120.166 132.487 120.213 132.067 120.306C133.561 123.713 137.527 124.599 140.887 124.739C145.321 124.879 149.614 123.526 153.254 121.006C154.001 120.493 153.301 119.279 152.554 119.793C149.521 121.893 146.067 123.199 142.381 123.339C139.114 123.479 134.774 123.013 133.281 119.653C133.047 119.139 132.067 119.233 132.021 119.839C131.367 124.086 130.294 128.286 128.707 132.299C127.167 136.079 125.114 141.633 120.914 143.079C119.981 143.266 120.307 144.619 121.194 144.339Z" fill="#565510"/>
<path d="M169.26 206.873C174.813 201.553 182.467 199.08 190.073 200.2C190.587 200.293 191.053 199.92 190.913 199.36C189.14 191.24 191.987 182.7 198.24 177.193C198.94 176.586 197.913 175.606 197.26 176.213C190.633 182.046 187.693 191.146 189.56 199.733C189.84 199.453 190.12 199.173 190.4 198.893C182.28 197.68 174.16 200.246 168.233 205.94C167.58 206.5 168.607 207.526 169.26 206.873Z" fill="#565510"/>
<path d="M170.66 119.42C173.693 125.58 183.026 125.953 188.86 125.02C188.58 124.74 188.3 124.46 188.02 124.18C185.08 132.16 189.186 140.747 197.166 143.547C198.006 143.827 198.38 142.473 197.54 142.193C190.213 139.627 186.666 131.787 189.326 124.553C189.513 123.993 188.953 123.62 188.486 123.713C183.26 124.553 174.58 124.273 171.873 118.72C171.453 117.926 170.24 118.626 170.66 119.42Z" fill="#565510"/>
<path d="M119.466 183.96C122.966 184.286 124.553 189.28 124.833 192.22C125.113 195.16 124.366 198.006 122.826 200.48C122.499 201.04 123.199 201.88 123.806 201.46C130.059 196.7 136.359 203.513 139.999 208.133C140.559 208.833 141.539 207.853 140.979 207.153C136.966 202.066 129.873 195.113 123.106 200.293C123.433 200.62 123.759 200.946 124.086 201.273C126.139 197.913 126.839 193.9 125.906 190.073C125.159 186.853 123.153 182.98 119.513 182.653C118.533 182.466 118.579 183.866 119.466 183.96Z" fill="#565510"/>
<path d="M128.006 178.08C129.733 181.767 131.273 185.547 132.72 189.373C133.046 190.213 134.4 189.84 134.073 189C132.626 185.08 130.993 181.207 129.22 177.38C128.846 176.54 127.633 177.24 128.006 178.08Z" fill="#565510"/>
<path d="M133.513 175.42C134.539 179.433 135.893 183.353 137.573 187.133C137.946 187.973 139.159 187.227 138.786 186.433C137.153 182.747 135.846 178.967 134.866 175.047C134.633 174.16 133.279 174.533 133.513 175.42Z" fill="#565510"/>
<path d="M127.119 183.913C131.459 182.233 135.706 180.273 139.766 178.033C140.559 177.613 139.859 176.4 139.066 176.82C135.099 179.013 130.993 180.927 126.746 182.56C125.906 182.887 126.279 184.24 127.119 183.913Z" fill="#565510"/>
<path d="M129.828 188.533C133.141 186.76 136.548 185.033 139.955 183.447C140.748 183.073 140.048 181.86 139.255 182.233C135.848 183.867 132.488 185.547 129.128 187.32C128.335 187.74 129.035 188.953 129.828 188.533Z" fill="#565510"/>
<path d="M50.3538 122.033C48.9538 121.707 46.9471 121.333 44.5204 120.96C36.1671 119.793 24.7338 119.747 24.3138 121.987C24.0338 123.34 27.9071 125.02 33.2271 127.587C39.7604 130.713 48.9538 135.427 59.9671 141.913C61.6004 137.573 63.1871 133.233 64.8204 128.893C64.5404 127.913 63.6538 125.067 60.9004 123.06C56.2804 119.747 50.7738 121.847 50.3538 122.033Z" fill="#483463"/>
<path d="M25.9937 122.78C32.6671 122.593 38.8737 125.347 44.7071 128.38C50.0271 131.133 54.9737 134.447 59.2204 138.647C59.3604 138.787 59.6404 138.553 59.4537 138.413C54.9737 134.027 49.7471 130.573 44.1471 127.727C38.4537 124.833 32.4337 122.267 25.9471 122.453C25.8071 122.453 25.8071 122.78 25.9937 122.78Z" fill="#EFEEF0"/>
<path d="M42.4203 120.913C43.5403 121.613 44.2869 122.64 44.6603 123.9C44.7069 124.133 45.0803 124.04 44.9869 123.807C44.6136 122.453 43.7736 121.333 42.6069 120.587C42.4203 120.493 42.2336 120.773 42.4203 120.913Z" fill="#EFEEF0"/>
<path d="M44.8018 121.24C45.9218 121.846 46.7151 122.873 46.9484 124.133C46.9951 124.366 47.3218 124.273 47.2751 124.04C46.9951 122.686 46.1551 121.566 44.9418 120.913C44.7551 120.82 44.6151 121.146 44.8018 121.24Z" fill="#EFEEF0"/>
<path d="M47.3696 121.8C48.1163 122.406 48.583 123.246 48.723 124.226C48.7696 124.46 49.0963 124.366 49.0496 124.133C48.9096 123.106 48.3963 122.173 47.603 121.52C47.463 121.426 47.183 121.66 47.3696 121.8Z" fill="#EFEEF0"/>
<path d="M49.7008 121.893C51.1474 121.8 53.0608 121.847 55.2541 122.36C59.9208 123.527 62.9074 126.327 64.2141 127.727C66.0341 126.653 67.8541 125.58 69.6741 124.413C79.7541 118.113 86.5674 112.653 89.9741 109.993C95.4341 105.747 103.554 99.8666 114.754 93.1466C115.641 92.0733 118.767 88.1999 118.067 83.5333C117.181 77.4199 110.274 72.0999 101.314 72.4266C100.334 72.0533 98.6541 71.5866 96.6008 71.7266C96.1341 71.7733 94.0808 71.9599 91.1874 73.5933C89.0874 74.8066 87.9674 76.0199 85.3074 78.7733C79.1941 85.1199 79.8474 84.4199 79.2874 84.9799C75.7408 88.9466 73.4541 91.7933 70.8408 95.0599C61.6941 106.353 60.4808 107.147 55.2541 114.147C52.7808 117.413 50.8674 120.167 49.7008 121.893Z" fill="white"/>
<path d="M50.1198 121.147C57.7265 111.673 65.2865 102.153 72.9398 92.68C76.5331 88.2 80.2665 83.8134 84.3731 79.7534C86.4265 77.7 88.5731 75.6934 90.8598 73.92C94.0798 71.4467 97.3931 71.6334 101.22 72.52C101.453 72.5667 101.546 72.24 101.313 72.1934C98.8865 71.6334 96.2731 71.0734 93.7998 71.8667C91.6531 72.5667 89.8798 74.2467 88.1998 75.74C83.3465 79.9867 79.0065 84.7467 74.8998 89.6934C66.4065 99.96 58.1465 110.507 49.7931 120.913C49.7465 121.1 49.9798 121.333 50.1198 121.147Z" fill="#483463"/>
<path d="M65.1467 127.96C81.1067 116.293 97.3 104.953 113.773 93.94C113.96 93.8 113.773 93.52 113.587 93.66C97.16 104.673 80.92 116.013 64.96 127.68C64.7733 127.773 64.96 128.1 65.1467 127.96Z" fill="#483463"/>
<path d="M49.7007 122.08C52.3607 121.987 54.9274 122.267 57.4007 123.34C59.6407 124.32 62.7207 125.767 64.074 127.82C64.214 128.007 64.494 127.82 64.354 127.633C62.954 125.487 60.1074 124.18 57.8674 123.153C55.2074 121.94 52.5474 121.613 49.654 121.707C49.4674 121.753 49.4674 122.08 49.7007 122.08Z" fill="#483463"/>
<path d="M63.4199 130.527C61.9266 130.2 59.7333 129.733 57.1199 129.407C48.1133 128.147 35.8399 128.1 35.3266 130.48C35.0466 131.927 39.1999 133.747 44.8933 136.5C51.9399 139.86 61.8332 144.9 73.6866 151.9C75.4132 147.233 77.1866 142.613 78.9132 137.947C78.6333 136.873 77.6532 133.84 74.6666 131.693C69.7666 128.1 63.8866 130.34 63.4199 130.527Z" fill="#483463"/>
<path d="M37.1938 131.32C44.2871 131.133 50.9138 134.027 57.1205 137.2C62.9071 140.187 68.3671 143.78 73.0338 148.307C73.1738 148.447 73.4538 148.214 73.2671 148.074C68.4138 143.313 62.6738 139.58 56.6071 136.547C50.5405 133.513 44.1005 130.807 37.1938 130.993C36.9605 130.993 36.9605 131.32 37.1938 131.32Z" fill="#EFEEF0"/>
<path d="M54.879 129.313C56.0457 130.06 56.8857 131.18 57.3057 132.533C57.3523 132.767 57.7257 132.673 57.6323 132.44C57.2123 130.993 56.3257 129.827 55.0657 128.987C54.879 128.893 54.6924 129.22 54.879 129.313Z" fill="#EFEEF0"/>
<path d="M57.4486 129.687C58.6619 130.34 59.5019 131.46 59.7819 132.813C59.8286 133.047 60.1552 132.953 60.1086 132.72C59.8286 131.273 58.8952 130.06 57.5886 129.407C57.4019 129.267 57.2152 129.593 57.4486 129.687Z" fill="#EFEEF0"/>
<path d="M60.2013 130.293C61.0413 130.947 61.508 131.88 61.6947 132.907C61.7413 133.14 62.068 133.047 62.0213 132.813C61.8813 131.693 61.3213 130.713 60.4347 130.013C60.2947 129.873 60.0147 130.153 60.2013 130.293Z" fill="#EFEEF0"/>
<path d="M120.306 71.0732C119.093 71.3066 117.32 71.7266 115.313 72.7066C112.98 73.8732 111.44 75.2266 110.74 75.8332C100.846 84.9332 94.1731 93.3332 94.1731 93.3332C84.1864 105.98 83.6731 104.58 67.3398 124.833C65.4731 127.12 63.9798 129.033 62.9531 130.293C64.3531 130.34 66.4064 130.48 68.7398 131.133C70.2798 131.553 72.2398 132.113 74.4331 133.513C75.5998 134.26 77.4198 135.66 79.0531 138.04C88.7131 129.64 98.6998 121.24 109.013 112.747C117.506 105.747 125.953 98.9799 134.306 92.4466C135.846 89.5999 135.986 87.2666 135.893 85.8666C135.52 79.3799 129.313 73.3599 120.306 71.0732Z" fill="white"/>
<path d="M118.581 71.3067C113.074 72.8001 109.154 76.9067 105.374 80.9667C100.381 86.2867 95.4808 91.6534 90.6275 97.1134C81.0608 107.893 71.7742 118.953 62.8142 130.247C62.6742 130.433 62.9075 130.667 63.0475 130.48C71.6342 119.653 80.5009 109.013 89.6475 98.6534C94.1742 93.5201 98.7475 88.4801 103.414 83.4401C107.754 78.7734 112.188 73.3601 118.581 71.5867C118.908 71.54 118.814 71.2134 118.581 71.3067Z" fill="#483463"/>
<path d="M133.14 93.2868C114.893 107.52 97.0196 122.173 79.4729 137.293C79.2863 137.433 79.5663 137.667 79.7063 137.527C97.2529 122.407 115.126 107.753 133.373 93.5202C133.56 93.3802 133.28 93.1468 133.14 93.2868Z" fill="#483463"/>
<path d="M63.5141 131.04C66.2208 130.107 69.9541 131.46 72.4274 132.673C74.9941 133.887 77.1874 135.66 78.8207 138.04C78.9607 138.227 79.2407 138.04 79.1007 137.853C77.3274 135.24 74.8541 133.327 71.9607 132.067C69.4874 130.993 66.0807 129.827 63.4207 130.713C63.2341 130.76 63.3274 131.133 63.5141 131.04Z" fill="#483463"/>
<path d="M190.213 98.8868C189.84 98.4201 189.373 97.7668 188.953 96.9735C188.72 96.5068 188.207 95.5268 187.787 94.0335C187.507 93.1001 187.553 92.8201 187.133 90.0668C187.133 90.0668 186.9 88.2468 186.387 85.8201C186.013 83.8601 185.78 83.0668 185.127 82.7868C184.66 82.6001 184.1 82.6935 183.68 82.9268C183.213 83.2068 182.933 83.7668 182.793 84.8401C182.653 85.7735 182.513 87.2201 182.793 89.0868C182.14 89.0401 181.253 88.9468 180.227 88.9468C176.68 88.8535 174.207 88.8068 173.46 90.0668C173.273 90.3935 172.947 91.2335 173.787 92.9601C173.693 93.1001 173.087 93.8935 173.273 94.9668C173.367 95.6668 173.74 96.1335 173.927 96.3201C173.833 96.6468 173.6 97.3935 173.833 98.3268C174.067 99.4001 174.72 100.007 175 100.24C175.327 100.8 175.887 101.547 176.82 102.06C177.613 102.48 178.033 102.433 179.947 102.713C181.673 102.993 182.747 103.133 183.913 103.6C185.08 104.067 185.92 104.72 186.433 105.14C186.713 104.207 187.18 102.9 188.02 101.5C188.813 100.333 189.56 99.4935 190.213 98.8868Z" fill="white"/>
<path d="M197.587 60.5266C198.66 59.4999 200.2 58.1932 202.16 56.7466C203.7 55.6266 205.66 54.2266 208.46 52.8732C213.453 50.4466 216.86 50.3065 217.7 50.2599C219.66 50.2132 220.873 50.4932 221.9 51.0999C223.067 51.7532 223.767 52.6866 224.28 53.3866C225.447 54.9266 225.913 56.3266 226.1 56.8866C227.313 60.4799 226.427 56.7932 229.553 65.4266C230.86 69.0199 231.7 71.3999 232.773 74.8999C233.753 78.0266 234.733 81.4799 235.667 85.3066C236.46 88.5732 237.347 92.4932 238.187 97.0199C238.373 98.0932 238.933 101.313 239.493 105.513C240.333 111.673 239.82 110.133 240.473 114.66C240.753 116.667 241.033 118.113 240.707 120.167C240.66 120.587 240.333 122.313 239.26 124.367C238.7 125.44 236.507 129.453 231.887 131.367C229.32 132.393 226.893 132.44 225.727 132.44C225.213 132.44 224.373 132.44 223.207 132.3C218.633 131.74 214.573 129.967 213.407 129.407C211.633 128.613 208.087 126.84 203.56 123.48C198.987 120.073 198.147 118.58 191.333 112.747C189.093 110.88 187.273 109.387 186.06 108.453C186.107 107.333 186.293 105.7 187.04 103.88C187.973 101.5 189.327 99.9132 190.213 99.0266C193.527 100.473 196.98 101.92 200.62 103.32C206.733 105.7 212.613 107.707 218.213 109.433C217.7 107.707 216.953 105.28 215.973 102.34C212.193 90.9532 208.273 82.5066 205.427 76.3932C203.513 72.0999 200.9 66.6866 197.587 60.5266Z" fill="#100F0D"/>
<path d="M201.599 57.4466C204.539 55.0199 207.899 53.0599 211.539 51.8466C215.646 50.4466 220.779 49.1866 223.859 53.1066C226.146 55.9999 227.266 59.9666 228.573 63.3266C229.926 66.8266 231.186 70.3733 232.306 73.9199C236.833 88.1999 239.586 102.993 240.566 117.927C240.566 118.16 240.939 118.16 240.939 117.927C239.819 100.94 236.413 84.1399 230.719 68.0866C229.366 64.2599 227.919 60.4799 226.286 56.7933C225.073 53.9933 223.533 51.0533 220.313 50.2599C216.999 49.4666 213.033 50.8199 209.999 52.0333C206.873 53.2933 203.979 55.0666 201.366 57.2133C201.179 57.3066 201.413 57.5866 201.599 57.4466Z" fill="#483463"/>
<path d="M205.146 76.0198C210.14 86.0998 214.293 96.5532 217.606 107.287C217.653 107.52 218.026 107.427 217.933 107.193C214.62 96.4132 210.42 85.9598 205.426 75.8332C205.38 75.6465 205.053 75.8332 205.146 76.0198Z" fill="#483463"/>
<path d="M190.401 99.0732C199.081 102.76 207.901 106.073 216.861 108.967C217.094 109.06 217.187 108.687 216.954 108.64C208.041 105.747 199.221 102.433 190.587 98.7932C190.354 98.6999 190.167 98.9799 190.401 99.0732Z" fill="#483463"/>
<path d="M190.026 98.9799C187.459 101.173 186.059 104.347 186.246 107.707C186.246 107.94 186.619 107.94 186.619 107.707C186.479 104.393 187.786 101.36 190.306 99.2133C190.446 99.0733 190.213 98.8399 190.026 98.9799Z" fill="#483463"/>
<path d="M186.946 108.593C195.253 116.9 204.026 125.813 215.133 130.247C220.219 132.253 226.146 133.467 231.466 131.6C236.879 129.733 239.399 125.347 240.893 120.12C240.939 119.887 240.613 119.793 240.566 120.027C238.793 126.28 235.246 130.947 228.479 131.973C222.739 132.86 216.813 130.9 211.773 128.333C202.346 123.527 194.646 115.733 187.226 108.36C187.039 108.173 186.759 108.407 186.946 108.593Z" fill="#483463"/>
<path d="M183.027 89.5999C182.98 87.6399 182.233 83.8132 184.333 82.7865C184.52 82.6932 184.38 82.3666 184.147 82.5066C181.767 83.7199 182.653 87.4999 182.653 89.6466C182.653 89.8332 183.027 89.8332 183.027 89.5999Z" fill="#483463"/>
<path d="M185.173 83.3931C187.833 88.0598 186.106 94.1731 189.793 98.3731C189.933 98.5598 190.166 98.2798 190.026 98.1398C186.386 93.9865 188.066 87.8731 185.453 83.2065C185.359 83.0198 185.079 83.2065 185.173 83.3931Z" fill="#483463"/>
<path d="M173.973 89.9733C175.233 89.32 176.96 89.32 178.36 89.18C179.573 89.0867 180.787 89.0867 182 89.18C182.233 89.18 182.233 88.8533 182 88.8067C180.367 88.6667 178.78 88.76 177.193 88.9467C176.073 89.0867 174.86 89.1333 173.833 89.6467C173.6 89.74 173.786 90.0667 173.973 89.9733Z" fill="#483463"/>
<path d="M173.693 93.1001C174.533 94.1267 175.607 94.8734 176.82 95.2934C177.053 95.3867 177.147 95.0134 176.913 94.9667C175.7 94.5467 174.72 93.8467 173.927 92.8667C173.787 92.6801 173.553 92.9134 173.693 93.1001Z" fill="#483463"/>
<path d="M173.412 95.5733C173.832 97.16 175.932 98.1867 177.332 98.7467C177.519 98.84 177.612 98.5133 177.425 98.42C176.165 97.9067 174.159 96.9267 173.785 95.5267C173.692 95.2467 173.319 95.34 173.412 95.5733Z" fill="#483463"/>
<path d="M173.973 99.12C174.766 100.1 175.513 101.547 176.68 102.153C177.847 102.713 179.387 102.807 180.647 102.947C180.88 102.947 180.88 102.62 180.647 102.573C179.387 102.433 177.24 102.34 176.26 101.407C175.467 100.707 174.906 99.68 174.253 98.8866C174.066 98.7 173.833 98.98 173.973 99.12Z" fill="#483463"/>
<path d="M182.279 103.226C183.773 103.553 185.173 104.253 186.339 105.233C186.526 105.373 186.759 105.14 186.573 105C185.359 103.973 183.913 103.273 182.373 102.9C182.139 102.853 182.046 103.18 182.279 103.226Z" fill="#483463"/>
</svg>
