<svg width="280" height="280" viewBox="0 0 280 280" fill="none" xmlns="http://www.w3.org/2000/svg">
<g clip-path="url(#clip0_919_11633)">
<path d="M148.867 193.293C184.38 193.293 219.894 193.293 255.454 193.293C255.687 193.293 255.687 192.92 255.454 192.92C219.94 192.92 184.427 192.92 148.867 192.92C148.634 192.92 148.634 193.293 148.867 193.293Z" fill="#483463"/>
<path d="M237.393 206.593L223.16 206.22L218.4 180.18L242.853 181.393L237.393 206.593Z" fill="#483463"/>
<path d="M230.627 185.593C237.379 185.593 242.853 183.483 242.853 180.88C242.853 178.277 237.379 176.167 230.627 176.167C223.874 176.167 218.4 178.277 218.4 180.88C218.4 183.483 223.874 185.593 230.627 185.593Z" fill="white" stroke="#483463" stroke-width="0.35" stroke-miterlimit="10"/>
<path d="M235.48 131.46C237.347 140.653 232.074 148.96 229.74 157.5C228.76 161.093 228.34 164.78 228.947 168.467C229.647 172.947 231.374 177.333 229.974 181.86C229.694 182.7 231.047 183.073 231.327 182.233C232.587 178.313 231.607 174.487 230.767 170.567C229.74 165.573 230.114 161.047 231.607 156.193C234.174 147.933 238.654 139.953 236.88 131.087C236.647 130.247 235.294 130.62 235.48 131.46Z" fill="#DEDC52"/>
<path d="M221.947 132.486C224.7 137.9 221.62 144.62 222.32 150.36C222.6 152.74 223.347 154.933 224.607 156.986C226.1 159.46 228.013 161.606 228.713 164.453C228.947 165.34 230.3 164.966 230.067 164.08C229.413 161.606 228.013 159.6 226.613 157.5C224.607 154.513 223.58 151.526 223.533 147.886C223.487 142.52 225.68 136.826 223.113 131.74C222.74 130.993 221.573 131.693 221.947 132.486Z" fill="#DEDC52"/>
<path d="M231.467 155.727C237.254 148.82 246.027 142.707 245.934 132.72C245.934 131.833 244.534 131.833 244.534 132.72C244.627 142.24 235.994 148.12 230.487 154.7C229.88 155.4 230.86 156.427 231.467 155.727Z" fill="#DEDC52"/>
<path d="M215.32 136.593C215.04 137.76 214.434 140.793 215.74 144.2C217.56 149.007 221.714 150.967 222.6 151.34C222.554 149.613 222.227 146.393 220.454 142.94C218.774 139.72 216.627 137.667 215.32 136.593Z" fill="#DEDC52"/>
<path d="M222.553 133.793C222.273 132.72 222.087 131.367 222.133 129.873C222.46 124.32 226.38 120.68 227.547 119.7C227.827 120.773 228.013 122.127 227.92 123.573C227.64 129.08 223.767 132.72 222.553 133.793Z" fill="#DEDC52"/>
<path d="M229.6 168.28C229.927 166.88 230.767 164.313 232.913 161.84C235.62 158.713 238.793 157.5 240.193 157.08C239.773 158.527 238.793 161.233 236.413 163.8C233.847 166.553 231.047 167.767 229.6 168.28Z" fill="#DEDC52"/>
<path d="M235.107 144.2C234.174 143.08 232.82 141.166 231.934 138.506C230.674 134.68 231.14 131.366 231.467 129.733C232.214 130.9 233.007 132.346 233.614 134.073C235.154 138.133 235.247 141.82 235.107 144.2Z" fill="#DEDC52"/>
<path d="M225.587 158.107C225.12 156.8 224.047 153.02 225.587 148.82C226.287 146.86 227.36 145.46 228.154 144.527C228.434 146.02 228.667 148.167 228.294 150.78C227.78 154.14 226.474 156.66 225.587 158.107Z" fill="#DEDC52"/>
<path d="M236.273 134.213C235.947 133.093 235.573 131.413 235.573 129.36C235.573 126.42 236.367 124.273 236.6 123.667C237.533 121.193 238.933 119.467 239.867 118.487C240.053 119.42 240.287 120.773 240.38 122.407C240.473 124.507 240.567 127.493 239.027 130.573C238.513 131.507 237.72 132.86 236.273 134.213Z" fill="#DEDC52"/>
<path d="M120.26 151.573C120.26 151.573 -15.1666 98.3733 -16.2866 98V105.42L42.8868 127.26L41.1134 236.18H46.0134L47.7868 129.08L92.0268 145.413L90.2068 239.4H95.1068L96.8801 147.14L120.26 155.773V151.573Z" fill="white" stroke="#483463" stroke-width="0.35" stroke-miterlimit="10"/>
<path d="M-1.35311 245.42C32.4802 253.027 66.5469 259.7 100.8 265.393C110.507 267.027 120.214 268.52 129.92 270.013C130.154 270.06 130.247 269.687 130.014 269.687C95.7136 264.553 61.5536 258.44 27.5802 251.347C17.9669 249.34 8.35356 247.24 -1.21311 245.093C-1.44644 245.047 -1.53977 245.373 -1.35311 245.42Z" fill="#483463"/>
<path d="M65.9868 239.82C100.193 245.887 134.4 252 168.607 258.067C168.84 258.113 168.933 257.787 168.7 257.74C134.493 251.673 100.287 245.56 66.0801 239.493C65.8468 239.447 65.7535 239.773 65.9868 239.82Z" fill="#483463"/>
<path d="M123.62 237.44C152.6 242.107 181.58 246.493 210.653 250.507C210.887 250.553 210.98 250.18 210.747 250.18C181.673 246.12 152.693 241.78 123.713 237.113C123.48 237.067 123.387 237.393 123.62 237.44Z" fill="#483463"/>
<path d="M107.1 242.807C104.44 244.253 100.8 246.447 96.8333 249.713C93.8 252.187 89.5533 255.687 90.0666 256.62C90.5333 257.507 95.1533 256.573 114.287 248.08C113.867 246.027 113.447 244.02 113.027 241.967C111.02 242.247 109.06 242.527 107.1 242.807Z" fill="#483463"/>
<path d="M103.553 245.047C104.347 245.14 105.047 245.467 105.7 245.887C105.887 246.027 106.073 245.7 105.887 245.607C105.233 245.14 104.44 244.813 103.647 244.72C103.413 244.673 103.32 245 103.553 245.047Z" fill="white"/>
<path d="M101.827 246.307C102.667 246.26 103.46 246.587 104.113 247.147C104.253 247.287 104.533 247.053 104.347 246.913C103.647 246.26 102.76 245.933 101.827 245.933C101.593 245.933 101.593 246.307 101.827 246.307Z" fill="white"/>
<path d="M98.9797 247.893C99.7731 247.893 100.52 248.173 101.173 248.64C101.36 248.78 101.546 248.453 101.36 248.36C100.66 247.847 99.8664 247.567 98.9797 247.567C98.7464 247.567 98.7464 247.893 98.9797 247.893Z" fill="white"/>
<path d="M113.307 247.333C109.434 249.06 105.607 250.787 101.734 252.513C101.547 252.607 101.687 252.887 101.92 252.793C105.794 251.067 109.62 249.34 113.494 247.613C113.727 247.52 113.54 247.24 113.307 247.333Z" fill="white"/>
<path d="M135.287 137.62C128.427 147.98 121.474 159.553 114.8 172.293C111.207 179.153 107.94 185.873 104.954 192.407C104.86 194.553 104.767 197.4 104.72 200.713C104.58 209.627 104.907 216.44 105 218.493C105.327 225.027 106.027 233.427 107.474 243.273C107.847 243.553 108.454 243.927 109.247 244.02C110.694 244.207 112.14 243.367 113.074 241.967C113.447 237.953 113.867 233.94 114.38 229.787C115.874 217.187 117.88 205.24 120.214 193.993C121.894 192.22 124.694 189.28 128.147 185.64C137.06 176.213 138.227 174.907 143.267 169.633C147.467 165.293 153.02 159.553 153.02 159.553C150.5 165.107 161.187 147.84 158.807 142.24C157.5 139.347 152.6 136.453 135.287 137.62Z" fill="white"/>
<path d="M133.934 139.207C124.087 154.607 115.08 170.567 107.007 186.993C106.914 187.18 107.194 187.367 107.287 187.18C115.36 170.753 124.367 154.793 134.214 139.393C134.354 139.207 134.074 139.02 133.934 139.207Z" fill="#483463"/>
<path d="M154.093 158.2C142.567 169.913 131.273 181.86 120.167 193.947C120.027 194.133 120.26 194.367 120.4 194.18C131.507 182.047 142.8 170.147 154.327 158.433C154.513 158.247 154.233 158.013 154.093 158.2Z" fill="#483463"/>
<path d="M120.12 193.947C116.853 209.813 114.426 225.867 112.84 242.013C112.84 242.247 113.166 242.247 113.213 242.013C114.8 225.913 117.226 209.907 120.447 194.04C120.493 193.807 120.166 193.713 120.12 193.947Z" fill="#483463"/>
<path d="M104.72 192.407C103.973 209.253 104.72 226.1 106.913 242.807C106.96 243.04 107.287 243.04 107.287 242.807C105.093 226.1 104.347 209.253 105.093 192.407C105.093 192.173 104.767 192.173 104.72 192.407Z" fill="#483463"/>
<path d="M107.287 243.413C108.78 244.86 110.787 244.02 112.373 243.227C112.56 243.133 112.42 242.807 112.187 242.947C110.74 243.693 108.873 244.487 107.52 243.18C107.38 242.993 107.147 243.273 107.287 243.413Z" fill="#483463"/>
<path d="M176.586 231.093C175.933 232.773 175 235.153 174.066 238.093C172.34 243.46 170.706 248.593 171.64 249.153C172.386 249.573 175.14 247.24 184.006 234.827C183.493 233.1 182.933 231.373 182.42 229.647C180.506 230.113 178.546 230.627 176.586 231.093Z" fill="#483463"/>
<path d="M175.373 234.5C176.073 234.034 176.96 234.034 177.66 234.454C177.846 234.547 178.033 234.267 177.846 234.174C177.006 233.66 176.026 233.707 175.186 234.22C175.046 234.314 175.186 234.64 175.373 234.5Z" fill="white"/>
<path d="M174.626 236.647C175.42 236.273 176.353 236.413 177.006 237.02C177.193 237.16 177.426 236.927 177.24 236.787C176.446 236.087 175.373 235.947 174.44 236.367C174.253 236.413 174.393 236.74 174.626 236.647Z" fill="white"/>
<path d="M173.74 239.167C174.58 238.653 175.56 238.7 176.353 239.307C176.54 239.447 176.727 239.12 176.54 239.027C175.653 238.373 174.487 238.327 173.553 238.887C173.367 238.98 173.553 239.307 173.74 239.167Z" fill="white"/>
<path d="M183.166 234.36C181.486 236.507 179.853 238.7 178.313 240.94C178.173 241.127 178.5 241.313 178.593 241.127C180.133 238.933 181.72 236.74 183.4 234.64C183.54 234.407 183.306 234.173 183.166 234.36Z" fill="white"/>
<path d="M140.933 143.873C140.7 144.9 140.746 147.56 140.886 149.147C141.073 151.76 141.493 153.72 141.68 154.56C143.593 163.1 146.906 174.16 146.906 174.16C150.64 186.433 149.706 185.22 151.666 190.447C154.046 196.793 156.613 201.74 158.386 204.867C161.046 209.58 163.333 212.753 166.74 217.513C169.306 221.107 172.853 225.773 177.286 231.14C177.8 231.187 178.406 231.233 179.153 231.14C180.74 230.907 181.86 230.113 182.373 229.647C178.92 218.68 175.42 207.713 171.966 196.747C169.68 184.193 167.626 171.08 165.853 157.407C165.013 150.92 164.313 144.527 163.66 138.273C151.433 137.993 141.82 140.093 140.933 143.873Z" fill="white"/>
<path d="M164.08 143.5C165.993 161 168.56 178.454 171.826 195.72C171.873 195.954 172.2 195.86 172.153 195.627C168.933 178.36 166.366 160.954 164.453 143.5C164.406 143.267 164.033 143.267 164.08 143.5Z" fill="#483463"/>
<path d="M171.827 196.793C175.513 207.713 178.967 218.68 182.233 229.693C182.28 229.927 182.653 229.833 182.56 229.6C179.293 218.587 175.793 207.62 172.153 196.7C172.107 196.467 171.78 196.56 171.827 196.793Z" fill="#483463"/>
<path d="M141.26 153.673C143.266 161.093 145.226 168.513 147.233 175.887C149.1 182.887 150.966 189.933 153.953 196.56C159.553 209.067 168.186 219.893 176.68 230.58C176.82 230.767 177.053 230.487 176.913 230.347C168.466 219.707 159.88 208.88 154.233 196.42C151.2 189.653 149.333 182.513 147.42 175.42C145.46 168.14 143.546 160.907 141.586 153.627C141.54 153.393 141.213 153.487 141.26 153.673Z" fill="#483463"/>
<path d="M177.333 231.327C179.2 231.373 181.346 231.327 182.466 229.553C182.606 229.367 182.28 229.18 182.186 229.367C181.16 231 179.106 231.047 177.38 230.953C177.1 230.953 177.1 231.28 177.333 231.327Z" fill="#483463"/>
<path d="M69.253 111.113C68.7864 110.88 68.133 110.507 67.293 110.04C64.5864 108.453 64.213 107.8 62.253 106.82C60.993 106.167 59.6864 105.56 57.913 105.56C56.9797 105.56 55.533 105.607 54.7397 106.633C54.1797 107.38 53.9464 108.547 54.413 109.293C54.7864 109.9 55.393 109.807 56.513 110.6C57.1664 111.067 57.4464 111.487 57.773 111.813C58.8464 112.933 60.2464 113.26 62.6264 113.867C63.933 114.193 65.893 114.753 68.5064 115.5C68.7397 114.053 68.973 112.56 69.253 111.113Z" fill="white"/>
<path d="M126 78.3534C125.3 78.4468 124.507 79.1934 123.387 80.2668C120.587 82.9734 119.467 86.0068 119.233 86.5668C118.067 89.6468 114.24 96.3201 104.953 110.04C100.567 110.32 96.0399 110.553 91.2799 110.6C83.7199 110.74 76.5799 110.553 69.8599 110.18C69.4865 110.647 68.9732 111.393 68.6465 112.42C68.1332 114.007 68.3199 115.36 68.4599 116.013C71.9599 117.227 75.6932 118.347 79.6132 119.373C88.6665 121.753 97.0665 123.153 104.673 123.993C105.747 123.993 107.24 123.9 108.967 123.573C109.993 123.387 112.14 122.873 115.547 121.193C116.853 120.54 118.673 119.56 124.32 115.5C126.56 113.867 128.473 112.513 129.873 111.44C132.44 109.433 134.96 107.427 137.527 105.42C131.553 83.3468 128.1 78.0734 126 78.3534Z" fill="#100F0D"/>
<path d="M125.486 78.4468C120.819 81.0601 118.673 87.2668 116.153 91.6534C112.699 97.6268 109.106 103.46 105.326 109.247C105.186 109.433 105.513 109.62 105.606 109.433C109.059 104.16 112.373 98.8401 115.546 93.3801C117.039 90.8134 118.533 88.2001 119.979 85.5401C121.473 82.8801 122.966 80.2668 125.673 78.7268C125.859 78.6334 125.673 78.3534 125.486 78.4468Z" fill="#483463"/>
<path d="M70.1863 110.18C81.7596 110.974 93.3796 110.974 104.906 110.18C105.14 110.18 105.14 109.807 104.906 109.807C93.3329 110.6 81.7129 110.6 70.1863 109.807C69.9996 109.807 69.9996 110.18 70.1863 110.18Z" fill="#483463"/>
<path d="M69.7663 110.04C68.5063 111.627 67.993 113.54 68.3196 115.547C68.3663 115.78 68.693 115.687 68.6463 115.453C68.3663 113.587 68.833 111.767 70.0463 110.273C70.1396 110.087 69.9063 109.853 69.7663 110.04Z" fill="#483463"/>
<path d="M68.4597 116.153C74.293 118.253 80.313 119.793 86.4264 121.053C92.1197 122.22 98.0464 123.713 103.88 124.087C108.966 124.413 113.866 122.547 118.16 119.933C123.48 116.76 128.38 112.793 133.326 109.107C133.513 108.967 133.326 108.687 133.14 108.827C124.46 115.173 114.566 124.833 102.993 123.667C97.2064 123.06 91.3264 121.753 85.633 120.54C79.8464 119.327 74.1064 117.833 68.553 115.827C68.3197 115.733 68.2264 116.107 68.4597 116.153Z" fill="#483463"/>
<path d="M68.5995 110.88C66.8261 109.433 64.9128 108.127 62.9061 107.007C61.3195 106.12 59.6861 105.047 57.7728 105.373C57.5395 105.42 57.6328 105.747 57.8661 105.7C59.8261 105.327 62.3461 107.007 63.9328 107.987C65.4728 108.92 66.9195 109.947 68.2728 111.067C68.5528 111.253 68.7861 111.02 68.5995 110.88Z" fill="#483463"/>
<path d="M62.2997 108.593C61.3197 107.613 59.593 107.66 58.7064 108.78C58.6597 108.873 58.613 108.967 58.7064 109.013C59.033 109.293 59.3597 109.387 59.733 109.527C60.573 109.76 61.0397 110.133 61.5064 110.88C61.973 111.72 62.4397 112.56 63.4664 112.747C63.6997 112.793 63.793 112.467 63.5597 112.42C61.973 112.14 61.9264 109.993 60.4797 109.387C60.2464 109.293 59.9664 109.247 59.733 109.153C59.1264 108.967 58.9397 108.827 59.593 108.453C60.3864 107.987 61.413 108.173 62.0664 108.827C62.2064 108.967 62.4397 108.733 62.2997 108.593Z" fill="#483463"/>
<path d="M55.673 106.68C56.6997 106.68 57.6797 106.913 58.5664 107.427C58.753 107.52 58.9397 107.24 58.753 107.147C57.8197 106.587 56.7464 106.307 55.673 106.353C55.4397 106.353 55.4397 106.68 55.673 106.68Z" fill="#483463"/>
<path d="M54.7397 108.36C55.813 108.22 56.793 108.407 57.773 108.874C57.9597 108.967 58.1463 108.687 57.9597 108.594C56.933 108.08 55.8597 107.894 54.7397 108.034C54.553 108.034 54.553 108.36 54.7397 108.36Z" fill="#483463"/>
<path d="M55.2063 109.667C56.373 109.62 57.4463 110.087 58.193 111.02C58.333 111.207 58.5663 110.927 58.4263 110.787C57.633 109.807 56.4197 109.293 55.1597 109.34C55.0197 109.34 55.0197 109.713 55.2063 109.667Z" fill="#483463"/>
<path d="M56.933 111.3C59.593 114.053 63.793 114.38 67.3397 115.22C67.573 115.267 67.6664 114.94 67.433 114.893C63.9797 114.053 59.733 113.727 57.1664 111.067C57.0264 110.88 56.7464 111.113 56.933 111.3Z" fill="#483463"/>
<path d="M126 78.3534C125.02 79.9867 123.9 82.1334 123.013 84.7934C121.893 88.2001 121.567 91.1867 121.473 93.4267C122.827 98.0467 124.227 102.76 125.533 107.473C128.567 118.253 131.413 128.847 134.073 139.3C135.193 140.373 136.92 141.913 139.393 143.173C144.433 145.74 149.193 145.507 152.507 145.32C155.167 145.18 159.32 144.667 164.08 142.753C165.34 136.827 166.32 131.647 167.02 127.4C168.373 119.373 169.82 110.693 170.473 99.4934C170.847 93.4734 170.847 88.2934 170.8 84.1867C168.84 83.2067 166.133 81.9934 162.82 80.8268C159.273 79.5668 153.16 77.4201 144.993 76.8134C137.667 76.2068 131.18 77.0934 126 78.3534Z" fill="#100F0D"/>
<path d="M121.333 93.4734C125.58 107.8 129.547 122.267 133.187 136.78C133.233 137.013 133.56 136.92 133.514 136.687C129.874 122.173 125.907 107.753 121.66 93.38C121.567 93.1467 121.24 93.24 121.333 93.4734Z" fill="#483463"/>
<path d="M133.933 139.44C137.62 143.313 142.707 144.947 147.933 145.367C153.487 145.833 159.18 145.32 164.22 142.893C164.407 142.8 164.267 142.473 164.033 142.613C159.273 144.947 153.953 145.413 148.727 145.133C143.313 144.807 137.993 143.267 134.167 139.253C134.027 139.02 133.747 139.253 133.933 139.44Z" fill="#483463"/>
<path d="M126.047 78.4933C140.7 74.9933 156.24 77 169.54 84.0466C169.727 84.14 169.913 83.86 169.727 83.7666C156.333 76.6266 140.747 74.6666 126 78.1666C125.72 78.2133 125.813 78.54 126.047 78.4933Z" fill="#483463"/>
<path d="M170.427 86.1C171.22 105.14 167.767 123.947 163.847 142.52C163.8 142.753 164.127 142.847 164.174 142.613C168.094 124.04 171.5 105.187 170.754 86.1C170.754 85.8667 170.427 85.8667 170.427 86.1Z" fill="#483463"/>
<path d="M126.234 93.9399C135.894 95.4799 145.6 96.6466 155.354 97.4399C155.82 97.4866 155.82 96.7866 155.354 96.7399C145.647 95.9466 136.034 94.7799 126.42 93.2399C126 93.1933 125.814 93.8466 126.234 93.9399Z" fill="#EFE9F7"/>
<path d="M131.414 102.807C137.434 103.74 143.454 104.58 149.474 105.327C149.94 105.373 149.894 104.673 149.474 104.627C143.5 103.88 137.527 103.04 131.6 102.107C131.18 102.107 130.994 102.76 131.414 102.807Z" fill="#EFE9F7"/>
<path d="M132.067 114.52C139.627 116.48 147.42 117.32 155.213 117.087C155.68 117.087 155.68 116.387 155.213 116.387C147.467 116.62 139.767 115.78 132.253 113.867C131.833 113.727 131.647 114.38 132.067 114.52Z" fill="#EFE9F7"/>
<path d="M131.367 119.653C139.767 122.593 148.587 123.993 157.5 123.76C157.967 123.76 157.967 123.06 157.5 123.06C148.633 123.293 139.907 121.94 131.553 119C131.133 118.813 130.947 119.513 131.367 119.653Z" fill="#EFE9F7"/>
<path d="M200.06 152.367L175.093 163.333L177.613 199.407L183.493 202.393L207.246 178.173L208.32 153.347L200.06 152.367Z" fill="#DEDC52"/>
<path d="M183.027 159.367C183.167 159.507 183.353 159.74 183.68 159.88C184.333 160.253 185.033 160.16 185.266 160.113C185.406 159.507 185.593 158.667 185.92 157.733C186.526 156.007 186.946 154.747 188.066 153.58C188.533 153.113 190.026 151.48 192.126 151.48C192.64 151.48 193.666 151.48 194.413 152.273C195.206 153.113 195.066 154.233 195.066 154.467C195.253 154.607 195.72 154.933 196.373 154.933C197.586 154.887 198.193 153.767 198.24 153.72C198.146 153.253 197.913 152.553 197.446 151.853C196.326 150.267 194.6 149.893 193.993 149.753C192.453 149.427 191.24 149.753 190.54 149.94C188.16 150.593 186.713 152.133 186.06 152.833C183.82 155.353 183.213 158.107 183.027 159.367Z" fill="white"/>
<path d="M183.306 159.553C183.493 156.333 185.08 153.347 187.74 151.527C191.006 149.287 196.513 149.1 198.006 153.533C198.1 153.767 198.426 153.673 198.333 153.44C197.026 149.613 192.686 148.867 189.233 150.313C185.5 151.9 183.12 155.587 182.933 159.6C182.933 159.787 183.26 159.787 183.306 159.553Z" fill="#483463"/>
<path d="M182.933 159.507C183.54 160.207 184.426 160.487 185.313 160.3C185.546 160.253 185.453 159.927 185.22 159.973C184.426 160.113 183.68 159.833 183.166 159.273C183.026 159.087 182.746 159.32 182.933 159.507Z" fill="#483463"/>
<path d="M185.499 160.113C185.919 158.153 186.386 156.147 187.553 154.513C188.159 153.627 188.953 152.833 189.886 152.32C191.613 151.34 194.786 151.247 194.973 154.093C194.973 154.327 195.346 154.327 195.346 154.093C195.206 151.433 192.359 150.827 190.213 151.76C186.993 153.207 185.873 156.847 185.219 160.02C185.126 160.253 185.453 160.347 185.499 160.113Z" fill="#483463"/>
<path d="M194.926 154.653C196 155.54 197.82 155.167 198.38 153.86C198.473 153.673 198.146 153.487 198.1 153.673C197.633 154.747 196.14 155.167 195.206 154.373C194.973 154.233 194.74 154.513 194.926 154.653Z" fill="#483463"/>
<path d="M183.633 202.02C183.633 190.54 183.633 179.013 183.633 167.533C183.633 167.3 183.26 167.3 183.26 167.533C183.26 179.013 183.26 190.54 183.26 202.02C183.26 202.253 183.633 202.253 183.633 202.02Z" fill="#565510"/>
<path d="M175.653 163.707C177.893 164.22 180.04 164.967 182.093 165.993C182.28 166.087 182.466 165.807 182.28 165.713C180.18 164.687 178.033 163.893 175.746 163.38C175.56 163.333 175.466 163.66 175.653 163.707Z" fill="#565510"/>
<path d="M183.633 167.673C188.16 169.353 192.733 170.893 197.4 172.34C197.633 172.387 197.726 172.06 197.493 172.013C192.873 170.567 188.3 169.027 183.726 167.347C183.54 167.253 183.446 167.58 183.633 167.673Z" fill="#565510"/>
<path d="M208.04 153.533C205.706 159.133 203.046 164.547 200.06 169.82C199.966 170.007 200.246 170.193 200.34 170.007C203.326 164.733 205.986 159.273 208.366 153.673C208.46 153.393 208.133 153.3 208.04 153.533Z" fill="#565510"/>
<path d="M187.553 146.207C187.319 146.487 186.946 146.86 186.573 147.327C185.873 148.12 185.686 148.447 185.593 148.587C185.173 149.287 184.939 149.613 184.939 150.08C184.939 150.173 184.939 150.967 185.546 151.527C186.153 152.04 187.086 152.087 187.879 151.667C188.113 152.04 188.393 152.647 188.299 153.347C188.206 154.327 187.506 154.933 187.786 155.307C187.926 155.493 188.206 155.493 188.579 155.54C189.373 155.587 189.979 155.307 190.353 155.167C191.146 154.793 191.706 154.467 192.546 153.907C193.526 153.253 194.226 152.787 194.459 152.647C194.506 152.18 194.506 151.573 194.366 150.827C194.319 150.5 194.086 149.52 192.873 147.56C191.893 145.973 191.379 145.18 190.726 144.993C189.233 144.62 187.833 145.973 187.553 146.207Z" fill="white"/>
<path d="M169.586 83.9067C169.073 84.8401 168.606 85.8201 168.139 86.8467C165.339 93.1934 164.826 99.3534 165.013 104.067C168.326 108.08 171.686 112.327 175.093 116.807C177.473 119.933 179.713 123.06 181.859 126.093C182.606 128.24 183.353 130.433 184.053 132.72C185.499 137.433 186.619 141.96 187.553 146.207C187.693 146.253 188.393 146.533 189.186 146.16C190.166 145.693 190.353 144.667 190.399 144.573C190.119 136.173 189.839 127.773 189.559 119.373C189.093 117.973 188.439 116.013 187.553 113.727C186.479 110.787 185.313 107.613 183.726 104.113C182.699 101.873 181.206 98.5601 178.873 94.9667C176.959 92.0267 174.019 88.0601 169.586 83.9067Z" fill="#100F0D"/>
<path d="M169.4 84.0468C179.713 93.0534 184.566 105.887 189.046 118.44C189.14 118.673 189.466 118.58 189.373 118.347C184.846 105.747 179.993 92.8201 169.633 83.8134C169.493 83.6734 169.213 83.9068 169.4 84.0468Z" fill="#483463"/>
<path d="M164.873 104.16C170.753 111.3 176.353 118.627 181.673 126.187C181.813 126.373 182.093 126.187 181.953 126C176.586 118.44 170.986 111.067 165.106 103.927C165.013 103.74 164.733 104.02 164.873 104.16Z" fill="#483463"/>
<path d="M181.953 126.747C184.053 133.094 185.873 139.534 187.413 146.02C187.46 146.254 187.786 146.16 187.74 145.927C186.153 139.44 184.333 133 182.28 126.654C182.233 126.467 181.906 126.56 181.953 126.747Z" fill="#483463"/>
<path d="M189.233 119.98C189.793 128.194 190.12 136.36 190.166 144.574C190.166 144.807 190.54 144.807 190.54 144.574C190.493 136.36 190.166 128.147 189.606 119.98C189.56 119.747 189.233 119.747 189.233 119.98Z" fill="#483463"/>
<path d="M187.88 146.44C189.046 146.673 190.26 145.973 190.633 144.853C190.726 144.62 190.353 144.527 190.306 144.76C189.98 145.693 188.953 146.3 187.973 146.113C187.74 146.067 187.646 146.393 187.88 146.44Z" fill="#483463"/>
<path d="M187.413 146.113C186.619 147.047 185.639 148.027 184.986 149.1C184.799 149.38 184.659 149.753 184.659 150.08C184.706 150.64 185.266 151.013 185.266 151.573C185.266 151.807 185.593 151.807 185.639 151.573C185.639 151.293 185.639 151.247 185.499 150.967C185.406 150.827 185.313 150.64 185.173 150.5C184.986 149.8 185.126 149.193 185.639 148.727C186.293 147.887 186.946 147.093 187.646 146.3C187.786 146.16 187.553 145.927 187.413 146.113Z" fill="#483463"/>
<path d="M190.493 145.133C192.453 147.28 194.413 149.567 194.18 152.647C194.18 152.88 194.506 152.88 194.553 152.647C194.74 149.474 192.733 147.093 190.726 144.853C190.586 144.713 190.353 144.947 190.493 145.133Z" fill="#483463"/>
<path d="M187.366 151.2C187.926 152.133 188.16 153.16 188.113 154.28C188.113 154.513 188.44 154.513 188.486 154.28C188.58 153.113 188.3 152.04 187.693 151.013C187.553 150.827 187.226 151.013 187.366 151.2Z" fill="#483463"/>
<path d="M188.113 155.867C189.606 155.447 190.633 154 190.493 152.46C190.493 152.227 190.119 152.227 190.119 152.46C190.213 153.86 189.326 155.12 187.973 155.54C187.833 155.633 187.926 155.96 188.113 155.867Z" fill="#483463"/>
<path d="M190.073 155.493C191.239 154.887 191.893 153.673 191.846 152.367C191.846 152.133 191.473 152.133 191.473 152.367C191.519 153.533 190.913 154.653 189.886 155.213C189.699 155.307 189.886 155.587 190.073 155.493Z" fill="#483463"/>
<path d="M191.846 154.14C192.219 154.56 192.686 153.907 192.873 153.627C193.293 152.974 193.479 152.227 193.433 151.48C193.433 151.247 193.059 151.247 193.059 151.48C193.059 151.9 193.013 152.32 192.873 152.74C192.826 152.88 192.219 154.094 192.033 153.907C191.939 153.72 191.706 153.954 191.846 154.14Z" fill="#483463"/>
<path d="M151.993 65.3334C151.899 68.7867 149.239 71.7734 146.346 72.7534C140.699 74.6667 134.166 69.0201 133.839 64.4934V64.4467C133.839 64.1667 133.606 60.8534 134.959 59.7334C136.173 58.7534 137.619 60.4801 139.766 59.7334C141.819 59.0334 141.679 57.1667 143.219 56.6534C145.973 55.7667 152.133 59.9201 151.993 65.3334Z" fill="#483463"/>
<path d="M134.119 67.5267C135.239 67.7134 135.846 65.4734 138.039 65.1C138.366 65.0534 139.206 64.9134 139.953 65.3334C140.886 65.8467 141.259 66.8734 141.633 67.9467C142.099 69.3467 141.866 69.6267 142.426 70.56C142.706 70.98 143.126 71.68 144.013 72.0067C144.759 72.24 145.413 72.1 145.693 72.0067C145.739 71.4467 145.739 70.7 145.599 69.7667C145.413 68.7867 145.179 67.2467 143.966 65.9867C142.939 64.8667 141.679 64.4934 140.606 64.2134C137.759 63.42 133.513 63.42 132.859 65.1C132.579 65.94 133.326 67.3867 134.119 67.5267Z" fill="#483463"/>
<path d="M135.519 66.3601C135.099 66.7801 134.866 67.1534 134.446 67.8534C134.119 68.4134 133.746 69.1134 133.513 70.0934C133.419 70.5134 133.139 71.7734 133.606 73.2668C134.213 75.2734 135.706 76.3001 136.079 76.5801C137.526 77.5601 138.973 77.6534 139.533 77.6534C139.673 77.8401 139.813 78.0268 139.906 78.2134C139.719 78.2134 139.159 78.2134 138.646 78.5868C138.226 78.9134 137.806 79.5201 137.946 80.2201C138.086 80.8734 138.646 81.2001 138.786 81.2934C139.019 81.4334 139.579 81.6668 140.793 81.4334C141.539 81.2934 142.753 80.8734 144.246 79.6601C145.039 79.0068 146.579 77.4668 146.299 77.0001C146.206 76.9068 145.879 76.5801 143.313 77.6534C143.033 77.3268 142.706 76.8134 142.753 76.3001C142.846 75.6934 143.406 75.4134 143.919 74.8534C144.386 74.3868 144.899 73.5934 145.086 72.2401C144.339 72.1468 143.499 71.8668 142.939 71.2601C142.426 70.7001 142.426 70.1868 141.773 68.2268C141.119 66.2668 140.839 65.9401 140.559 65.7534C139.813 65.1934 138.973 65.2401 138.459 65.2401C138.179 65.1468 136.686 65.1934 135.519 66.3601Z" fill="white"/>
<path d="M139.623 68.4339C139.741 68.2048 139.688 67.9425 139.505 67.848C139.322 67.7535 139.077 67.8627 138.959 68.0918C138.841 68.3209 138.894 68.5832 139.077 68.6777C139.261 68.7721 139.505 68.663 139.623 68.4339Z" fill="#483463"/>
<path d="M139.486 67.1533C140.093 67.06 140.606 67.4333 140.699 68.04C140.746 68.2733 141.073 68.18 141.026 67.9467C140.886 67.1534 140.139 66.6867 139.393 66.8267C139.159 66.8267 139.253 67.2 139.486 67.1533Z" fill="#483463"/>
<path d="M135.193 66.4067C132.906 69.1134 132.393 72.8934 134.819 75.6934C137.479 78.7267 141.819 78.0267 144.059 74.9C144.199 74.7134 143.873 74.5267 143.779 74.7134C141.493 77.9334 137.153 78.2134 134.773 74.9934C132.859 72.38 133.466 69.02 135.519 66.64C135.566 66.5 135.333 66.2667 135.193 66.4067Z" fill="#483463"/>
<path d="M135.52 66.4534C137.433 64.82 140.093 63.98 142.426 65.1467C145.133 66.4534 145.553 69.02 145.366 71.7734C145.366 72.0067 145.693 72.0067 145.74 71.7734C145.926 68.88 145.46 66.1267 142.566 64.7734C140.046 63.6067 137.246 64.4467 135.24 66.22C135.1 66.3134 135.333 66.5934 135.52 66.4534Z" fill="#483463"/>
<path d="M137.993 66.6867C136.826 67.8067 135.239 69.8134 136.079 71.4934C136.173 71.6801 136.499 71.5401 136.359 71.3067C135.659 69.8601 137.199 67.8534 138.226 66.9201C138.413 66.7801 138.179 66.5467 137.993 66.6867Z" fill="#483463"/>
<path d="M135.613 66.5001C136.826 65.7068 138.506 64.5868 140.093 65.5201C141.073 66.0801 141.353 67.2001 141.586 68.1801C141.866 69.2535 142.006 70.4201 142.753 71.2601C143.266 71.8668 145.086 72.9868 145.599 71.9601C145.693 71.7734 145.413 71.5868 145.319 71.7735C143.639 71.7268 142.659 71.0268 142.333 69.6735C142.239 69.3935 142.193 69.1601 142.099 68.8801C141.959 68.3201 141.866 67.8068 141.679 67.2468C141.446 66.5935 141.166 65.9401 140.653 65.4735C139.019 64.0268 136.919 65.1468 135.426 66.1268C135.239 66.3134 135.426 66.5934 135.613 66.5001Z" fill="#483463"/>
<path d="M139.393 77.7467C139.626 78.0733 139.859 78.4 140.093 78.7266C140.233 78.9133 140.513 78.7266 140.373 78.54C140.139 78.2133 139.906 77.8866 139.673 77.56C139.579 77.3733 139.253 77.56 139.393 77.7467Z" fill="#483463"/>
<path d="M138.832 78.2134C137.339 79.4734 137.479 81.4334 139.626 81.62C142.472 81.8534 145.272 79.4734 146.392 77.0467C146.486 76.86 146.206 76.6734 146.112 76.86C145.459 78.26 144.246 79.6134 142.939 80.4067C142.332 80.78 141.679 81.06 140.979 81.2C140.326 81.34 139.719 81.34 139.066 81.1534C138.226 79.8934 138.226 79.0067 139.112 78.4467C139.252 78.3067 139.019 78.0734 138.832 78.2134Z" fill="#483463"/>
<path d="M141.493 62.8133C141.959 62.86 142.893 63.0933 143.826 63.84C144.899 64.68 145.273 65.7533 145.413 66.1733C145.506 65.94 145.833 64.9133 145.319 63.98C144.759 62.8133 143.126 62.2533 141.493 62.8133Z" fill="white"/>
</g>
<defs>
<clipPath id="clip0_919_11633">
<rect width="280" height="280" fill="white"/>
</clipPath>
</defs>
</svg>
