<svg width="280" height="280" viewBox="0 0 280 280" fill="none" xmlns="http://www.w3.org/2000/svg">
<path d="M252.607 42.4201C253.447 48.0201 254.193 53.9468 254.8 60.2001C255.593 68.7868 255.967 76.8601 256.013 84.4201C250.227 82.8801 244.16 81.4335 237.767 80.2201C212.473 75.3201 189.327 74.5268 169.54 75.6468C189.607 52.6401 207.433 40.8335 218.307 34.8135C228.107 29.3535 236.04 26.5535 242.807 29.7735C248.733 32.5268 251.44 38.8735 252.607 42.4201Z" fill="#202124"/>
<path d="M194.833 252.887L84.84 196.887C82.18 179.06 61.8333 33.2734 115.313 9.38005C118.72 7.84005 122.547 6.76672 126.747 6.30005C153.02 10.8267 173.413 14 185.827 15.9134C221.013 21.2334 245.14 24.22 251.487 39.7134C252.047 41.02 252.327 42.1867 252.467 42.8867C251.487 39.8067 249.013 33.46 243.367 31.2667C243.367 31.2667 236.32 28.4667 225.12 35.9334C204.027 49.98 196.56 212.007 194.833 252.887Z" fill="white" stroke="#202124" stroke-width="0.75" stroke-miterlimit="10"/>
<path d="M114.193 22.54L205.287 39.2" stroke="#DEDC52" stroke-miterlimit="10"/>
<path d="M104.626 34.1133L177.613 48.2066" stroke="#DEDC52" stroke-miterlimit="10"/>
<path d="M119.793 52.8733L198.566 68.88" stroke="#DEDC52" stroke-miterlimit="10"/>
<path d="M92.8195 74.1069L190.4 95.3403" stroke="#DEDC52" stroke-miterlimit="10"/>
<path d="M92.8195 88.6663L136.033 98.8396" stroke="#DEDC52" stroke-miterlimit="10"/>
<path d="M104.626 104.347L187.786 122.687" stroke="#DEDC52" stroke-miterlimit="10"/>
<path d="M95.62 122.361L180.227 142.147" stroke="#DEDC52" stroke-miterlimit="10"/>
<path d="M140 76.02L124.133 216.86L201.133 251.113L221.433 87.78L140 76.02Z" fill="white" stroke="#202124" stroke-width="0.75" stroke-miterlimit="10"/>
<path d="M174.253 93.5668L141.493 88.7601L142.193 80.3601L174.953 85.1668L174.253 93.5668Z" fill="#DEDC52"/>
<path d="M142.007 97.0667L216.954 107.707" stroke="#DEDC52" stroke-miterlimit="10"/>
<path d="M141.353 105.747L203.98 114.66" stroke="#DEDC52" stroke-miterlimit="10"/>
<path d="M141.446 112.467L202.066 121.053" stroke="#DEDC52" stroke-miterlimit="10"/>
<path d="M140.607 125.953L203.187 134.866" stroke="#DEDC52" stroke-miterlimit="10"/>
<path d="M76.3933 200.807L77.42 200.2C101.313 194.647 130.293 185.733 161.653 171.173C187.74 159.04 209.58 145.74 227.173 133.42C223.907 179.573 220.593 225.773 217.327 271.927" fill="white"/>
<path d="M76.3933 200.807L77.42 200.2C101.313 194.647 130.293 185.733 161.653 171.173C187.74 159.04 209.58 145.74 227.173 133.42C223.907 179.573 220.593 225.774 217.327 271.927" stroke="#202124" stroke-width="0.75" stroke-miterlimit="10"/>
<path d="M74.7133 106.447L76.3933 200.807L217.327 271.973L74.7133 106.447Z" fill="white" stroke="#202124" stroke-width="0.75" stroke-miterlimit="10"/>
<path d="M90.9533 145.04L79.0066 139.207L78.8199 126.374L90.9533 132.114V145.04Z" fill="#DEDC52"/>
<path d="M217.526 186.73L217.526 186.73C217.613 186.753 217.635 186.789 217.644 186.808C217.66 186.84 217.669 186.896 217.65 186.965C217.631 187.035 217.593 187.082 217.559 187.105C217.536 187.12 217.495 187.139 217.408 187.117C211.505 185.553 205.59 183.979 199.676 182.404L199.676 182.404L199.675 182.404C193.762 180.829 187.848 179.254 181.945 177.691C181.88 177.673 181.865 177.646 181.856 177.626C181.84 177.592 181.832 177.53 181.852 177.455C181.873 177.379 181.913 177.331 181.942 177.31C181.96 177.298 181.986 177.283 182.053 177.302L182.053 177.302L182.059 177.303C187.962 178.867 193.876 180.442 199.791 182.016L199.792 182.017C205.707 183.592 211.622 185.167 217.526 186.73Z" fill="#DEDC52" stroke="#DEDC52"/>
<path d="M190.955 186.574L190.955 186.574L190.946 186.571C185.976 184.742 180.866 183.289 175.71 182.21C175.63 182.194 175.617 182.166 175.613 182.159C175.613 182.159 175.613 182.158 175.613 182.158C175.603 182.138 175.591 182.088 175.611 182.016C175.63 181.946 175.671 181.89 175.713 181.861C175.745 181.838 175.792 181.818 175.876 181.835C180.986 182.95 186.048 184.39 190.971 186.154C191.047 186.185 191.081 186.229 191.1 186.274C191.123 186.33 191.128 186.404 191.108 186.475C191.088 186.548 191.054 186.579 191.043 186.586C191.039 186.588 191.036 186.59 191.03 186.59C191.023 186.591 190.999 186.591 190.955 186.574Z" fill="#DEDC52" stroke="#DEDC52"/>
<path d="M208.011 198.653L208.011 198.652L208 198.649C200.275 196.275 192.58 193.87 184.865 191.459C183.03 190.886 181.193 190.312 179.355 189.738C179.284 189.714 179.259 189.679 179.245 189.646C179.225 189.601 179.218 189.533 179.239 189.46C179.259 189.386 179.296 189.346 179.317 189.332C179.317 189.332 179.317 189.332 179.318 189.332C179.325 189.327 179.347 189.312 179.415 189.335L179.415 189.335L179.426 189.338C187.153 191.713 194.85 194.118 202.566 196.529C204.4 197.102 206.235 197.676 208.072 198.249C208.142 198.273 208.168 198.308 208.182 198.341C208.201 198.386 208.208 198.454 208.188 198.527C208.168 198.601 208.131 198.641 208.11 198.655C208.11 198.655 208.109 198.655 208.109 198.656C208.102 198.661 208.08 198.675 208.011 198.653Z" fill="#DEDC52" stroke="#DEDC52"/>
<path d="M62.5334 196.374C60.2934 196.747 58.7534 197.027 57.6334 197.214C55.9067 197.494 54.4134 197.774 52.5467 198.614C52.36 198.707 52.22 198.754 52.08 198.847C51.0067 199.407 49.5601 200.434 48.2067 202.3C46.9467 202.674 45.9667 203.14 45.3134 203.467C43.7734 204.26 40.5067 205.894 38.7334 209.347C38.3601 210.094 38.1267 210.747 38.0334 211.12C38.2667 211.774 38.7334 212.707 39.6201 213.314C41.2067 214.387 43.2134 213.78 44.8001 213.314C50.0734 211.727 52.7334 210.934 55.44 209.487C57.9134 208.18 61.1334 206.267 64.6334 203.514C64.7267 202.72 64.7734 201.414 64.3534 199.92C63.98 198.194 63.0934 196.98 62.5334 196.374Z" fill="white"/>
<path d="M120.587 147.28C119.373 142.613 111.72 140.933 109.247 140.467C108.873 140.98 108.267 141.773 107.613 142.8C105.467 146.113 104.253 148.82 103.647 150.173C101.92 154.093 98.3734 161.84 93.8467 172.107C91.0934 174.16 88.3401 176.213 85.5867 178.313C84.1401 179.433 80.9667 181.813 77.2801 184.707C73.4534 187.693 68.4601 191.613 62.5334 196.373C63.0467 196.98 63.8401 198.053 64.3534 199.593C64.8667 201.273 64.8201 202.72 64.7267 203.513C69.4867 201.46 73.4534 199.593 76.3467 198.193C88.6201 192.173 97.2067 186.62 99.9601 184.753C102.993 182.747 105.42 181.02 107.1 179.807C108.173 178.313 109.48 176.4 110.88 174.067C112.187 171.873 113.913 168.7 115.64 164.733C117.32 160.767 118.16 157.827 119.373 153.767C120.82 148.633 120.727 147.84 120.587 147.28Z" fill="#100F0D"/>
<path d="M109.107 140.42C105.793 144.9 103.553 149.94 101.267 154.98C98.7467 160.487 96.2267 165.993 93.7533 171.5C93.66 171.687 93.94 171.873 94.0333 171.687C96.5533 166.18 99.0733 160.673 101.547 155.167C103.833 150.127 106.073 145.087 109.387 140.607C109.573 140.42 109.247 140.233 109.107 140.42Z" fill="#202124"/>
<path d="M62.9067 196.233C72.94 188.393 82.9267 180.507 92.96 172.667C93.1467 172.527 92.8667 172.293 92.7267 172.433C82.6934 180.273 72.7067 188.16 62.6734 196C62.4867 196.14 62.72 196.373 62.9067 196.233Z" fill="#202124"/>
<path d="M62.44 196.513C64.12 198.52 64.8667 200.947 64.54 203.56C64.4934 203.793 64.8667 203.793 64.9134 203.56C65.24 200.9 64.4467 198.333 62.6734 196.28C62.5334 196.093 62.2534 196.327 62.44 196.513Z" fill="#202124"/>
<path d="M65.0067 203.56C79.0067 197.633 92.4 190.307 104.907 181.673C105.093 181.533 104.907 181.253 104.72 181.393C92.2134 190.027 78.9134 197.353 64.9134 203.233C64.68 203.28 64.7734 203.653 65.0067 203.56Z" fill="#202124"/>
<path d="M107.24 179.947C112.887 172.06 117.04 163.287 119.513 153.907C119.56 153.673 119.233 153.58 119.187 153.813C116.76 163.147 112.607 171.92 106.96 179.76C106.82 179.947 107.1 180.087 107.24 179.947Z" fill="#202124"/>
<path d="M59.5934 196.607C55.0667 197.54 49.7 198.287 47.6934 203.047C47.6467 203.14 47.6934 203.28 47.7867 203.327C50.0267 204.12 51.7067 202.207 53.9 201.974C54.1334 201.974 54.1334 201.6 53.9 201.6C52.7334 201.74 51.8934 202.207 50.82 202.674C49.98 203.047 48.44 203.514 48.44 202.254C48.44 201.46 49.8867 200.434 50.4934 200.014C53.1534 198.007 56.56 197.587 59.6867 196.934C59.92 196.887 59.8267 196.56 59.5934 196.607Z" fill="#202124"/>
<path d="M46.9 202.394C43.1667 204.4 39.2 206.734 37.94 211.074C37.8934 211.307 38.22 211.4 38.2667 211.167C39.5267 206.92 43.4467 204.68 47.0867 202.674C47.2734 202.58 47.1334 202.3 46.9 202.394Z" fill="#202124"/>
<path d="M39.2934 212.287C41.2534 209.907 43.68 208.087 46.5267 206.92C46.7134 206.827 46.62 206.5 46.4334 206.593C43.54 207.76 41.02 209.627 39.06 212.054C38.8734 212.24 39.1534 212.474 39.2934 212.287Z" fill="#202124"/>
<path d="M40.6467 212.893C41.86 212.1 43.0267 211.213 44.2867 210.467C45.36 209.813 46.62 209.673 47.74 209.16C47.9267 209.067 47.7867 208.787 47.5534 208.88C46.4334 209.393 45.1734 209.533 44.1 210.187C42.84 210.933 41.6734 211.82 40.46 212.613C40.2734 212.753 40.4134 213.033 40.6467 212.893Z" fill="#202124"/>
<path d="M42.42 213.36C44.0067 212.707 45.64 212.147 47.32 211.68C47.5534 211.633 47.46 211.307 47.2267 211.353C45.5467 211.82 43.8667 212.38 42.2334 213.08C42.0467 213.173 42.1867 213.453 42.42 213.36Z" fill="#202124"/>
<path d="M27.9534 221.667C40.1334 217.047 52.36 212.38 64.54 207.76C64.82 210.28 65.1 212.847 65.38 215.367C52.92 217.467 40.46 219.567 27.9534 221.667Z" fill="#202124"/>
<path d="M17.64 223.394C31.1267 217.28 44.5667 211.12 58.0534 205.007C60.2467 205.94 62.4867 206.874 64.68 207.807C54.6 211.68 44.52 215.554 34.44 219.427C33.0867 219.94 31.7333 220.454 30.38 220.967C33.18 220.5 35.98 219.94 38.8734 219.334C49.7934 217 59.78 214.06 68.88 210.794C70.6067 211.4 72.4267 212.1 74.34 212.987C77.6067 214.48 80.4067 216.16 82.74 217.747C78.5867 218.54 74.34 219.24 70.0467 219.94C69.0667 220.08 68.1333 220.267 67.1533 220.407C67.0133 222.507 66.8733 224.607 66.7333 226.754C53.4333 225.634 40.18 224.514 26.88 223.394C23.8 223.3 20.72 223.347 17.64 223.394Z" fill="#DEDC52"/>
<path d="M17.64 223.487C31.1267 217.373 44.6134 211.26 58.1467 205.147C58.3334 205.053 58.1934 204.773 57.96 204.867C44.4734 210.98 30.9867 217.093 17.4534 223.207C17.2667 223.3 17.4534 223.58 17.64 223.487Z" fill="#202124"/>
<path d="M58.0067 205.147C60.1534 206.22 62.3467 207.153 64.5867 207.947C64.82 208.04 64.8667 207.667 64.68 207.62C62.44 206.827 60.2934 205.893 58.1467 204.82C58.0067 204.727 57.82 205.053 58.0067 205.147Z" fill="#202124"/>
<path d="M64.4 207.76C64.3534 208.973 64.3067 210.187 64.2134 211.353C64.2134 211.587 64.54 211.587 64.5867 211.353C64.6334 210.14 64.68 208.927 64.7734 207.76C64.7734 207.527 64.4 207.527 64.4 207.76Z" fill="#202124"/>
<path d="M17.64 223.533C35.84 222.833 54.32 222.927 72.2867 219.66C72.52 219.613 72.4267 219.287 72.1934 219.333C54.2734 222.647 35.7934 222.507 17.64 223.207C17.4067 223.207 17.4067 223.533 17.64 223.533Z" fill="#202124"/>
<path d="M30.38 221.107C41.72 216.627 53.1067 212.334 64.54 208.18C64.7734 208.087 64.68 207.76 64.4467 207.854C53.0134 212.007 41.6267 216.3 30.2867 220.78C30.1 220.874 30.1934 221.2 30.38 221.107Z" fill="#202124"/>
<path d="M30.5667 221.2C43.7267 218.68 56.7 215.227 69.3933 210.84C69.6267 210.747 69.5333 210.42 69.3 210.513C56.6067 214.853 43.6334 218.353 30.4734 220.873C30.24 220.92 30.3334 221.247 30.5667 221.2Z" fill="#202124"/>
<path d="M69.9534 211.167C73.22 212.567 76.3934 214.153 79.52 215.88C79.7067 215.973 79.8934 215.693 79.7067 215.6C76.6267 213.873 73.4067 212.287 70.14 210.887C69.9534 210.793 69.7667 211.073 69.9534 211.167Z" fill="#202124"/>
<path d="M27.02 223.347C40.18 225.307 53.3867 226.473 66.6867 226.847C66.92 226.847 66.92 226.52 66.6867 226.473C53.4333 226.1 40.2267 224.933 27.1134 222.973C26.9267 222.973 26.8334 223.3 27.02 223.347Z" fill="#202124"/>
<path d="M67.2467 220.734C67.1067 222.554 66.92 224.327 66.78 226.147C66.78 226.38 67.1067 226.38 67.1534 226.147C67.2934 224.327 67.48 222.554 67.62 220.734C67.62 220.547 67.2934 220.547 67.2467 220.734Z" fill="#202124"/>
<path d="M109.34 138.927C108.687 140.187 108.64 141.4 108.547 143.267C108.407 147.7 110.04 151.153 111.02 152.927C111.627 153.767 112.56 154.98 113.867 156.38C116.013 158.713 118.16 160.487 120.4 162.073C129.873 168.84 142.707 173.74 144.9 174.58C147.98 175.747 150.5 176.587 152.04 177.1C155.773 176.167 160.72 174.487 166.04 171.5C170.52 168.98 173.973 166.18 176.54 163.847C174.72 160.673 171.967 156.66 168.093 152.553C161.653 145.74 155.307 142.193 150.547 139.673C145.553 137.013 142.193 135.24 137.107 134.307C133.28 133.607 130.48 133.747 126.747 133.887C118.767 134.307 111.627 134.587 109.34 138.927Z" fill="#100F0D"/>
<path d="M109.433 139.113C115.547 135.473 122.547 133.56 129.64 133.653C136.827 133.747 143.267 136.22 149.613 139.393C160.767 144.993 170.053 153.207 176.4 163.987C176.493 164.173 176.82 163.987 176.68 163.8C170.147 152.74 160.533 144.433 149.1 138.74C142.8 135.613 136.36 133.327 129.22 133.28C122.173 133.233 115.267 135.193 109.2 138.787C109.06 138.927 109.2 139.207 109.433 139.113Z" fill="#202124"/>
<path d="M110.88 153.067C115.36 159.18 121.52 163.567 128.147 167.113C135.24 170.94 142.8 174.58 150.64 176.633C150.873 176.68 150.967 176.353 150.733 176.307C143.173 174.347 135.987 170.893 129.08 167.253C122.267 163.66 115.827 159.227 111.207 152.927C111.067 152.693 110.74 152.88 110.88 153.067Z" fill="#202124"/>
<path d="M79.4267 208.227C78.6334 208.134 77.6067 208.134 76.3467 208.227C75.88 208.274 74.1534 208.46 72.0067 209.254C70.84 209.674 70 210 69.1134 210.747C68.5067 211.26 67.48 212.147 67.6667 212.847C67.9467 213.967 70.84 213.594 71.1667 214.714C71.3067 215.18 70.7934 215.74 69.8134 216.86C68.5067 218.354 67.6667 219.287 66.22 219.94C65.4267 220.314 64.68 220.407 63.2334 220.64C60.62 221.014 59.64 220.687 58.8 221.527C58.1467 222.18 58.1 223.067 58.1 223.3C58.1 224.747 59.36 225.774 60.2 226.427C62.6734 228.434 65.52 228.574 66.22 228.62C69.1134 228.714 71.26 227.64 72.24 227.127C75.74 225.307 77.5134 222.414 79.0534 219.94C80.4067 217.7 81.2467 215.694 81.76 214.2C80.9667 212.194 80.1734 210.187 79.4267 208.227Z" fill="white"/>
<path d="M136.173 138.32C135.893 138.507 135.1 139.067 134.353 139.907C133.42 140.98 133.047 141.96 132.393 143.454C131.087 146.534 131.227 145.834 130.387 147.887C128.38 152.927 126.887 158.62 126.887 158.62C124.273 168.654 121.753 181.16 121.38 182.934C115.593 185.92 110.693 188.627 106.96 190.774C101.127 194.087 94.5 197.914 86.38 203.514C83.5801 205.427 81.2934 207.107 79.8 208.227C79.8 209.067 79.8934 210.28 80.4067 211.634C80.78 212.707 81.2934 213.547 81.7134 214.154C83.7667 213.92 86.66 213.5 90.0667 212.894C96.9267 211.634 102.573 209.907 113.867 206.5C113.867 206.5 117.833 205.287 124.507 202.487C126 201.834 127.26 201.32 128.753 200.247C129.36 199.827 131.413 198.287 133.98 194.927C135.567 192.874 136.407 191.147 137.527 188.907C140.887 182.094 142.613 178.734 143.033 177.66C147.327 167.954 150.5 157.92 151.713 153.86C152.133 152.974 153.347 150.267 152.507 147.14C151.947 144.947 150.687 143.64 149.707 142.614C145.927 138.74 139.44 136.267 136.173 138.32Z" fill="#100F0D"/>
<path d="M134.213 139.814C126.513 152.74 125.02 167.954 121.193 182.187C121.147 182.42 121.473 182.514 121.52 182.28C125.347 168.047 126.84 152.88 134.493 139.954C134.633 139.814 134.353 139.627 134.213 139.814Z" fill="#202124"/>
<path d="M120.68 183.12C106.54 190.494 92.8667 198.754 79.7534 207.854C79.5667 207.994 79.7534 208.274 79.9401 208.134C93.0534 199.034 106.727 190.774 120.867 183.4C121.053 183.307 120.867 182.98 120.68 183.12Z" fill="#202124"/>
<path d="M79.66 208.227C79.7534 210.28 80.3134 212.287 81.2934 214.107C81.3867 214.294 81.7134 214.107 81.5734 213.92C80.64 212.147 80.08 210.234 79.9867 208.227C79.9867 207.994 79.66 207.994 79.66 208.227Z" fill="#202124"/>
<path d="M81.7134 214.387C97.6267 212.38 113.12 207.854 127.633 200.994C127.82 200.9 127.68 200.574 127.447 200.714C112.98 207.527 97.5801 212.054 81.7134 214.06C81.4801 214.06 81.4801 214.387 81.7134 214.387Z" fill="#202124"/>
<path d="M151.807 152.74C149.287 161.747 146.067 170.52 142.193 179.014C140.327 183.074 138.32 187.087 136.127 191.007C134.027 194.694 131.693 198.24 128.007 200.527C127.82 200.62 128.007 200.947 128.193 200.807C131.413 198.847 133.653 195.907 135.567 192.734C138.04 188.627 140.187 184.287 142.193 179.947C146.253 171.174 149.613 162.12 152.227 152.834C152.227 152.647 151.9 152.554 151.807 152.74Z" fill="#202124"/>
<path d="M74.5734 208.46C71.9134 208.974 69.0667 209.674 67.6667 212.287C67.5734 212.474 67.8534 212.66 67.9467 212.474C69.2534 209.954 72.0534 209.3 74.6201 208.787C74.9001 208.74 74.8067 208.414 74.5734 208.46Z" fill="#202124"/>
<path d="M71.0267 214.62C69.58 217.047 68.0867 219.287 65.1467 220.08C63.0467 220.64 60.8534 220.594 58.7534 221.34C58.52 221.434 58.6134 221.76 58.8467 221.667C61.3667 220.78 64.26 221.06 66.6867 219.894C68.8334 218.867 70.14 216.767 71.3067 214.807C71.4467 214.62 71.12 214.434 71.0267 214.62Z" fill="#202124"/>
<path d="M58.2867 222.927C59.1734 223.533 60.2934 223.487 61.3667 223.487C62.7667 223.487 64.2134 223.347 65.6134 223.16C65.8467 223.113 65.7534 222.787 65.52 222.833C63.6534 223.113 60.2 223.767 58.52 222.694C58.2867 222.507 58.1 222.787 58.2867 222.927Z" fill="#202124"/>
<path d="M58.4734 224.187C60.76 225.307 63.2334 225.54 65.7067 225.68C65.94 225.68 65.94 225.353 65.7067 225.307C63.28 225.167 60.8534 224.98 58.66 223.86C58.4734 223.814 58.2867 224.094 58.4734 224.187Z" fill="#202124"/>
<path d="M59.3134 225.727C60.62 226.8 62.16 227.454 63.84 227.594C64.0734 227.594 64.0734 227.267 63.84 227.22C62.2534 227.08 60.76 226.474 59.5467 225.447C59.4067 225.354 59.1267 225.587 59.3134 225.727Z" fill="#202124"/>
<path d="M81.5734 214.014C79.8934 217.98 78.0734 221.9 74.9934 224.98C74.8534 225.12 75.0867 225.4 75.2267 225.214C78.3534 222.134 80.1734 218.167 81.9 214.154C81.9467 214.014 81.6667 213.827 81.5734 214.014Z" fill="#202124"/>
<path d="M120.073 144.9C120.213 145.04 120.54 145.273 120.54 145.273C120.633 145.367 121.333 145.833 122.033 145.88C122.78 145.973 123.387 145.6 124.18 145.133C125.347 144.387 125.953 143.5 126.187 143.173C126.373 142.893 126.7 142.38 126.887 141.68C127.213 140.467 127.26 138.273 126.14 137.62C124.833 136.873 122.687 138.787 122.313 139.113C120.167 141.027 119.28 144.06 120.073 144.9Z" fill="white"/>
<path d="M121.333 144.527C121.707 144.62 122.08 144.667 122.5 144.667C122.733 144.667 122.733 144.34 122.5 144.294C122.127 144.294 121.8 144.247 121.427 144.154C121.193 144.154 121.1 144.48 121.333 144.527Z" fill="#202124"/>
<path d="M120.213 145.133C122.267 147.793 126.093 144.387 126.747 142.193C126.793 141.96 126.467 141.867 126.42 142.1C125.907 143.92 122.407 147.373 120.54 144.947C120.4 144.807 120.073 144.947 120.213 145.133Z" fill="#202124"/>
<path d="M136.267 125.953C135.94 131.693 128.66 136.033 122.407 135.66C115.407 135.193 109.247 128.753 109.807 123.853C110.04 121.987 111.347 119.513 113.307 118.953C115.5 118.347 117.04 120.587 118.86 119.84C120.913 119 120.167 115.873 121.847 114.8C125.067 112.747 136.733 118.44 136.267 125.953Z" fill="#202124"/>
<path d="M109.62 137.573C109.667 138.04 109.9 138.6 110.133 139.207C110.413 139.907 110.927 141.167 112 142.333C112.56 142.94 113.633 144.153 115.453 144.76C117.553 145.507 119.373 145.04 120.027 144.853C121.567 144.433 122.593 143.733 123.153 143.267C123.807 142.753 124.973 141.913 125.767 140.373C125.86 140.187 126.327 139.253 126.56 137.947C126.7 137.107 126.98 135.52 126.28 133.793C126.093 133.373 125.533 132.067 124.273 131.133C121.847 129.313 118.627 130.153 117.32 130.48C113.26 131.6 109.247 135.007 109.62 137.573Z" fill="white"/>
<path d="M109.573 138.04C109.573 137.667 109.667 136.687 110.367 135.753C110.647 135.427 111.44 134.447 112.747 134.307C114.007 134.167 114.987 134.773 115.687 135.24C116.9 136.033 116.9 136.64 118.113 137.2C118.533 137.387 119.233 137.76 120.12 137.713C120.4 137.713 120.913 137.62 123.62 136.08C124.507 135.567 124.973 135.333 125.533 135.333C126.28 135.333 126.84 135.707 127.213 136.033C127.353 135.333 127.493 134.307 127.307 133.047C126.7 129.313 123.573 127.353 123.247 127.12C120.027 125.16 116.667 126.14 115.453 126.467C113.4 127.027 112.047 128.053 110.927 128.94C107.66 131.46 104.207 135.893 105.28 137.527C105.607 138.18 106.587 138.647 109.573 138.04Z" fill="#202124"/>
<path d="M109.387 137.387C110.46 141.4 113.307 145.414 117.88 145.414C121.847 145.414 125.673 142.474 126.607 138.647C126.653 138.414 126.327 138.32 126.28 138.553C125.393 142.194 121.707 145.087 117.88 145.087C113.447 145.087 110.74 141.167 109.713 137.34C109.667 137.06 109.34 137.153 109.387 137.387Z" fill="#202124"/>
<path d="M109.947 137.947C110.04 135.24 112.327 134.027 114.707 134.82C115.453 135.053 116.013 135.753 116.573 136.267C117.273 136.873 117.927 137.48 118.86 137.76C119.793 138.04 120.68 137.947 121.567 137.573C122.5 137.2 126.187 134.26 126.887 136.127C126.98 136.313 127.307 136.267 127.213 136.033C126.793 134.913 125.813 134.727 124.74 135.147C123.433 135.66 122.547 136.92 121.147 137.387C119 138.04 117.647 136.64 116.153 135.427C113.493 133.28 109.713 134.167 109.62 137.947C109.62 138.133 109.947 138.133 109.947 137.947Z" fill="#202124"/>
<path d="M112.747 139.207C113.027 140.28 113.353 141.354 113.867 142.334C114.193 142.987 114.613 143.547 115.407 143.547C115.64 143.547 115.64 143.22 115.407 143.174C114.427 143.127 114.007 141.867 113.68 141.074C113.4 140.42 113.213 139.767 113.073 139.067C113.027 138.88 112.7 138.973 112.747 139.207Z" fill="#202124"/>
<path d="M114.287 137.947C114.707 137.293 115.547 137.573 116.06 137.9C116.247 137.993 116.433 137.713 116.247 137.62C115.5 137.2 114.52 136.967 113.96 137.807C113.867 137.993 114.147 138.133 114.287 137.947Z" fill="#202124"/>
<path d="M110.927 138.973C111.16 138.553 111.627 138.32 112.093 138.647C112.28 138.787 112.467 138.46 112.28 138.367C111.72 137.947 110.973 138.273 110.647 138.833C110.507 138.973 110.787 139.16 110.927 138.973Z" fill="#202124"/>
<path d="M116.301 140.619C116.566 140.518 116.691 140.202 116.581 139.913C116.47 139.624 116.166 139.472 115.901 139.573C115.637 139.674 115.511 139.99 115.622 140.279C115.732 140.568 116.036 140.721 116.301 140.619Z" fill="#202124"/>
<path d="M112.615 141.515C112.88 141.414 113.006 141.098 112.895 140.809C112.785 140.52 112.481 140.368 112.216 140.469C111.951 140.57 111.826 140.886 111.936 141.175C112.046 141.464 112.351 141.617 112.615 141.515Z" fill="#202124"/>
<path d="M114.987 126.887C115.127 126.747 117.507 124.46 120.727 125.253C123.387 125.907 124.507 128.24 124.647 128.567C124.087 128.007 122.687 126.793 120.54 126.327C117.88 125.673 115.687 126.607 114.987 126.887Z" fill="white"/>
</svg>
