<svg width="280" height="280" viewBox="0 0 280 280" fill="none" xmlns="http://www.w3.org/2000/svg">
<path d="M22.3532 185.687C47.0398 216.02 80.1732 239.213 117.04 252.28C127.54 256.013 138.273 258.86 149.24 260.867C149.473 260.913 149.566 260.587 149.333 260.54C110.646 253.4 74.2465 235.34 45.0332 209.067C36.9598 201.787 29.4465 193.9 22.5865 185.453C22.4465 185.267 22.2132 185.547 22.3532 185.687Z" fill="#DEDC52"/>
<path d="M24.9666 184.427C59.4533 179.807 93.24 170.567 125.207 156.893C134.447 152.927 143.547 148.633 152.46 143.967C152.647 143.873 152.46 143.547 152.273 143.687C121.52 159.787 88.5733 171.687 54.6466 178.967C44.8 181.067 34.9066 182.793 24.9666 184.1C24.7333 184.1 24.7333 184.473 24.9666 184.427Z" fill="#DEDC52"/>
<path d="M152.413 144.387C180.32 157.827 208.927 171.5 240.053 175.047C248.967 176.073 257.973 176.167 266.887 175.233C267.12 175.233 267.12 174.86 266.887 174.86C235.34 178.173 204.587 167.907 176.167 155.167C168.233 151.62 160.393 147.84 152.553 144.06C152.413 144.013 152.227 144.293 152.413 144.387Z" fill="#DEDC52"/>
<path d="M149.847 261.007C158.76 257.88 166.88 252.98 174.813 247.94C183.68 242.293 192.547 236.647 201.413 231C210.327 225.353 219.24 219.66 228.107 214.013C235.153 209.533 242.153 205.007 248.733 199.873C256.246 193.993 263.107 187.32 268.286 179.247C268.427 179.06 268.1 178.873 268.006 179.06C258.533 193.667 243.88 203.467 229.507 212.66C212.473 223.533 195.44 234.36 178.407 245.187C169.213 251.02 160.067 257.04 149.707 260.633C149.52 260.727 149.613 261.1 149.847 261.007Z" fill="#DEDC52"/>
<path d="M90.1599 189.653C93.9399 193.527 98.5132 197.727 104.067 201.88C108.313 205.053 112.373 207.713 116.153 209.907C122.453 206.173 128.753 202.44 135.053 198.707C132.533 197.867 129.687 196.7 126.747 195.067C119.747 191.24 114.893 186.48 111.813 182.84C104.533 185.127 97.3466 187.367 90.1599 189.653Z" fill="white" stroke="#565510" stroke-width="0.4" stroke-miterlimit="10"/>
<path d="M102.667 189.047C103.553 189.047 103.553 187.647 102.667 187.647C101.78 187.647 101.78 189.047 102.667 189.047Z" fill="#565510"/>
<path d="M96.3199 193.247C101.033 191.847 105.653 190.12 110.18 188.16C110.367 188.067 110.227 187.787 109.993 187.88C105.513 189.84 100.94 191.52 96.2266 192.92C95.9933 192.967 96.0866 193.34 96.3199 193.247Z" fill="#565510"/>
<path d="M102.2 193.34C104.907 192.407 107.473 191.287 109.993 189.934C110.18 189.84 109.993 189.514 109.807 189.654C107.333 191.007 104.767 192.127 102.107 193.014C101.92 193.06 102.013 193.434 102.2 193.34Z" fill="#565510"/>
<path d="M102.293 196.934C106.4 194.927 110.507 192.92 114.567 190.867C114.753 190.774 114.613 190.447 114.38 190.587C110.273 192.594 106.167 194.6 102.107 196.654C101.92 196.7 102.107 197.027 102.293 196.934Z" fill="#565510"/>
<path d="M106.586 198.707C110.086 196.887 113.54 194.973 116.946 192.967C117.133 192.873 116.946 192.547 116.76 192.687C113.353 194.693 109.9 196.607 106.4 198.427C106.213 198.52 106.4 198.8 106.586 198.707Z" fill="#565510"/>
<path d="M110.507 200.013C112.7 198.753 114.893 197.54 117.04 196.28C117.227 196.187 117.04 195.86 116.853 196C114.66 197.26 112.467 198.473 110.32 199.733C110.133 199.827 110.32 200.153 110.507 200.013Z" fill="#565510"/>
<path d="M111.113 203.467C114.893 201.227 118.72 199.22 122.733 197.4C122.92 197.307 122.78 197.027 122.546 197.12C118.58 198.94 114.706 200.947 110.926 203.187C110.74 203.28 110.926 203.607 111.113 203.467Z" fill="#565510"/>
<path d="M203.653 209.58C196.793 213.967 189.98 218.353 183.12 222.74C188.58 224.14 193.993 225.54 199.453 226.94C206.407 222.693 213.407 218.447 220.36 214.2C214.807 212.66 209.207 211.12 203.653 209.58Z" fill="white" stroke="#565510" stroke-width="0.4" stroke-miterlimit="10"/>
<path d="M184.007 217.42C189.98 219.053 195.953 220.64 201.927 222.273C207.947 218.027 213.967 213.78 219.987 209.58C215.087 208.507 210.187 207.433 205.287 206.36C198.193 210 191.1 213.687 184.007 217.42Z" fill="white" stroke="#565510" stroke-width="0.4" stroke-miterlimit="10"/>
<path d="M195.953 217.234C196.84 217.234 196.84 215.833 195.953 215.833C195.067 215.833 195.067 217.234 195.953 217.234Z" fill="#565510"/>
<path d="M191.473 217.094C193.947 217.887 196.467 218.727 198.94 219.52C199.173 219.567 199.267 219.24 199.033 219.194C196.56 218.4 194.04 217.56 191.567 216.767C191.333 216.72 191.24 217.047 191.473 217.094Z" fill="#565510"/>
<path d="M198.194 217.047C200.014 217.56 201.834 218.074 203.653 218.587C203.887 218.634 203.98 218.307 203.747 218.26C201.927 217.747 200.107 217.234 198.287 216.72C198.054 216.627 197.96 217 198.194 217.047Z" fill="#565510"/>
<path d="M196.187 212.893C199.453 213.78 202.673 214.853 205.8 216.16C205.987 216.253 206.08 215.927 205.893 215.833C202.767 214.527 199.547 213.453 196.28 212.567C196.047 212.473 195.953 212.8 196.187 212.893Z" fill="#565510"/>
<path d="M200.48 212.427C201.787 212.8 203.094 213.267 204.307 213.78C204.494 213.874 204.68 213.547 204.494 213.5C203.234 212.94 201.927 212.474 200.574 212.1C200.34 212.054 200.247 212.38 200.48 212.427Z" fill="#565510"/>
<path d="M201.787 210.98C204.4 211.82 206.967 212.707 209.533 213.733C209.72 213.827 209.813 213.5 209.627 213.407C207.107 212.38 204.493 211.447 201.88 210.653C201.647 210.56 201.553 210.933 201.787 210.98Z" fill="#565510"/>
<path d="M89.6932 226.474C96.7865 229.88 103.88 233.287 110.973 236.694C113.447 234.734 116.06 232.447 118.673 229.74C120.027 228.34 121.287 226.94 122.453 225.587C116.34 223.114 110.18 220.594 104.067 218.12C99.2598 220.92 94.4532 223.72 89.6932 226.474Z" fill="white"/>
<path d="M95.5731 225.773C100.1 227.873 104.626 230.02 109.153 232.12C110.74 230.907 112.373 229.46 114.053 227.827C114.94 226.94 115.733 226.1 116.48 225.26C112.56 223.72 108.64 222.18 104.72 220.64C101.686 222.32 98.6531 224.047 95.5731 225.773Z" fill="#DEDC52"/>
<path d="M90.4866 227.267C97.3 230.487 104.113 233.66 110.88 236.88C111.067 236.973 111.253 236.693 111.067 236.6C104.253 233.38 97.44 230.207 90.6733 226.987C90.44 226.847 90.2533 227.173 90.4866 227.267Z" fill="#565510"/>
<path d="M91.3732 225.82C95.2932 223.347 99.1199 220.78 102.947 218.167C103.133 218.027 102.947 217.747 102.76 217.887C98.9332 220.5 95.1066 223.067 91.1866 225.54C90.9999 225.634 91.1866 225.914 91.3732 225.82Z" fill="#565510"/>
<path d="M103.973 218.307C109.713 220.734 115.547 223.02 121.427 225.12C121.66 225.214 121.753 224.84 121.52 224.794C115.64 222.647 109.853 220.407 104.067 217.98C103.88 217.887 103.787 218.214 103.973 218.307Z" fill="#565510"/>
<path d="M112.233 235.714C115.733 232.914 119 229.834 122.033 226.52C122.173 226.334 121.94 226.1 121.8 226.287C118.767 229.6 115.5 232.68 112 235.48C111.813 235.574 112.047 235.854 112.233 235.714Z" fill="#565510"/>
<path d="M113.96 230.254C114.146 229.554 114.66 228.854 115.406 228.667C115.733 228.574 116.153 228.76 115.966 229.18C115.873 229.32 115.733 229.507 115.593 229.647C115.313 229.927 114.986 230.16 114.613 230.394C114.426 230.487 114.613 230.814 114.8 230.674C115.36 230.347 117.273 228.947 115.966 228.387C115.5 228.2 114.986 228.48 114.613 228.76C114.146 229.134 113.773 229.647 113.633 230.254C113.54 230.347 113.866 230.44 113.96 230.254Z" fill="#565510"/>
<path d="M157.733 250.46H150.406C149.52 250.46 148.727 249.9 148.493 249.013L144.806 236.647C144.433 235.387 145.366 234.08 146.72 234.08H160.206C161.466 234.08 162.4 235.247 162.167 236.46L159.647 248.827C159.507 249.807 158.713 250.46 157.733 250.46Z" fill="#565510"/>
<path d="M153.533 239.493C158.353 239.493 162.26 237.592 162.26 235.247C162.26 232.901 158.353 231 153.533 231C148.714 231 144.806 232.901 144.806 235.247C144.806 237.592 148.714 239.493 153.533 239.493Z" fill="white" stroke="#565510" stroke-miterlimit="10"/>
<path d="M153.486 237.253C156.502 237.253 158.946 236.229 158.946 234.967C158.946 233.704 156.502 232.68 153.486 232.68C150.471 232.68 148.026 233.704 148.026 234.967C148.026 236.229 150.471 237.253 153.486 237.253Z" fill="white" stroke="#565510" stroke-miterlimit="10"/>
<path d="M67.7343 158.752L67.0781 158.996L74.0043 177.632L74.6605 177.388L67.7343 158.752Z" fill="#DEDC52"/>
<path d="M88.6942 161.75L88.0378 161.507L81.1296 180.149L81.786 180.392L88.6942 161.75Z" fill="#DEDC52"/>
<path d="M70.0377 159.729L68.3754 160.347L75.3016 178.983L76.9639 178.365L70.0377 159.729Z" fill="white" stroke="#565510" stroke-width="0.75" stroke-miterlimit="10"/>
<path d="M83.2064 186.9H74.433L70.793 169.354H85.8664L83.2064 186.9Z" fill="#DEDC52"/>
<path d="M33.6467 169.727C36.2133 177.567 38.8267 185.453 41.3933 193.293C46.2933 198.52 51.5667 203.887 57.2133 209.253C59.92 211.867 62.6733 214.34 65.3333 216.767C69.72 215.32 74.2933 213.64 79.1 211.633C82.46 210.233 85.68 208.787 88.7133 207.34C79.94 199.127 71.2133 190.96 62.44 182.747C58.38 183.867 54.3667 184.987 50.3067 186.06C44.7533 180.647 39.2 175.187 33.6467 169.727Z" fill="white"/>
<path d="M41.2999 193.433C48.9532 201.6 56.9332 209.44 65.2399 216.907C65.4266 217.047 65.6599 216.813 65.4732 216.673C57.1666 209.16 49.1866 201.367 41.5332 193.2C41.3932 193.013 41.1132 193.293 41.2999 193.433Z" fill="#565510"/>
<path d="M41.8132 193.573C39.1532 185.593 36.4932 177.66 33.8332 169.68C33.7399 169.447 33.4133 169.54 33.5066 169.773C36.1666 177.753 38.8266 185.687 41.4866 193.667C41.5332 193.9 41.9066 193.807 41.8132 193.573Z" fill="#565510"/>
<path d="M34.16 169.913C42.28 178.22 50.4 186.573 58.4733 194.88C58.6133 195.02 58.8933 194.787 58.7067 194.647C50.5867 186.34 42.4667 177.987 34.3933 169.68C34.2533 169.493 33.9733 169.727 34.16 169.913Z" fill="#565510"/>
<path d="M58.4264 195.394C60.4797 202.627 62.7664 209.767 65.2864 216.86C65.3797 217.094 65.7064 217 65.6131 216.767C63.0931 209.674 60.8064 202.534 58.7531 195.3C58.7064 195.067 58.3331 195.16 58.4264 195.394Z" fill="#565510"/>
<path d="M65.2399 216.813C72.3799 214.247 80.3132 212.287 86.8466 208.273C87.0332 208.133 86.8465 207.853 86.6599 207.993C80.1732 212.007 72.2866 213.967 65.1465 216.487C64.9599 216.533 65.0532 216.86 65.2399 216.813Z" fill="#565510"/>
<path d="M50.4468 186.527C54.1335 184.987 57.8668 183.727 61.7402 182.747C61.9735 182.7 61.8802 182.373 61.6468 182.42C57.7735 183.4 54.0401 184.66 50.3535 186.2C50.1201 186.293 50.2135 186.62 50.4468 186.527Z" fill="#565510"/>
<path d="M62.2999 182.887C70.3732 190.727 78.8199 198.24 87.4999 205.38C87.6866 205.52 87.9199 205.287 87.7332 205.147C79.0066 198.007 70.6066 190.494 62.5332 182.654C62.3932 182.514 62.1599 182.747 62.2999 182.887Z" fill="#565510"/>
<path d="M52.4999 188.487C54.7866 187.32 57.1665 186.34 59.6399 185.547C59.8732 185.5 59.7799 185.127 59.5465 185.22C57.0732 186.013 54.6466 187.04 52.3132 188.207C52.1266 188.3 52.3132 188.627 52.4999 188.487Z" fill="#565510"/>
<path d="M59.8735 185.593C67.0602 192.173 74.2468 198.753 81.3868 205.333C81.5735 205.473 81.8068 205.24 81.6201 205.1C74.4335 198.52 67.2468 191.94 60.1068 185.36C59.9668 185.22 59.7335 185.453 59.8735 185.593Z" fill="#565510"/>
<path d="M64.5399 212.8C70.3733 210.84 76.0666 208.507 81.5733 205.754C81.7599 205.66 81.6199 205.334 81.3866 205.474C75.9266 208.227 70.2799 210.56 64.4466 212.474C64.2599 212.567 64.3533 212.894 64.5399 212.8Z" fill="#565510"/>
<path d="M56.933 186.527C63.793 193.573 70.933 200.34 78.2597 206.874C78.4463 207.014 78.6797 206.78 78.493 206.64C71.1197 200.107 64.0263 193.34 57.1663 186.293C57.0263 186.107 56.7463 186.34 56.933 186.527Z" fill="#565510"/>
<path d="M53.9935 187.787C57.8201 190.634 60.7601 194.88 64.0268 198.334C67.3868 201.927 70.8401 205.427 74.3868 208.834C74.5268 208.974 74.8068 208.74 74.6201 208.6C70.8868 204.96 67.2468 201.274 63.6535 197.447C60.5735 194.134 57.7735 190.167 54.1335 187.46C53.9935 187.367 53.8068 187.694 53.9935 187.787Z" fill="#565510"/>
<path d="M59.22 197.913C62.44 202.393 65.94 206.593 69.72 210.607C69.86 210.793 70.14 210.513 69.9534 210.373C66.1734 206.407 62.72 202.16 59.5 197.727C59.36 197.54 59.08 197.727 59.22 197.913Z" fill="#565510"/>
<path d="M62.2534 207.34C63.56 208.88 64.8667 210.373 66.2667 211.773C66.4067 211.913 66.6867 211.68 66.5 211.54C65.1 210.093 63.7467 208.647 62.4867 207.107C62.3467 206.92 62.1134 207.153 62.2534 207.34Z" fill="#565510"/>
<path d="M63.6533 210.607C68.9266 208.18 74.3399 205.987 79.8466 204.167C80.0799 204.073 79.9866 203.747 79.7533 203.84C74.1999 205.707 68.7866 207.853 63.5133 210.327C63.28 210.42 63.4199 210.7 63.6533 210.607Z" fill="#565510"/>
<path d="M62.3466 207.76C67.3866 205.8 72.3333 203.7 77.2799 201.507C77.4666 201.413 77.3266 201.133 77.0933 201.227C72.1933 203.42 67.2466 205.473 62.2532 207.433C62.0666 207.48 62.1132 207.807 62.3466 207.76Z" fill="#565510"/>
<path d="M61.5531 204.96C65.9865 203.187 70.2798 201.227 74.5731 199.08C74.7598 198.987 74.6198 198.66 74.3865 198.8C70.1398 200.9 65.8465 202.86 61.4598 204.634C61.2265 204.68 61.3198 205.007 61.5531 204.96Z" fill="#565510"/>
<path d="M57.6798 193.714C60.1065 192.547 62.4398 191.287 64.7265 189.934C64.9132 189.794 64.7265 189.514 64.5398 189.654C62.2532 191.054 59.9198 192.314 57.4932 193.434C57.3065 193.48 57.4932 193.807 57.6798 193.714Z" fill="#565510"/>
<path d="M55.3931 191.427C57.5397 190.213 59.6864 188.953 61.8797 187.74C62.0664 187.647 61.8797 187.32 61.6931 187.46C59.5464 188.673 57.3997 189.933 55.2064 191.147C55.0197 191.24 55.2064 191.567 55.3931 191.427Z" fill="#565510"/>
<path d="M60.9932 201.927C63.5132 200.62 66.0332 199.267 68.5065 197.82C68.6932 197.727 68.5065 197.4 68.3198 197.54C65.8465 198.987 63.3732 200.387 60.8065 201.647C60.6198 201.694 60.8065 202.02 60.9932 201.927Z" fill="#565510"/>
<path d="M59.4999 197.68C61.2732 196.654 63.0932 195.673 64.9599 194.74C65.1465 194.647 65.0065 194.32 64.7732 194.46C62.9066 195.394 61.0866 196.374 59.3132 197.4C59.1266 197.494 59.3132 197.774 59.4999 197.68Z" fill="#565510"/>
<path d="M145.273 178.313C147.98 179.947 150.64 181.533 153.347 183.167C152.927 185.173 152.367 187.973 151.62 191.287C148.68 204.213 146.487 213.827 144.527 213.78C143.267 213.78 141.493 209.72 139.58 188.907C141.493 185.407 143.36 181.86 145.273 178.313Z" fill="#483463"/>
<path d="M145.6 190.96C144.293 191.193 143.127 191.66 142.007 192.36C141.82 192.5 142.007 192.78 142.193 192.64C143.313 191.987 144.48 191.52 145.74 191.287C145.927 191.24 145.833 190.913 145.6 190.96Z" fill="white"/>
<path d="M145.507 194.087C144.293 194.273 143.127 194.6 142.053 195.16C141.867 195.253 142.007 195.58 142.24 195.44C143.313 194.88 144.433 194.553 145.6 194.367C145.833 194.413 145.74 194.04 145.507 194.087Z" fill="white"/>
<path d="M145.413 196.747C144.433 196.98 143.546 197.307 142.66 197.773C142.473 197.867 142.66 198.193 142.846 198.053C143.686 197.587 144.573 197.26 145.506 197.073C145.693 197.027 145.6 196.7 145.413 196.747Z" fill="white"/>
<path d="M154.14 185.127C153.113 184.24 153.066 182.887 153.113 181.673C153.113 181.44 152.786 181.44 152.74 181.673C152.74 183.027 152.786 184.473 153.86 185.407C154.093 185.5 154.326 185.267 154.14 185.127Z" fill="white"/>
<path d="M101.92 130.06C101.873 130.574 101.64 132.487 101.78 135.147C101.827 136.174 102.107 140 103.88 145.18C104.767 147.794 105.747 149.987 107.007 152.367C107.8 153.907 111.02 159.974 117.18 167.907C122.687 175 127.587 179.76 129.22 181.347C132.907 184.847 136.267 187.647 139.067 189.747C139.813 189.7 140.793 189.56 141.773 189.14C144.947 187.787 146.16 184.707 146.44 183.96C145.273 181.3 144.107 178.64 142.94 175.934C141.26 172.014 139.58 168.094 137.993 164.22C139.16 165.294 140.793 166.787 142.847 168.56C145.74 171.034 147.7 172.714 150.173 174.347C152.273 175.747 155.353 177.52 159.553 179.014C160.907 179.154 166.087 179.434 169.867 175.887C174.487 171.594 173.507 164.827 173.133 162.027C172.34 156.334 169.447 152.414 168.373 151.107C163.147 144.62 158.48 146.02 148.96 138.274C146.953 136.64 148.027 137.294 141.82 131.647C136.127 126.467 133.187 123.854 129.733 121.474C124.32 117.787 121.147 115.64 116.527 115.594C115.173 115.594 111.253 115.594 107.8 118.254C105 120.4 103.833 123.294 103.273 124.647C102.387 126.794 102.107 128.707 101.92 130.06Z" fill="white"/>
<path d="M138.787 189.42C125.533 178.873 113.073 165.247 105.933 149.753C102.247 141.773 99.9133 131.553 104.067 123.247C106.213 118.953 110.367 115.593 115.313 115.593C119.887 115.64 124.32 118.16 128.147 120.54C136.36 125.72 143.08 132.86 149.52 140C149.66 140.187 149.94 139.907 149.753 139.767C143.547 132.86 137.107 126 129.313 120.867C122.78 116.573 114.147 112.327 107.287 118.393C100.893 123.993 100.753 133.933 102.62 141.54C104.907 150.733 110.227 158.993 115.873 166.46C122.407 175.14 130.013 182.933 138.553 189.653C138.693 189.84 138.973 189.56 138.787 189.42Z" fill="#565510"/>
<path d="M125.533 138.226C132.813 152.646 139.44 167.346 145.46 182.326C145.553 182.513 145.88 182.42 145.787 182.233C139.767 167.253 133.093 152.506 125.813 138.04C125.767 137.853 125.44 138.04 125.533 138.226Z" fill="#565510"/>
<path d="M139.16 189.886C142.38 189.326 144.153 186.573 145.647 183.96C145.74 183.773 145.46 183.586 145.367 183.773C143.92 186.34 142.193 189.046 139.067 189.56C138.833 189.606 138.927 189.933 139.16 189.886Z" fill="#565510"/>
<path d="M138.18 164.967C143.686 170.427 150.033 174.907 157.033 178.173C157.22 178.267 157.406 177.987 157.22 177.893C150.22 174.627 143.92 170.193 138.413 164.733C138.273 164.547 138.04 164.78 138.18 164.967Z" fill="#565510"/>
<path d="M155.214 179.76C152.087 179.573 148.96 179.433 145.834 179.247C145.04 181.113 143.92 183.773 142.707 186.947C137.9 199.313 134.307 208.46 135.894 209.533C136.92 210.233 140.7 207.9 153.954 191.753C154.374 187.74 154.794 183.773 155.214 179.76Z" fill="#483463"/>
<path d="M148.587 192.033C149.473 192.92 150.22 193.993 150.733 195.16C150.827 195.347 151.107 195.207 151.013 194.973C150.453 193.76 149.753 192.733 148.82 191.8C148.68 191.66 148.447 191.893 148.587 192.033Z" fill="white"/>
<path d="M146.907 194.694C147.794 195.487 148.54 196.42 149.1 197.447C149.194 197.633 149.52 197.447 149.38 197.26C148.774 196.187 148.027 195.254 147.14 194.414C146.954 194.32 146.72 194.554 146.907 194.694Z" fill="white"/>
<path d="M145.507 196.98C146.16 197.68 146.72 198.427 147.14 199.313C147.234 199.5 147.56 199.36 147.42 199.127C146.954 198.24 146.394 197.447 145.74 196.747C145.6 196.56 145.367 196.793 145.507 196.98Z" fill="white"/>
<path d="M145.087 182.56C146.534 182.42 147.42 181.253 148.167 180.087C148.307 179.9 147.98 179.713 147.887 179.9C147.234 180.927 146.44 182.047 145.134 182.187C144.854 182.233 144.854 182.56 145.087 182.56Z" fill="white"/>
<path d="M144.994 181.02C142.66 186.853 140.327 192.64 138.04 198.52C137.947 198.707 138.274 198.8 138.367 198.613C140.654 192.78 142.94 186.947 145.32 181.113C145.414 180.927 145.087 180.833 144.994 181.02Z" fill="white"/>
<path d="M145.6 201.693C148.494 198.707 151.154 195.58 153.58 192.22C153.72 192.033 153.394 191.847 153.3 192.033C150.874 195.347 148.214 198.473 145.367 201.413C145.227 201.6 145.46 201.833 145.6 201.693Z" fill="white"/>
<path d="M154.607 180.46C154.327 180.88 153.954 181.534 153.627 182.374C152.927 183.96 151.854 186.294 152.227 189.094C152.32 189.747 152.507 190.774 153.114 191.987C159.554 191.8 164.92 191.614 168.747 191.427C170.66 191.334 185.734 190.68 204.634 188.674C208.46 188.254 213.127 187.74 218.867 185.687C224.934 183.54 228.667 180.974 229.694 180.227C231.094 179.2 234.36 176.727 237.627 172.667C240.287 169.307 242.06 167.067 242.387 163.614C242.62 160.58 241.64 158.154 240.987 156.94C238.42 152.04 233.334 150.5 231.14 149.8C229.227 149.194 227.547 149.007 225.12 148.914C216.954 148.54 210.42 149.567 209.44 149.754C193.574 152.414 191.707 153.487 184.334 154.234C180.507 154.654 174.907 155.027 168 154.607C165.667 157.267 161.467 162.867 160.254 170.94C159.787 173.927 159.88 176.587 160.114 178.78C158.294 179.34 156.474 179.9 154.607 180.46Z" fill="white"/>
<path d="M154.467 180.6C152.6 183.447 151.807 186.667 152.133 190.027C152.133 190.26 152.507 190.26 152.507 190.027C152.227 186.713 152.973 183.54 154.793 180.74C154.887 180.6 154.56 180.413 154.467 180.6Z" fill="#565510"/>
<path d="M156.1 180.087C173.647 175.047 191.007 169.214 208.04 162.634C208.227 162.54 208.18 162.214 207.947 162.307C190.914 168.887 173.554 174.72 156.007 179.76C155.774 179.807 155.867 180.134 156.1 180.087Z" fill="#565510"/>
<path d="M199.967 151.76C204.914 150.547 209.907 149.753 214.947 149.38C219.754 149.007 224.7 148.727 229.46 149.66C233.94 150.547 238.234 152.787 240.614 156.8C243.46 161.56 241.92 166.227 239.027 170.473C233.894 177.94 226.287 183.307 217.654 185.92C208.18 188.767 197.914 189.513 188.067 190.26C176.727 191.147 165.34 191.427 153.954 191.567C153.72 191.567 153.72 191.94 153.954 191.94C165.667 191.8 177.334 191.52 189 190.587C199.547 189.747 210.934 189.047 220.874 185.22C228.994 182.093 236.18 176.213 240.567 168.7C242.434 165.48 243.227 161.98 241.78 158.433C240.287 154.747 237.067 151.947 233.427 150.5C228.527 148.54 223.114 148.633 217.98 148.867C211.867 149.147 205.8 149.987 199.827 151.48C199.687 151.48 199.78 151.807 199.967 151.76Z" fill="#565510"/>
<path d="M108.22 81.6667C108.127 81.1534 107.847 80.4067 107.333 79.6134C106.96 79.0534 106.447 78.4934 105.56 77.8401C104.627 77.1401 103.88 76.8134 101.313 75.6001C98.7468 74.4334 98.5135 74.3401 98.0935 73.9201C97.6268 73.5001 97.1602 72.6134 96.1335 70.8867C95.9468 70.5601 95.6668 70.0934 95.8535 69.6267C95.9468 69.3934 96.1335 69.2534 96.5068 69.0201C97.5802 68.3201 98.0935 68.1334 98.0935 68.1334C100.007 67.2467 99.9135 67.2934 99.9602 67.2467C101.267 66.9201 102.48 67.4801 103.507 67.9467C104.3 68.3201 104.533 68.5534 105.513 69.1601C106.307 69.6734 107.52 70.3734 109.06 71.0734C109.013 70.9801 108.36 68.7867 108.92 68.4601C109.387 68.2267 110.46 69.2067 111.067 70.0467C111.953 71.2134 112.187 72.4267 112.233 72.7534C112.56 74.2467 113.167 76.4401 114.66 79.6134C112.513 80.3134 110.367 81.0134 108.22 81.6667Z" fill="white"/>
<path d="M156.194 69.4866C155.68 69.44 154.84 69.3466 153.907 69.5333C151.574 69.9066 149.894 71.26 148.867 72.24C145.554 75.32 143.687 79.0066 141.54 82.5066C140.327 84.5133 138.834 86.6133 135.847 90.7666C133.654 93.8466 130.387 98.1866 125.907 103.18C124.787 101.267 123.667 99.26 122.594 97.2066C119.234 90.72 116.667 84.42 114.707 78.6333C114.287 78.4933 112.84 78.0733 111.16 78.68C108.967 79.52 108.22 81.5266 108.08 81.8066C108.314 82.8333 108.594 84.3266 109.014 86.1466C110.694 93.94 111.534 97.9066 112.56 101.5C113.447 104.673 114.24 106.773 115.827 111.02C116.807 113.68 117.647 115.733 119.607 117.6C120.447 118.44 121.754 119.607 123.667 120.027C125.347 120.4 127.167 120.12 130.294 118.44C133 116.993 135.427 115.173 140.374 110.32C142.194 108.547 144.527 106.26 147.607 102.76C151.76 98.0466 153.86 95.7133 154.98 93.5666C158.527 86.8 158.2 80.2666 158.06 78.2133C157.874 74.48 156.94 71.4466 156.194 69.4866Z" fill="#DEDC52"/>
<path d="M154.747 69.3003C147.98 69.627 144.387 77.9336 141.12 82.787C136.36 89.8803 131.46 96.8803 125.86 103.32C125.72 103.507 125.954 103.74 126.094 103.554C130.76 98.1403 134.96 92.3536 139.02 86.4736C141.12 83.3936 143.174 80.3136 145.227 77.2336C147.56 73.7336 150.127 69.8603 154.747 69.627C154.98 69.627 154.98 69.3003 154.747 69.3003Z" fill="#565510"/>
<path d="M126.047 103.087C121.52 95.2935 117.787 87.1268 114.894 78.5868C114.8 78.3535 114.474 78.4468 114.567 78.6802C117.46 87.2201 121.24 95.4801 125.767 103.273C125.86 103.46 126.187 103.273 126.047 103.087Z" fill="#565510"/>
<path d="M108.36 81.5269C109.387 79.2869 111.86 78.1203 114.24 78.7269C114.473 78.7736 114.567 78.4469 114.333 78.4003C111.813 77.7469 109.153 79.0069 108.08 81.3403C107.94 81.5736 108.267 81.7136 108.36 81.5269Z" fill="#565510"/>
<path d="M108.407 83.7666C109.9 91.3266 111.44 98.9333 113.914 106.26C115.454 110.88 117.46 118.207 122.687 119.98C128.52 121.987 134.634 115.873 138.507 112.373C143.92 107.473 148.82 102.06 153.16 96.18C153.3 95.9933 152.974 95.8066 152.88 95.9933C148.96 101.267 144.62 106.213 139.814 110.693C135.66 114.567 127.96 122.687 121.66 119.093C119.187 117.693 117.787 114.987 116.667 112.513C115.267 109.387 114.147 106.167 113.167 102.9C111.3 96.6 109.994 90.1133 108.734 83.6733C108.687 83.4866 108.36 83.5799 108.407 83.7666Z" fill="#565510"/>
<path d="M109.2 71.0269C109.06 70.4202 108.967 69.7669 108.92 69.1602C109.947 69.0202 110.6 69.3935 110.927 70.1869C111.534 70.8869 111.767 72.0535 112.094 72.8935C112.7 74.5269 113.26 76.2069 113.68 77.9335C113.727 78.1669 114.054 78.0735 114.007 77.8402C113.494 75.8802 112.887 74.0135 112.187 72.1469C111.72 70.9335 111.207 69.3002 110.087 68.5069C108.127 67.1535 108.687 70.1869 108.874 71.1202C108.92 71.3535 109.247 71.2602 109.2 71.0269Z" fill="#565510"/>
<path d="M108.033 80.3603C106.867 78.3536 105.094 77.0936 102.994 76.1136C101.827 75.5536 100.474 75.1803 99.3535 74.5736C97.4402 73.5003 96.6935 71.8203 95.9468 69.8603C95.8535 69.6736 95.5268 69.7203 95.6202 69.9536C96.4602 72.147 97.3468 73.967 99.5402 75.0403C102.667 76.5803 105.84 77.327 107.753 80.5936C107.847 80.7336 108.127 80.5936 108.033 80.3603Z" fill="#565510"/>
<path d="M96.4602 69.1603C97.4869 69.207 98.0469 70.7003 98.7002 71.3536C99.2602 71.9136 99.9602 72.3336 100.754 72.567C100.987 72.6136 101.08 72.287 100.847 72.2403C99.5869 71.867 98.7469 71.027 98.0469 69.9536C97.6269 69.3936 97.2069 68.8803 96.5069 68.8336C96.2269 68.787 96.2269 69.1603 96.4602 69.1603Z" fill="#565510"/>
<path d="M97.6267 68.2733C98.1401 68.18 98.7934 68.6467 99.1201 69.0667C99.2601 69.2533 99.4001 69.44 99.5401 69.6267C99.7734 69.9533 100.053 70.2333 100.38 70.4667C100.987 70.9333 101.64 71.2133 102.387 71.3533C102.62 71.4 102.713 71.0733 102.48 71.0267C101.08 70.7467 100.287 69.9533 99.4467 68.88C98.9334 68.2733 98.4201 67.8533 97.5801 67.9933C97.3467 67.9933 97.4401 68.32 97.6267 68.2733Z" fill="#565510"/>
<path d="M99.9135 67.3868C100.94 67.3868 101.5 68.6001 102.153 69.1601C102.76 69.6734 103.46 70.0467 104.207 70.2801C104.44 70.3267 104.533 70.0001 104.3 69.9534C103.133 69.5801 102.34 68.9267 101.547 67.9934C101.08 67.4801 100.613 67.0134 99.8668 67.0134C99.6802 67.0601 99.6802 67.3868 99.9135 67.3868Z" fill="#565510"/>
<path d="M103.367 68.0866C105.094 69.1599 106.82 70.1866 108.594 71.2599C108.78 71.3999 108.967 71.0733 108.78 70.9799C107.054 69.9066 105.327 68.8799 103.554 67.8066C103.367 67.6666 103.18 67.9933 103.367 68.0866Z" fill="#565510"/>
<path d="M88.7135 64.2134L84.7002 63.9334L82.4135 67.2001L81.2468 63.1401L77.4202 61.6934L80.6868 59.4534L80.5935 55.3L83.8135 58.0067L87.5935 56.8867L86.2868 60.76L88.7135 64.2134Z" fill="#DEDC52"/>
<path d="M102.247 57.6332L98.0469 55.7665L94.1736 58.2398L94.5936 53.5265L91.0936 50.4932L95.5736 49.4665L97.2536 45.0798L99.5869 49.1398L104.114 49.5132L101.127 53.0598L102.247 57.6332Z" fill="#DEDC52"/>
<path d="M113.54 58.1L112.047 54.18L107.987 53.0133L111.207 50.5866L110.833 46.48L114.333 48.9066L118.16 47.5533L117.087 51.4733L119.84 54.74H115.687L113.54 58.1Z" fill="#DEDC52"/>
<path d="M87.9202 44.5669L84.2802 43.7736L81.5269 46.3403L81.1536 42.6069L77.8869 40.7869L81.3402 39.2936L82.0402 35.6069L84.5136 38.4069L88.2469 37.9403L86.3336 41.2069L87.9202 44.5669Z" fill="#DEDC52"/>
<path d="M104.113 39.9467L102.387 36.4001L98.4667 35.8401L101.313 33.0867L100.66 29.1667L104.113 31.0334L107.613 29.1667L106.96 33.0867L109.807 35.8401L105.887 36.4001L104.113 39.9467Z" fill="#DEDC52"/>
<path d="M156.193 69.4868C154.933 70.4201 152.88 72.1935 151.247 75.0402C149.613 77.8868 149.1 80.5468 148.913 82.1335C148.353 89.3202 148.073 95.9002 147.933 101.78C147.747 109.573 147.84 116.76 148.073 123.153C148.307 130.06 148.727 136.267 149.193 141.587C149.52 142.38 150.033 143.453 150.873 144.62C152.46 146.907 154.513 148.54 158.06 150.5C162.12 152.694 167.3 155.54 174.907 156.147C179.2 156.474 182.467 156.007 184.753 155.634C190.68 154.7 195.3 152.834 198.333 151.34C198.847 148.027 199.407 143.967 199.78 139.254C200.48 130.527 201.18 122.127 199.687 112C199.127 108.22 198.427 105.28 198.1 99.8202C197.867 95.6668 198.007 92.2135 198.147 89.9735C196.793 88.8068 194.647 87.1735 191.707 85.8668C189.747 84.9802 188.253 84.6068 185.407 83.8602C179.06 82.2735 178.733 82.8335 175.467 81.7135C174.113 81.2468 170.847 80.0802 167.487 77.4202C164.687 75.2268 163.893 73.5935 160.72 71.6335C158.9 70.4668 157.267 69.8601 156.193 69.4868Z" fill="#DEDC52"/>
<path d="M156.1 69.6269C162.587 73.5003 167.814 79.2869 175.14 81.6669C182.887 84.1869 191.847 84.0003 198.007 90.0203C198.147 90.1603 198.427 89.9269 198.24 89.7869C192.64 84.3269 184.707 83.8603 177.567 81.9936C169.12 79.8003 163.52 73.6403 156.287 69.3003C156.1 69.207 155.914 69.5336 156.1 69.6269Z" fill="#565510"/>
<path d="M148.727 82.1335C147.234 101.92 147.327 121.8 149.054 141.587C149.054 141.82 149.427 141.82 149.427 141.587C147.747 121.8 147.607 101.92 149.1 82.1335C149.1 81.9002 148.727 81.9002 148.727 82.1335Z" fill="#565510"/>
<path d="M150.08 143.967C155.493 149.94 162.773 154.047 170.707 155.68C179.667 157.454 187.973 155.26 196.467 152.414C196.7 152.32 196.607 151.994 196.373 152.087C187.973 154.934 179.667 157.127 170.8 155.354C162.913 153.767 155.727 149.707 150.313 143.734C150.173 143.547 149.94 143.827 150.08 143.967Z" fill="#565510"/>
<path d="M197.587 97.8137C200.807 115.454 200.994 133.514 198.194 151.247C198.147 151.48 198.474 151.574 198.52 151.34C201.32 133.56 201.134 115.454 197.914 97.7204C197.867 97.487 197.54 97.5804 197.587 97.8137Z" fill="#565510"/>
<path d="M191.52 156.566C189.327 157.36 189.747 158.806 186.667 160.626C186.107 160.953 185.034 161.56 183.867 162.68C182.84 163.706 182.654 164.22 182.607 164.546C182.42 165.853 183.54 166.926 183.774 167.16C183.027 168.466 182.374 169.493 181.954 170.193C180.367 172.713 179.574 173.693 179.807 175.046C179.9 175.653 180.227 176.12 180.46 176.4C181.254 176.493 182.374 176.586 183.727 176.633C186.247 176.726 187.507 176.773 188.58 176.26C190.027 175.606 190.727 174.44 191.847 172.573C192.547 171.406 193.014 170.146 193.947 167.72C194.88 165.293 195.347 163.66 195.674 162.446C196.514 159.413 196.934 157.92 196.374 157.173C195.534 155.96 193.107 155.96 191.52 156.566Z" fill="white"/>
<path d="M189.327 101.08C190.307 99.3998 191.52 97.6265 192.967 95.7598C194.74 93.4732 196.514 91.5132 198.194 89.9265C202.02 93.4732 204.774 96.8798 206.687 99.4465C208.46 101.873 213.034 108.407 216.3 118.16C217.654 122.127 218.447 125.58 218.914 128.147C218.774 129.267 218.447 130.853 217.747 132.72C216.394 136.36 214.527 138.553 212.054 141.493C209.067 145.087 206.22 148.773 203.234 152.32C201.6 154.28 199.08 157.266 196 161C195.72 160.486 195.207 159.646 194.227 158.947C192.5 157.687 190.68 157.78 190.12 157.826C192.127 153.58 194.274 149.24 196.514 144.853C199.36 139.3 202.254 134.026 205.147 128.94C203.514 126.187 201.88 123.387 200.247 120.587C196.42 114.053 192.78 107.52 189.327 101.08Z" fill="#DEDC52"/>
<path d="M199.64 91.3265C208.74 100.8 215.087 112.56 218.12 125.347C218.167 125.58 218.494 125.487 218.447 125.253C215.414 112.42 209.02 100.613 199.874 91.0932C199.734 90.9065 199.5 91.1865 199.64 91.3265Z" fill="#565510"/>
<path d="M189 101.92C194.087 110.693 199.174 119.513 204.26 128.286C204.354 128.473 204.68 128.286 204.54 128.1C199.454 119.326 194.367 110.506 189.28 101.733C189.187 101.546 188.907 101.686 189 101.92Z" fill="#565510"/>
<path d="M204.587 129.08C199.5 138.366 194.787 147.84 190.354 157.453C190.26 157.64 190.54 157.826 190.634 157.64C195.067 148.026 199.827 138.553 204.867 129.266C205.007 129.08 204.727 128.893 204.587 129.08Z" fill="#565510"/>
<path d="M190.68 158.246C192.827 158.106 194.787 159.226 195.72 161.14C195.814 161.326 196.14 161.186 196 160.953C194.974 158.946 192.874 157.78 190.634 157.92C190.447 157.92 190.447 158.246 190.68 158.246Z" fill="#565510"/>
<path d="M218.68 127.586C218.167 134.353 213.267 139.58 209.207 144.62C204.82 149.986 200.48 155.353 196.093 160.72C195.953 160.906 196.187 161.14 196.327 160.953C201.273 154.886 206.22 148.773 211.213 142.706C214.853 138.226 218.587 133.513 219.053 127.586C219.053 127.353 218.727 127.353 218.68 127.586Z" fill="#565510"/>
<path d="M189.327 158.946C187.414 159.926 185.594 161.093 183.914 162.446C182.98 163.24 181.954 164.313 182.747 165.526C182.887 165.713 183.167 165.526 183.027 165.34C181.954 163.706 184.94 161.98 186.014 161.28C187.134 160.533 188.3 159.833 189.467 159.226C189.7 159.133 189.514 158.853 189.327 158.946Z" fill="#565510"/>
<path d="M185.174 164.92C184.38 165.993 177.38 176.446 180.507 176.493C180.74 176.493 180.74 176.166 180.507 176.12C179.107 176.073 182 170.426 182.374 169.82C183.307 168.14 184.334 166.553 185.5 165.06C185.594 164.92 185.314 164.78 185.174 164.92Z" fill="#565510"/>
<path d="M195.534 162.353C194.554 164.453 194.134 166.693 193.387 168.886C192.407 171.733 190.727 174.16 188.44 176.12C188.254 176.26 188.534 176.493 188.674 176.353C190.587 174.72 192.127 172.76 193.154 170.426C194.274 167.86 194.6 165.06 195.814 162.54C195.954 162.306 195.627 162.166 195.534 162.353Z" fill="#565510"/>
<path d="M182.28 176.027C183.774 174.487 185.08 172.807 186.154 170.893C186.247 170.707 185.967 170.52 185.874 170.707C184.847 172.573 183.54 174.253 182.047 175.747C181.86 175.933 182.094 176.167 182.28 176.027Z" fill="#565510"/>
<path d="M183.82 176.774C186.2 175.28 187.74 172.994 189.187 170.66C189.28 170.474 189 170.287 188.907 170.474C187.507 172.76 186.014 175.047 183.68 176.494C183.447 176.587 183.634 176.867 183.82 176.774Z" fill="#565510"/>
<path d="M186.247 176.633C187.134 176.447 187.787 175.607 188.394 175C189.14 174.206 189.794 173.366 190.4 172.48C190.54 172.293 190.214 172.106 190.12 172.293C189.607 173.086 189 173.833 188.347 174.533C187.787 175.186 187.04 176.12 186.154 176.307C185.92 176.353 186.014 176.68 186.247 176.633Z" fill="#565510"/>
<path d="M169.354 72.0533C168.794 72.7533 168.467 73.7333 168.42 73.8733C167.954 75.2733 168 76.44 168 77.0467C168.047 77.6533 168.094 78.96 168.84 80.4067C169.96 82.6467 171.92 83.6733 172.527 84C173.134 84.3267 173.694 84.5133 174.067 84.6067C174.207 84.8867 174.347 85.2133 174.207 85.4C173.974 85.7733 172.994 85.2133 172.574 85.68C172.34 85.96 172.387 86.52 172.62 86.8467C172.714 86.9867 172.994 87.2667 174.254 87.3133C174.907 87.3133 175.98 87.36 177.24 86.8467C178.174 86.4733 178.827 85.96 179.34 85.4933C179.667 83.8133 180.134 82.6 180.554 81.76C180.88 81.1067 181.02 81.0133 181.207 80.4533C181.814 78.96 181.72 77.6533 181.674 76.8133C181.627 75.6933 181.534 74.62 180.88 73.4067C180.087 71.9133 178.874 71.1667 178.5 70.98C175.56 69.1133 171.127 69.7667 169.354 72.0533Z" fill="white"/>
<path d="M168.56 73.4063C168.747 72.893 169.214 71.9596 170.24 71.213C171.687 70.1396 173.554 69.9063 175.047 70.4196C176.4 70.8863 177.194 71.8196 177.94 72.7063C178.92 73.873 179.9 75.6463 180.274 76.2996C180.88 77.4196 181.114 77.9796 181.674 78.073C182.374 78.213 183.167 77.5596 183.54 76.9063C183.914 76.2063 183.82 75.5063 183.68 74.433C183.494 73.2196 183.307 72.193 182.654 71.3063C181.907 70.2796 181.254 70.4663 179.107 69.393C176.727 68.1796 174.814 66.593 174.487 66.3596C173.087 65.193 172.574 64.5396 171.36 64.2596C171.034 64.213 170.054 64.0263 168.887 64.4463C166.927 65.193 166.227 67.1996 165.994 67.853C165.667 68.7863 165.2 70.1863 165.947 71.5396C166.647 72.9863 168.28 73.3596 168.56 73.4063Z" fill="#483463"/>
<path d="M168.794 72.4732C167.114 76.3465 167.72 81.1532 171.454 83.5799C174.767 85.7265 179.014 84.6532 181.02 81.3399C181.114 81.1532 180.834 80.9665 180.74 81.1532C178.827 84.3265 174.814 85.3065 171.687 83.2999C168.094 81.0132 167.534 76.3465 169.12 72.6599C169.167 72.4265 168.887 72.2399 168.794 72.4732Z" fill="#565510"/>
<path d="M168.607 73.2199C164.454 72.2866 165.62 66.2199 168.607 64.7266C171.5 63.2799 173.32 65.8933 175.374 67.3399C178.78 69.7199 185.174 70.9333 183.12 76.7199C183.027 76.9533 183.4 77.0466 183.447 76.8133C184.427 74.0599 183.12 71.4466 180.787 69.8599C178.92 68.5533 176.727 68.0399 174.954 66.6399C173.74 65.7066 172.667 64.3533 171.034 64.0266C165.714 62.9999 163.147 72.3799 168.467 73.5933C168.747 73.6399 168.84 73.3133 168.607 73.2199Z" fill="#483463"/>
<path d="M169.54 71.7732C172.014 70.4199 174.814 69.8132 177.147 71.8199C178.64 73.1266 179.34 74.8999 180.18 76.6265C180.974 78.2132 182.047 79.0065 183.214 77.1865C183.354 76.9999 183.027 76.8132 182.934 76.9999C181.347 79.4265 180.18 75.6932 179.854 75.0399C179.527 74.3399 179.154 73.6866 178.734 73.0332C178.08 72.1466 177.287 71.2599 176.307 70.7466C173.974 69.4866 171.547 70.2799 169.354 71.4466C169.167 71.5866 169.354 71.8666 169.54 71.7732Z" fill="#565510"/>
<path d="M173.18 72.4267C171.407 74.06 170.194 77.0467 170.894 79.4267C170.94 79.66 171.314 79.5667 171.22 79.3334C170.52 77.0467 171.734 74.2467 173.414 72.66C173.6 72.52 173.367 72.2867 173.18 72.4267Z" fill="#565510"/>
<path d="M175.304 75.0739C175.4 74.6463 175.314 74.2632 175.113 74.2183C174.911 74.1733 174.671 74.4835 174.575 74.9111C174.48 75.3387 174.566 75.7217 174.767 75.7667C174.968 75.8116 175.209 75.5015 175.304 75.0739Z" fill="#565510"/>
<path d="M174.907 72.8463C175.607 72.6596 176.307 72.9863 176.634 73.593C176.727 73.7796 177.054 73.593 176.914 73.4063C176.494 72.6596 175.607 72.2396 174.814 72.4729C174.627 72.5663 174.72 72.893 174.907 72.8463Z" fill="#565510"/>
<path d="M173.88 84.6067C173.927 84.8867 173.974 85.12 174.02 85.4C174.067 85.6333 174.394 85.54 174.347 85.3067C174.3 85.0267 174.254 84.7933 174.207 84.5133C174.207 84.28 173.88 84.3733 173.88 84.6067Z" fill="#565510"/>
<path d="M172.574 85.2601C172.014 86.5667 173.227 87.3134 174.394 87.4067C176.307 87.5467 178.127 86.7534 179.527 85.5401C179.714 85.4001 179.434 85.1201 179.294 85.3067C178.5 86.0067 177.614 86.5201 176.587 86.8467C175.887 87.0334 171.967 87.6401 172.9 85.4467C172.947 85.2134 172.667 85.0267 172.574 85.2601Z" fill="#565510"/>
<path d="M170.854 74.6991C170.95 74.2715 170.864 73.8884 170.663 73.8435C170.462 73.7986 170.221 74.1087 170.126 74.5363C170.03 74.9639 170.116 75.347 170.317 75.3919C170.518 75.4369 170.759 75.1267 170.854 74.6991Z" fill="#565510"/>
</svg>
