<svg width="280" height="280" viewBox="0 0 280 280" fill="none" xmlns="http://www.w3.org/2000/svg">
<g clip-path="url(#clip0_919_11221)">
<path d="M226.459 29.0244H11.3397V216.01H226.459V29.0244Z" fill="white" stroke="#483463" stroke-miterlimit="10"/>
<path d="M118.9 29.0244V216.01" stroke="#483463" stroke-miterlimit="10"/>
<path d="M226.459 123.283H13.5407" stroke="#483463" stroke-miterlimit="10"/>
<path d="M25.1675 61.1775C25.6459 62.6129 26.1723 64.9096 26.1244 67.7326C26.0287 70.7469 25.2632 73.1393 24.6412 74.5747C25.6938 74.5268 26.7464 74.4311 27.799 74.2876C31.2919 73.9048 34.4976 73.1871 37.3684 72.4216C37.4163 70.8426 37.4163 69.2158 37.3684 67.5412C37.3206 64.1919 37.0813 60.9862 36.7943 57.9718C32.8708 59.0723 29.0431 60.1249 25.1675 61.1775Z" fill="white" stroke="#483463" stroke-miterlimit="10"/>
<path d="M33.5885 50.3163C33.4928 51.4647 33.3972 52.6608 33.2058 53.857C32.7273 57.1106 31.9617 60.0293 31.1483 62.4694C32.9187 62.7565 35.311 62.9479 38.0861 62.6608C41.6268 62.2781 44.4498 61.2733 46.3158 60.412C45.6938 58.0197 45.0239 55.5795 44.2584 53.0915C43.7799 51.5125 43.2536 49.9336 42.7751 48.4025C39.7129 49.0723 36.6507 49.6943 33.5885 50.3163Z" fill="white" stroke="#483463" stroke-miterlimit="10"/>
<path d="M81.1962 47.8761C81.5311 48.833 82.2488 51.1775 81.579 54.0483C80.6699 57.8282 77.9904 59.8857 77.2727 60.412C78.5646 60.8904 80.2392 61.3211 82.1531 61.5125C86.5072 61.9909 90.0479 60.9861 92.1053 60.2206C92.1053 58.7373 92.0096 57.0148 91.7225 55.1488C91.2919 52.278 90.5742 49.79 89.8565 47.8282C86.9378 47.8761 84.067 47.8761 81.1962 47.8761Z" fill="white" stroke="#483463" stroke-miterlimit="10"/>
<path d="M29.8565 96.5842C30.1914 97.3497 31.3397 100.077 30.4306 103.331C29.8565 105.436 28.6603 106.776 27.9904 107.445C29.2823 107.924 31.0048 108.402 33.0622 108.546C36.9378 108.881 40.0957 107.924 41.866 107.254C41.8182 103.57 41.7225 99.8856 41.6746 96.2014C37.7033 96.345 33.7799 96.4885 29.8565 96.5842Z" fill="white" stroke="#483463" stroke-miterlimit="10"/>
<path d="M52.488 72.4215C52.7751 73.4263 53.1101 75.3402 52.6794 77.6847C52.1531 80.4598 50.7656 82.278 50.0479 83.1392C51.6268 83.6177 53.5885 84.0961 55.8373 84.2397C59.7608 84.5268 63.0144 83.9048 65.2153 83.2828C65.2153 82.278 65.1675 81.2253 65.0239 80.077C64.7369 77.1105 64.067 74.5268 63.3493 72.3737C59.7608 72.4215 56.1244 72.4215 52.488 72.4215Z" fill="white" stroke="#483463" stroke-miterlimit="10"/>
<path d="M58.8995 66.6321C59.2823 68.4503 59.5694 71.0818 59.0909 74.144C58.8517 75.5794 58.5167 76.8235 58.134 77.8761C62.3923 77.6847 66.6507 77.4933 70.8613 77.3019C70.8134 73.8091 70.7177 70.3163 70.6699 66.8235C66.7464 66.7278 62.823 66.6799 58.8995 66.6321Z" fill="white" stroke="#483463" stroke-miterlimit="10"/>
<path d="M59.8086 45.0531C59.0431 46.9191 58.2775 49.2636 57.7512 51.9909C57.4163 53.8569 57.2249 55.5316 57.177 57.0627C58.9952 57.4933 61.579 57.8282 64.689 57.6368C67.3684 57.4454 69.6172 56.8713 71.244 56.345C70.7656 52.9 70.2392 49.455 69.7608 46.0579C66.4115 45.6751 63.1101 45.388 59.8086 45.0531Z" fill="white" stroke="#483463" stroke-miterlimit="10"/>
<path d="M134.785 48.3546C135.072 49.3594 135.407 51.2733 134.976 53.6178C134.45 56.3929 133.062 58.2111 132.345 59.0723C133.923 59.5508 135.885 60.0293 138.134 60.1728C142.057 60.4599 145.311 59.8379 147.512 59.2159C147.512 58.2111 147.464 57.1584 147.321 56.0101C147.033 53.0436 146.364 50.4599 145.646 48.3068C142.01 48.3546 138.421 48.3546 134.785 48.3546Z" fill="white" stroke="#483463" stroke-miterlimit="10"/>
<path d="M141.148 42.5172C141.531 44.3354 141.818 46.967 141.34 50.0292C141.1 51.4646 140.766 52.7086 140.383 53.7612C144.641 53.5698 148.9 53.3785 153.11 53.1871C153.062 49.6942 152.967 46.2014 152.919 42.7086C149.043 42.6608 145.072 42.6129 141.148 42.5172Z" fill="white" stroke="#483463" stroke-miterlimit="10"/>
<path d="M178.278 47.8761C178.612 48.833 179.33 51.1775 178.66 54.0483C177.751 57.8282 175.072 59.8857 174.354 60.412C175.646 60.8904 177.321 61.3211 179.234 61.5125C183.589 61.9909 187.129 60.9861 189.187 60.2206C189.187 58.7373 189.091 57.0148 188.804 55.1488C188.373 52.278 187.656 49.79 186.938 47.8282C184.019 47.8761 181.148 47.8761 178.278 47.8761Z" fill="white" stroke="#483463" stroke-miterlimit="10"/>
<path d="M25.9809 137.876C26.2201 139.694 26.4115 142.278 25.933 145.292C25.5024 148.067 24.7369 150.268 24.0192 151.895C28.134 151.991 32.2967 152.087 36.4115 152.182C36.7943 147.206 37.1292 142.278 37.512 137.302C33.6364 137.493 29.8086 137.685 25.9809 137.876Z" fill="white" stroke="#483463" stroke-miterlimit="10"/>
<path d="M63.3972 139.503C63.7799 141.273 64.1627 144.096 63.6843 147.493C63.2058 150.795 62.0575 153.379 61.1962 154.91C63.2536 155.005 65.4546 155.005 67.7991 154.91C71.6268 154.766 75.1197 154.335 78.2775 153.809C78.0862 150.938 77.7512 147.828 77.1771 144.431C76.7943 142.182 76.3158 140.077 75.7895 138.115C71.6268 138.594 67.512 139.072 63.3972 139.503Z" fill="white" stroke="#483463" stroke-miterlimit="10"/>
<path d="M50.1436 146.68C50.3828 147.828 51.0048 151.656 48.756 155.484C47.6077 157.445 46.1244 158.69 45.1675 159.359C51.579 159.646 58.0383 159.886 64.4498 160.173C64.7369 156.393 65.024 152.661 65.2632 148.881C60.2393 148.163 55.2154 147.398 50.1436 146.68Z" fill="white" stroke="#483463" stroke-miterlimit="10"/>
<path d="M89.4259 167.158C89.8086 168.594 90.1914 170.89 89.8086 173.666C89.3302 177.398 87.7034 180.077 86.7943 181.369C89.2345 181.608 92.5838 181.704 96.4115 181.082C99.9043 180.508 102.823 179.503 104.928 178.594C104.45 174.192 104.019 169.79 103.541 165.388C98.8517 165.962 94.1149 166.584 89.4259 167.158Z" fill="white" stroke="#483463" stroke-miterlimit="10"/>
<path d="M127.225 137.015C127.703 138.498 128.373 141.034 128.038 144.192C127.799 146.441 127.177 148.211 126.651 149.407C132.057 149.503 137.464 149.599 142.871 149.694C142.105 148.977 140.813 147.541 140.096 145.292C138.852 141.178 140.813 137.685 141.196 137.015C136.603 137.015 131.914 137.015 127.225 137.015Z" fill="white" stroke="#483463" stroke-miterlimit="10"/>
<path d="M164.402 99.8857C164.545 101.082 164.641 103.187 163.828 105.675C163.014 108.259 161.627 110.029 160.813 110.89C162.488 111.465 164.641 112.039 167.129 112.278C171.675 112.709 175.455 111.895 177.847 111.178C177.368 109.742 176.938 108.259 176.459 106.776C175.694 104.288 174.976 101.8 174.258 99.3594C171.005 99.5029 167.703 99.6943 164.402 99.8857Z" fill="white" stroke="#483463" stroke-miterlimit="10"/>
<path d="M178.995 160.46C179.33 162.134 179.617 164.527 179.282 167.35C178.66 171.991 176.651 175.34 175.407 176.967C176.986 177.302 178.756 177.637 180.622 177.78C186.794 178.355 192.105 177.493 196.029 176.393C195.407 171.8 194.737 167.206 194.115 162.613C189.091 161.895 184.067 161.178 178.995 160.46Z" fill="white" stroke="#483463" stroke-miterlimit="10"/>
<path d="M151.196 152.182C151.435 153.187 152.153 156.584 150.383 160.173C149.282 162.374 147.703 163.666 146.794 164.288C147.608 165.053 148.66 165.866 150.096 166.488C154.641 168.498 159.043 166.967 160.287 166.488C160.766 162.374 161.196 158.211 161.675 154.096C158.182 153.474 154.689 152.804 151.196 152.182Z" fill="white" stroke="#483463" stroke-miterlimit="10"/>
<path d="M190 137.302C190.239 138.929 190.383 140.843 190.287 143.091C190.144 145.962 189.617 148.402 189.043 150.268C190.287 150.89 192.632 151.847 195.742 151.895C199.139 151.943 201.675 150.89 202.919 150.268C202.345 148.067 201.818 145.771 201.244 143.379C200.718 141.13 200.287 138.929 199.856 136.776C196.603 136.967 193.301 137.111 190 137.302Z" fill="white" stroke="#483463" stroke-miterlimit="10"/>
<path d="M148.995 180.268C149.091 182.039 148.995 184.527 148.182 187.445C147.177 191.034 145.502 193.618 144.306 195.149C145.407 195.675 146.699 196.154 148.182 196.536C152.153 197.589 155.694 197.445 158.086 197.111C158.852 195.484 160 192.613 160 188.833C160 186.584 159.569 184.67 159.187 183.331C155.789 182.278 152.392 181.273 148.995 180.268Z" fill="white" stroke="#483463" stroke-miterlimit="10"/>
<path d="M45.6459 75.723C44.689 77.7326 43.3971 79.9814 41.7225 82.278C40.7177 83.6178 39.7129 84.8139 38.756 85.9144C40 86.8713 41.7703 88.0197 44.0191 88.8809C48.756 90.6991 53.0143 90.2685 55.1675 89.8857C55.0718 86.1536 54.9282 82.4216 54.8325 78.7374C51.7703 77.6847 48.7081 76.68 45.6459 75.723Z" fill="#100F0D"/>
<path d="M84.2584 67.5411C84.4976 68.8809 84.7369 71.034 84.2584 73.5699C83.6364 76.7277 82.2488 79.0244 81.3876 80.1727C82.3924 80.5077 83.5407 80.8426 84.8326 81.034C88.5646 81.6081 91.7225 81.034 93.7799 80.4598C94.2584 76.4407 94.7369 72.3737 95.2153 68.3545C91.579 68.1153 87.8948 67.8282 84.2584 67.5411Z" fill="#100F0D"/>
<path d="M52.3445 47.2062C52.6794 48.5937 52.9665 50.7947 52.5838 53.4263C51.9617 57.3019 50.1436 59.9813 49.1388 61.2253C50.8134 61.4646 52.6316 61.7038 54.5933 61.7995C58.134 61.9909 61.3397 61.8473 64.1149 61.5124C64.0192 56.9191 63.9235 52.2779 63.8278 47.6846C60 47.4933 56.1723 47.3497 52.3445 47.2062Z" fill="#100F0D"/>
<path d="M131.77 68.6895C131.962 69.9335 132.105 71.9909 131.483 74.4311C130.861 77.0148 129.665 78.8808 128.9 79.8856C130.191 79.9335 131.531 79.9335 132.919 79.8856C136.364 79.7899 139.522 79.455 142.44 79.0244C142.249 75.6751 142.057 72.3258 141.866 68.9287C138.517 68.8808 135.12 68.7851 131.77 68.6895Z" fill="#100F0D"/>
<path d="M153.254 102.374C153.493 103.474 154.019 106.68 152.488 110.125C151.34 112.709 149.569 114.288 148.612 115.005C150.096 115.723 152.967 116.871 156.794 116.823C160.957 116.776 164.067 115.292 165.502 114.527C165.407 111.56 165.263 108.546 165.167 105.579C161.196 104.479 157.225 103.426 153.254 102.374Z" fill="#100F0D"/>
<path d="M85.646 137.972C86.0287 139.312 86.6507 141.943 86.0287 145.197C85.311 148.929 83.3493 151.417 82.3924 152.422C84.0192 152.757 85.8373 153.044 87.7991 153.139C92.2967 153.379 96.1723 152.757 99.0431 152.039C98.8996 147.589 98.8039 143.091 98.6603 138.642C94.3062 138.45 90 138.211 85.646 137.972Z" fill="#100F0D"/>
<path d="M95.4067 174.192C95.7895 175.819 96.4115 179.455 95.024 183.618C94.1627 186.297 92.7752 188.259 91.7704 189.407C94.0192 189.742 97.3206 190.029 101.196 189.407C105.502 188.737 108.852 187.302 110.957 186.154C110.957 182.182 110.957 178.211 110.957 174.192C105.79 174.192 100.574 174.192 95.4067 174.192Z" fill="#100F0D"/>
<path d="M156.22 137.637C156.411 138.833 156.651 140.986 155.837 143.426C154.402 148.02 150.622 150.173 149.665 150.651C151.962 151.082 154.785 151.417 157.99 151.369C162.727 151.321 166.699 150.46 169.569 149.551C169.33 146.297 169.091 143.044 168.852 139.79C164.689 139.072 160.431 138.355 156.22 137.637Z" fill="#100F0D"/>
<path d="M193.876 144.144C193.397 144.91 191.723 147.685 192.153 151.417C192.632 155.627 195.455 158.115 196.077 158.642C200.67 157.302 205.263 156.01 209.809 154.67C209.091 154.048 207.99 152.852 207.273 151.034C205.885 147.445 207.321 144.144 207.656 143.426C203.062 143.666 198.469 143.905 193.876 144.144Z" fill="#100F0D"/>
<path d="M167.416 179.168C167.177 180.699 167.033 182.804 167.416 185.245C168.086 189.455 170.048 192.422 171.196 193.953C174.067 193.666 177.225 193.187 180.67 192.422C185.311 191.369 189.378 190.029 192.775 188.642C191.34 187.924 188.852 186.441 186.699 183.713C184.976 181.512 184.115 179.359 183.684 177.924C178.278 178.355 172.823 178.785 167.416 179.168Z" fill="#100F0D"/>
<path d="M77.2728 173.618H0.239258V250.651H77.2728V173.618Z" fill="white" stroke="#483463" stroke-miterlimit="10"/>
<path d="M2.29671 250.508C2.29671 248.929 2.29671 246.489 2.44025 243.474C2.77518 236.058 3.15795 228.785 5.93307 220.46C6.65077 218.355 7.7991 215.292 9.66513 211.704C10.8613 211.321 12.5359 210.843 14.5455 210.316C17.4642 209.551 23.0144 208.307 30.957 207.637C39.5694 206.919 45.8374 206.393 53.8757 208.211C58.3254 209.216 61.8661 210.603 64.1627 211.656C64.9761 213.139 66.0766 215.34 67.1771 218.163C69.4737 224.096 70.1915 228.881 70.9092 234.335C71.4355 238.355 71.9618 243.713 72.0096 250.125C48.8039 250.221 25.5503 250.364 2.29671 250.508Z" fill="#DEDC52"/>
<path d="M11.3876 211.082C28.0862 207.732 45.6938 204.527 62.1532 210.699C62.3924 210.795 62.4402 210.412 62.2489 210.364C45.7417 204.144 28.0383 207.398 11.2919 210.747C11.0527 210.795 11.1484 211.13 11.3876 211.082Z" fill="#483463"/>
<path d="M11.244 216.01C11.4833 227.685 12.9187 239.311 15.5024 250.699C15.5503 250.938 15.8852 250.843 15.8374 250.603C13.2536 239.216 11.8661 227.637 11.6268 216.01C11.579 215.771 11.244 215.771 11.244 216.01Z" fill="#483463"/>
<path d="M64.8326 219.359C64.7847 229.742 63.8757 240.029 62.0575 250.268C62.0096 250.508 62.3446 250.603 62.3924 250.364C64.2584 240.125 65.1675 229.79 65.2154 219.359C65.2154 219.12 64.8326 219.12 64.8326 219.359Z" fill="#483463"/>
<path d="M9.52157 211.608C6.22013 216.919 4.97612 223.043 3.92348 229.12C2.82301 235.819 2.201 242.565 1.96176 249.311C1.96176 249.551 2.29669 249.551 2.34454 249.311C2.53592 242.565 3.15793 235.866 4.25841 229.216C5.2632 223.139 6.55506 217.063 9.80865 211.752C9.95219 211.56 9.66511 211.417 9.52157 211.608Z" fill="#483463"/>
<path d="M64.0192 211.704C70.5263 223.426 71.244 236.919 71.8661 250.029C71.8661 250.268 72.2488 250.268 72.2488 250.029C71.6747 236.871 70.9091 223.283 64.3541 211.512C64.2106 211.321 63.9235 211.512 64.0192 211.704Z" fill="#483463"/>
<path d="M30.4785 200.46C30.622 199.981 30.9569 199.216 31.6268 198.45C31.866 198.163 33.2536 196.728 35.311 196.68C36.555 196.632 37.4163 197.158 38.4211 197.78C39.2823 198.307 40.7656 199.359 42.0096 201.369C42.1531 200.843 42.2967 200.125 42.2967 199.264C42.3445 196.823 41.2919 195.005 40.7656 194.192C38.8995 191.13 36.1244 189.981 35.2632 189.646C33.9235 189.12 32.4402 188.594 30.7656 189.12C28.9474 189.742 27.9904 191.273 27.5598 191.991C27.177 192.613 26.4593 193.857 26.5072 195.532C26.5072 196.01 26.6029 197.302 27.512 198.546C28.5646 199.981 30.0479 200.364 30.4785 200.46Z" fill="#483463"/>
<path d="M31.0526 198.977C30.622 199.599 30.5263 200.173 30.4306 200.651C30.3349 201.13 30.0957 202.517 30.7177 204.096C31.4833 206.106 33.11 207.063 33.5885 207.302C34.4019 207.733 35.1196 207.924 35.6459 207.972C35.9809 208.69 35.933 209.024 35.7895 209.216C35.5502 209.551 35.1675 209.407 34.689 209.742C34.3541 209.981 33.9234 210.508 34.0191 210.89C34.1627 211.512 35.5981 211.608 36.3158 211.656C37.2727 211.704 38.8038 211.847 39.9522 210.795C40.2392 210.556 40.4306 210.268 40.5263 210.077C40.4306 208.833 40.3349 207.637 40.2392 206.393C40.5263 206.106 40.8612 205.723 41.1962 205.149C41.6268 204.431 41.7703 203.761 41.8182 203.57C41.866 203.283 42.0574 202.517 41.9139 201.608C41.6746 200.221 40.8612 199.312 40.1914 198.594C39.378 197.733 38.8038 197.063 37.7512 196.728C36.0766 196.201 34.5933 196.823 33.2057 197.445C31.6746 198.067 31.1962 198.737 31.0526 198.977Z" fill="white"/>
<path d="M30.7177 199.168C29.2345 202.9 31.1005 207.302 35.2632 208.02C39.1866 208.69 42.4402 205.436 42.0574 201.56C42.0574 201.321 41.6747 201.321 41.6747 201.56C42.0574 205.436 38.6125 208.594 34.7369 207.541C31.1005 206.536 29.7129 202.565 31.0048 199.264C31.1483 199.072 30.7656 198.977 30.7177 199.168Z" fill="#483463"/>
<path d="M35.4545 208.02C35.4545 208.163 35.6938 209.12 35.5981 209.264C35.4546 209.503 35.0718 209.455 34.8325 209.551C34.4498 209.646 33.8756 209.838 33.6842 210.221C33.3014 210.795 33.5885 211.321 34.2105 211.56C35.8373 212.278 39.6651 212.23 40.5263 210.316C40.622 210.125 40.2871 209.934 40.2392 210.125C39.7129 211.273 37.8947 211.512 36.7943 211.512C36.3636 211.512 35.5024 211.512 35.1675 211.369C34.689 211.417 34.5455 211.178 34.6412 210.699C34.3062 210.125 34.4976 209.838 35.1675 209.838C36.3158 209.599 36.0287 209.311 35.8852 208.02C35.7895 207.78 35.4545 207.78 35.4545 208.02Z" fill="#483463"/>
<path d="M30.1436 199.933C26.6029 199.216 26.0287 195.34 27.4641 192.565C28.9952 189.599 31.866 188.45 34.9282 189.79C39.5215 191.752 43.0144 196.201 41.7703 201.369C41.7225 201.608 42.0574 201.704 42.1053 201.465C42.823 198.402 42.0096 195.34 39.9522 192.948C38.0861 190.747 34.4498 188.259 31.4354 188.833C26.268 189.838 23.8278 199.072 30.0479 200.316C30.2871 200.364 30.3828 199.981 30.1436 199.933Z" fill="#483463"/>
<path d="M30.9569 199.311C32.7273 197.637 35.1675 196.201 37.7033 197.063C38.6603 197.398 39.4737 198.067 40.1435 198.833C40.1435 198.833 42.0096 201.417 41.7225 201.56C41.5311 201.656 41.7225 201.991 41.9139 201.847C41.9617 201.847 42.0096 201.799 42.0096 201.799C42.0574 201.752 42.1053 201.704 42.1053 201.656C42.0574 199.79 39.6651 197.493 38.0383 196.823C35.311 195.723 32.6316 197.206 30.6698 199.072C30.5263 199.216 30.7655 199.503 30.9569 199.311Z" fill="#483463"/>
<path d="M34.7847 198.929C33.7321 200.221 32.5838 203.57 34.9283 204.24C35.1675 204.288 35.2632 203.953 35.024 203.905C33.0144 203.283 34.2106 200.221 35.0718 199.168C35.1675 198.977 34.9283 198.737 34.7847 198.929Z" fill="#483463"/>
<path d="M36.6029 201.082C36.8407 201.082 37.0335 200.739 37.0335 200.316C37.0335 199.893 36.8407 199.551 36.6029 199.551C36.3651 199.551 36.1723 199.893 36.1723 200.316C36.1723 200.739 36.3651 201.082 36.6029 201.082Z" fill="#483463"/>
<path d="M279.761 35.8186H200.574V114.048H279.761V35.8186Z" fill="white" stroke="#483463" stroke-miterlimit="10"/>
<path d="M150.909 74.479C150.957 74.5747 151.005 74.6704 151.053 74.8618C151.244 75.6273 151.148 76.2972 151.1 76.5364C150.909 77.6847 151.1 78.3546 151.053 79.2158C150.861 81.2254 149.378 83.235 148.469 84.2876C149.33 84.6704 150.478 85.101 151.866 85.2924C155.55 85.8187 158.517 84.479 159.809 83.8091C159.809 82.9957 159.809 82.1824 159.809 81.3211C159.713 78.9288 159.474 76.68 159.139 74.6704C158.373 74.479 157.512 74.2876 156.507 74.1919C154.211 73.9527 152.297 74.1919 150.909 74.479Z" fill="#100F0D"/>
<path d="M165.646 78.1153C165.359 77.8761 164.976 77.5412 164.402 77.2062C162.679 76.1058 161.34 75.8665 160.909 75.8187C159.569 75.6273 159.139 75.9622 158.995 76.0579C158.899 76.1536 158.421 76.5842 158.612 77.0627C158.708 77.3976 159.043 77.6369 159.474 77.6369C159.569 78.2589 159.617 78.8809 159.617 79.5507C159.665 80.7469 159.617 81.8474 159.522 82.8522C160 83.1393 160.718 83.522 161.675 83.7613C162.632 84.0484 164.402 84.5268 165.407 83.8091C166.603 82.9479 166.794 80.6034 165.646 78.1153Z" fill="white"/>
<path d="M211.388 71.4646C210.144 72.6608 208.899 73.8569 207.56 75.0531C202.632 79.5507 197.703 83.4263 192.919 86.7278C190.67 86.0579 188.373 85.388 186.077 84.6703C179.091 82.5172 172.392 80.2206 165.981 77.7804C165.646 78.0675 164.976 78.6416 164.593 79.5986C163.971 81.1775 164.45 82.6129 164.545 82.9479C169.043 86.6321 173.062 89.7421 176.411 92.278C176.411 92.278 179.713 94.766 188.469 99.5986C189.33 100.077 190.957 100.938 193.254 101.178C195.024 101.321 196.411 100.986 197.703 100.651C200.813 99.8856 202.966 98.5459 203.876 97.9718C210.861 93.7134 214.354 91.6081 216.411 89.5029C220.335 85.5794 223.206 82.7565 222.727 79.4072C222.249 75.6751 217.56 72.5172 211.388 71.4646Z" fill="#DEDC52"/>
<path d="M210.909 71.7995C205.454 76.8234 199.713 81.5603 193.684 85.9143C193.493 86.0579 193.684 86.345 193.876 86.2014C199.904 81.7995 205.694 77.0627 211.148 72.0387C211.34 71.8952 211.1 71.656 210.909 71.7995Z" fill="#483463"/>
<path d="M165.933 78.0197C174.641 81.2733 183.397 84.2876 192.249 87.0627C192.488 87.1106 192.584 86.7757 192.344 86.7278C183.493 83.9048 174.737 80.8905 166.029 77.6847C165.837 77.589 165.742 77.924 165.933 78.0197Z" fill="#483463"/>
<path d="M165.502 77.9718C164.402 79.1679 163.923 80.7469 164.21 82.3737C164.258 82.6129 164.593 82.5172 164.545 82.278C164.306 80.7947 164.737 79.3593 165.742 78.2588C165.885 78.0675 165.646 77.8282 165.502 77.9718Z" fill="#483463"/>
<path d="M164.737 83.5698C172.488 89.8377 180.622 96.6798 189.904 100.508C193.828 102.134 197.56 101.273 201.292 99.5507C205.694 97.5411 209.761 94.8617 213.493 91.7516C213.684 91.6081 213.397 91.3688 213.254 91.5124C209.856 94.3353 206.22 96.7755 202.249 98.6894C199.713 99.9334 196.938 101.13 194.019 101.082C191.483 101.034 189.234 99.8856 187.033 98.7373C179.043 94.5746 171.962 88.9286 164.976 83.2827C164.833 83.187 164.593 83.4263 164.737 83.5698Z" fill="#483463"/>
<path d="M165.359 77.5889C164.21 76.8234 163.062 76.01 161.675 75.6751C160.909 75.5315 159.043 75.3401 158.517 76.0578C157.464 77.4454 160.861 78.1153 161.292 78.6416C161.435 78.833 161.675 78.5459 161.531 78.4023C161.292 78.0674 161.005 77.9239 160.67 77.7803C160.143 77.5411 158.038 77.254 159.378 76.1057C160.096 75.4837 162.105 76.1535 162.823 76.4885C163.636 76.8712 164.402 77.3975 165.167 77.9239C165.359 78.0674 165.55 77.7325 165.359 77.5889Z" fill="#483463"/>
<path d="M150.574 74.9096C151.435 78.0675 150.766 81.2732 148.66 83.7613C148.517 83.9527 148.756 84.1919 148.9 84.0005C151.1 81.4168 151.818 78.0675 150.909 74.8139C150.861 74.6225 150.526 74.7182 150.574 74.9096Z" fill="#483463"/>
<path d="M150.909 74.6703C152.057 74.6225 153.254 74.5268 154.402 74.479C155.502 74.4311 157.129 74.0483 158.134 74.5747C158.325 74.6703 158.517 74.3833 158.325 74.2876C157.464 73.8569 156.459 74.0483 155.502 74.0962C153.971 74.1919 152.488 74.2397 150.957 74.3354C150.67 74.2876 150.67 74.6703 150.909 74.6703Z" fill="#483463"/>
<path d="M149.569 84.9095C152.775 85.9143 156.029 85.6272 158.995 84.0483C159.187 83.9526 158.995 83.6177 158.804 83.7612C155.933 85.2923 152.727 85.5315 149.617 84.5746C149.426 84.5268 149.33 84.8617 149.569 84.9095Z" fill="#483463"/>
<path d="M159.33 78.2588C159.617 80.077 159.617 81.8473 159.234 83.6655C159.187 83.9047 159.522 84.0004 159.569 83.7612C159.904 81.8952 159.952 80.0291 159.665 78.1631C159.665 77.9239 159.282 78.0196 159.33 78.2588Z" fill="#483463"/>
<path d="M159.809 83.2828C161.292 83.9048 162.823 84.1919 164.402 84.144C164.641 84.144 164.641 83.7612 164.402 83.7612C162.871 83.8091 161.388 83.5699 160 82.9478C159.761 82.9 159.569 83.1871 159.809 83.2828Z" fill="#483463"/>
<path d="M212.01 71.0818C211.579 72.3258 211.053 74.144 210.765 76.4885C210.478 78.833 210.526 80.6511 210.574 81.7038C210.957 90.0291 211.148 94.144 211.435 96.632C211.962 101.082 212.871 106.584 214.45 112.804C228.852 112.661 243.301 112.469 257.703 112.326C257.943 110.986 258.277 109.024 258.612 106.584C259.569 99.8378 259.952 95.0531 260.239 91.8473C260.622 87.6368 261.34 81.5602 262.632 74.0004C261.914 73.5698 260.765 72.9478 259.378 72.3736C255.694 70.8425 252.919 70.7468 247.99 70.2684C240.622 69.5507 241.914 69.2636 238.182 69.0722C234.88 68.9287 232.105 69.12 226.507 69.5028C224.928 69.5985 220.957 69.9334 215.837 70.5555C214.306 70.7468 212.966 70.9382 212.01 71.0818Z" fill="#DEDC52"/>
<path d="M212.057 71.2731C220.335 69.9334 228.708 69.3114 237.129 69.5985C241.244 69.742 245.359 70.077 249.426 70.6033C253.493 71.1296 257.895 71.5602 261.627 73.5219C261.818 73.6176 262.009 73.3306 261.818 73.2349C258.325 71.4167 254.258 70.9382 250.431 70.4119C246.316 69.8377 242.201 69.455 238.086 69.3114C229.378 68.9765 220.622 69.5506 212.01 70.9382C211.722 70.9382 211.818 71.321 212.057 71.2731Z" fill="#483463"/>
<path d="M210.431 79.0722C210.287 90.2684 211.483 101.465 214.067 112.374C214.115 112.613 214.45 112.517 214.402 112.278C211.866 101.369 210.67 90.2684 210.813 79.0722C210.766 78.833 210.431 78.833 210.431 79.0722Z" fill="#483463"/>
<path d="M261.914 77.4933C260.431 88.9287 259.091 100.364 257.943 111.799C257.943 112.039 258.277 112.039 258.325 111.799C259.474 100.316 260.813 88.8808 262.297 77.4933C262.297 77.3019 261.914 77.3019 261.914 77.4933Z" fill="#483463"/>
<path d="M261.722 73.3784C262.153 73.9526 262.727 74.766 263.445 75.7708C265.598 79.0243 267.081 82.1344 268.469 85.6272C270.287 90.2205 273.493 99.455 277.081 111.799C272.297 112.039 267.512 112.278 262.727 112.565C260.813 108.354 259.043 105.053 257.799 102.804C255.742 99.12 254.545 97.4932 252.727 93.7133C250.67 89.455 249.617 87.3019 249.665 85.5315C249.617 78.9287 259.665 74.2875 261.722 73.3784Z" fill="#DEDC52"/>
<path d="M262.727 75.0052C269.521 86.2492 273.349 98.8808 276.842 111.417C276.89 111.656 277.273 111.56 277.177 111.321C273.684 98.7372 269.856 86.0578 263.014 74.8138C262.919 74.6224 262.632 74.8138 262.727 75.0052Z" fill="#483463"/>
<path d="M250.67 90.077C254.21 97.8281 259.187 104.814 262.488 112.661C262.584 112.852 262.871 112.709 262.775 112.469C259.426 104.622 254.498 97.6368 250.957 89.8856C250.861 89.6942 250.574 89.8377 250.67 90.077Z" fill="#483463"/>
<path d="M225.981 61.0817C226.555 60.9382 227.177 60.7947 227.799 60.6033C230.048 59.9334 231.914 58.9286 233.397 58.0195C233.828 58.8808 234.258 59.5028 234.545 59.8856C235.837 61.7037 236.794 62.2301 237.177 63.6176C237.368 64.3353 237.368 65.0052 237.273 65.4358C237.464 65.2923 237.655 65.1009 237.847 64.9573C237.99 65.388 238.277 65.9621 238.756 66.4884C240.526 68.5459 243.493 68.4502 244.306 68.4023C246.986 68.3066 248.804 66.9191 249.569 66.297C251.531 64.6703 252.201 62.6607 252.536 61.5124C253.923 57.2061 252.249 53.4741 252.01 52.8999C251.579 51.943 250.335 49.3592 247.321 47.6368C244.115 45.8664 241.053 46.297 240.048 46.4884C237.56 46.9191 235.837 48.1631 235.072 48.7851C234.832 48.7372 233.636 48.498 232.536 49.2157C231.435 49.9334 230.909 51.4167 231.292 52.8521C230.861 52.8521 230.191 52.8521 229.426 52.9956C228.612 53.1392 226.124 53.6176 224.641 55.7229C224.163 56.3927 223.254 57.7325 223.732 59.0722C224.163 60.6033 225.742 61.0339 225.981 61.0817Z" fill="#483463"/>
<path d="M226.459 60.4597C226.22 60.9861 225.885 61.7995 225.742 62.8999C225.646 63.6655 225.407 65.5794 226.555 67.3497C226.794 67.7325 227.56 68.9286 229.091 69.5985C230.67 70.2683 232.105 69.9813 232.584 69.8856C232.823 70.1727 233.062 70.4119 233.301 70.699C233.254 70.699 232.44 70.9861 232.249 71.7994C232.105 72.3258 232.297 72.8042 232.584 73.1392C233.301 73.9047 234.641 73.5219 234.928 73.4741C236.22 73.0913 236.938 72.0387 237.273 71.5124C237.895 70.6033 238.086 69.6942 238.182 69.1679C237.655 68.498 237.129 67.8282 236.603 67.1583C236.842 66.9191 237.273 66.3928 237.416 65.6272C237.512 65.1966 237.464 64.6703 237.177 63.9526C236.699 62.6128 235.981 61.943 235.12 60.8425C234.641 60.2684 234.019 59.3593 233.397 58.2109C232.679 58.5459 231.962 58.8808 231.148 59.1679C229.474 59.6942 227.895 60.1248 226.459 60.4597Z" fill="white"/>
<path d="M235.694 53.7611C235.933 53.7133 236.986 53.6176 237.99 54.3353C239.234 55.1965 239.378 56.5841 239.378 56.7755C238.182 55.7707 236.938 54.7659 235.694 53.7611Z" fill="white"/>
<path d="M226.268 60.5075C224.928 63.6176 225.311 68.4022 228.995 69.7419C232.344 70.986 236.029 69.0242 237.416 65.9142C237.512 65.7228 237.225 65.5314 237.129 65.7228C235.933 68.3544 233.158 70.1247 230.191 69.6463C226.029 68.9286 225.12 64.096 226.555 60.6989C226.699 60.4597 226.364 60.3161 226.268 60.5075Z" fill="#483463"/>
<path d="M232.488 69.9813C232.919 70.4119 233.301 70.8903 233.636 71.4167C233.78 71.6081 234.067 71.4167 233.923 71.2253C233.588 70.699 233.158 70.1726 232.679 69.6942C232.584 69.5506 232.297 69.7899 232.488 69.9813Z" fill="#483463"/>
<path d="M232.488 71.0817C231.244 72.4214 232.823 73.9525 234.306 73.7611C236.364 73.4741 238.277 71.0817 238.373 69.0721C238.373 68.8329 238.038 68.8329 237.99 69.0721C237.943 70.4118 237.177 71.4645 236.22 72.3257C235.742 72.7563 235.167 73.187 234.498 73.3784C233.397 73.6654 231.579 72.6128 232.727 71.3209C232.871 71.1295 232.632 70.8903 232.488 71.0817Z" fill="#483463"/>
<path d="M230 60.5075C229.043 61.5602 228.086 63.9047 229.139 65.1487C229.282 65.3401 229.521 65.053 229.378 64.9094C228.517 63.9047 229.474 61.6559 230.239 60.7946C230.383 60.6032 230.143 60.364 230 60.5075Z" fill="#483463"/>
<path d="M229.904 66.6798C231.196 67.1583 232.201 66.1535 232.919 65.2444C233.062 65.053 232.823 64.8138 232.679 65.0052C232.009 65.8186 231.148 66.8234 230 66.3927C229.809 66.2492 229.713 66.5841 229.904 66.6798Z" fill="#483463"/>
<path d="M226.459 60.6511C228.947 60.3161 231.196 59.3114 233.445 58.2109C233.636 58.1152 233.493 57.7803 233.254 57.9238C231.053 58.9764 228.899 60.0291 226.459 60.3162C226.22 60.3162 226.22 60.6511 226.459 60.6511Z" fill="#483463"/>
<path d="M233.253 58.1631C234.354 60.699 237.273 62.4215 237.273 65.388C237.273 65.6272 237.655 65.6272 237.655 65.388C237.655 62.278 234.737 60.6033 233.588 57.9717C233.493 57.7804 233.158 57.9239 233.253 58.1631Z" fill="#483463"/>
<path d="M226.029 60.8904C221.34 59.9334 225.072 54.9095 227.416 53.8569C229.426 52.9478 231.722 53.1392 233.78 53.7612C238.517 55.2444 240.143 61.4645 237.225 65.388C237.081 65.5794 237.416 65.7708 237.512 65.5794C239.282 63.1392 239.378 59.7899 238.182 57.0626C236.89 54.1918 233.828 52.9956 230.813 52.8521C228.038 52.7086 224.785 54.0483 223.684 56.7755C222.919 58.6894 223.732 60.7947 225.837 61.2253C226.124 61.321 226.22 60.9382 226.029 60.8904Z" fill="#483463"/>
<path d="M231.34 52.9478C230.718 50.6033 231.579 49.8377 233.923 49.5028C234.45 49.4071 234.45 49.5506 234.88 49.4071C235.263 49.3114 235.455 49.12 235.789 48.8808C237.033 48.0195 237.943 47.254 239.474 46.8712C243.732 45.8186 248.421 47.9717 250.861 51.5123C253.493 55.2923 253.493 60.6033 250.957 64.3832C247.895 69.0243 241.388 69.5985 237.895 65.1487C237.751 64.9573 237.512 65.2444 237.655 65.3879C240.622 69.2157 246.124 69.6942 249.713 66.3927C253.732 62.7085 254.211 56.0578 251.34 51.608C248.756 47.6368 243.636 45.2923 238.995 46.632C237.799 46.9669 237.081 47.7324 236.029 48.2109C235.024 48.6415 233.588 48.4501 232.679 48.8329C231.005 49.5506 230.622 51.4167 231.053 53.0434C231.1 53.2827 231.435 53.187 231.34 52.9478Z" fill="#483463"/>
<path d="M232.249 62.4692C232.46 62.4692 232.632 62.1908 232.632 61.8472C232.632 61.5037 232.46 61.2252 232.249 61.2252C232.037 61.2252 231.866 61.5037 231.866 61.8472C231.866 62.1908 232.037 62.4692 232.249 62.4692Z" fill="#483463"/>
</g>
<defs>
<clipPath id="clip0_919_11221">
<rect width="280" height="280" fill="white"/>
</clipPath>
</defs>
</svg>
